SplineFontDB: 3.0
FontName: Mekorot-Rashi-Bold-Italic
FullName: Rashi font bold italic
FamilyName: Mekorot-Rashi
Weight: Bold
Copyright: Based on the Rashi font from the "Makor" (http://www.ctan.org/tex-archive/language/hebrew/makor/) set.\nLicensed under lppl (http://www.latex-project.org/lppl/lppl-1.3c.txt).
UComments: "2008-11-23: Created." 
Version: 001.000
ItalicAngle: -15
UnderlinePosition: -100
UnderlineWidth: 50
Ascent: 800
Descent: 200
LayerCount: 2
Layer: 0 0 "Back" 
Layer: 1 0 "Fore" 
XUID: [1021 686 1246326004 15683650]
FSType: 8
OS2Version: 0
OS2_WeightWidthSlopeOnly: 0
OS2_UseTypoMetrics: 1
CreationTime: 1227458251
ModificationTime: 1243450448
PfmFamily: 17
TTFWeight: 500
TTFWidth: 5
LineGap: 90
VLineGap: 0
OS2TypoAscent: 0
OS2TypoAOffset: 1
OS2TypoDescent: 0
OS2TypoDOffset: 1
OS2TypoLinegap: 90
OS2WinAscent: 0
OS2WinAOffset: 1
OS2WinDescent: 0
OS2WinDOffset: 1
HheadAscent: 0
HheadAOffset: 1
HheadDescent: 0
HheadDOffset: 1
OS2Vendor: 'PfEd'
DEI: 0
LangName: 1033 
Encoding: iso8859-8
UnicodeInterp: none
NameList: Adobe Glyph List
DisplaySize: 720
AntiAlias: 1
FitToEm: 1
WinInfo: 240 12 5
BeginChars: 374 184

StartChar: exclam
Encoding: 33 33 3
Width: 306
VWidth: 1
Flags: HW
LayerCount: 2
Back
Fore
SplineSet
222.173 164.782 m 0
 272.839 151.563 287.785 101.801 275.403 54.8691 c 0
 265.323 16.6602 235.954 -23.7402 190.673 -44.0312 c 0
 179.366 -49.0977 166.682 -53.6973 152.988 -55.5693 c 0
 146.718 -56.4268 140.396 -56.915 134.097 -56.915 c 0
 123.771 -56.915 113.518 -55.5801 103.805 -52.4395 c 0
 58.375 -37.75 40.418 9.16113 53.1133 57.2793 c 0
 56.0508 68.418 60.6953 79.6709 67.0918 90.6631 c 0
 82.877 117.785 108.276 138.414 129.486 150.5 c 0
 144.016 158.778 157.777 163.209 170.262 165.77 c 1
 160.44 171.695 154.117 182.429 155.729 197.41 c 0
 156.615 205.635 158.822 214.097 159.923 218.269 c 0
 161.176 223.018 161.466 223.952 162.433 227.617 c 0
 163.568 231.921 164.14 234.508 164.476 236.225 c 0
 169.941 264.206 174.012 292.392 178.37 321.17 c 0
 189.469 394.441 194.192 468.336 205.201 544.254 c 0
 208.381 566.182 212.003 587.891 215.579 609.481 c 0
 216.706 616.289 216.627 624.415 219.574 635.588 c 0
 219.838 636.588 221.034 640.553 221.646 642.248 c 0
 234.168 676.965 267.119 712.978 293.054 729.057 c 0
 317.445 744.17 347.623 750.456 360.902 752.451 c 0
 365.832 753.186 370.7 753.543 375.501 753.543 c 0
 401.923 753.543 434.12 742.398 441.736 710.801 c 0
 445.903 693.504 442.682 675.446 438.573 659.87 c 0
 436.915 653.587 435.04 647.605 433.214 642.11 c 0
 424.478 615.818 412.319 592.337 404.104 571.182 c 0
 369.812 482.872 332.583 394.866 295.215 307.405 c 0
 282.113 276.74 270.882 242.313 253.234 207.921 c 0
 249.925 201.471 248.102 198.169 243.818 192.099 c 0
 239.621 186.149 230.175 173.839 215.167 166.419 c 1
 217.598 165.922 219.934 165.366 222.173 164.782 c 0
EndSplineSet
EndChar

StartChar: quotedbl
Encoding: 34 34 4
Width: 539
VWidth: 2
Flags: HW
LayerCount: 2
Back
Fore
SplineSet
492.779 657.47 m 2
 499.52 669.679 506.721 686.44 522.799 701.638 c 0
 548.055 725.508 577.104 729.722 598.783 729.722 c 0
 616.731 729.722 632.747 727.034 644.196 726.243 c 0
 655.493 725.473 677.528 728.196 694.151 712.775 c 2
 704.466 703.199 l 1
 696.646 687.607 l 2
 689.261 672.892 684.353 655.025 670.34 633.938 c 0
 647.451 599.497 618.314 571.796 593.506 546.023 c 2
 496.153 443.531 l 1
 441.833 387.581 l 2
 436.111 381.136 431.697 375.398 425.159 369.254 c 0
 420.032 364.435 414.87 360.253 408.78 357.709 c 0
 405.382 356.289 401.54 354.026 391.323 352.872 c 0
 390.585 352.788 387.715 352.549 386.547 352.491 c 0
 385.206 352.428 382.984 352.389 382.102 352.389 c 0
 372.228 352.389 362.74 353.853 357.803 353.853 c 2
 329.604 353.853 l 1
 341.069 381.751 l 2
 352.831 410.369 370.592 436.377 382.86 458.442 c 2
 492.779 657.47 l 2
270.482 657.419 m 2
 276.847 668.947 283.64 684.797 298.762 699.415 c 0
 320.436 720.37 345.074 729.302 376.204 729.302 c 0
 394.582 729.302 410.955 726.593 422.881 726.292 c 0
 423.047 726.292 423.542 726.278 423.708 726.278 c 0
 426.735 726.278 429.826 726.523 433.863 726.523 c 0
 434.258 726.523 435.441 726.509 435.834 726.502 c 0
 443.957 726.334 454.767 726.285 464.331 720.594 c 0
 469.446 717.556 474.583 712.215 476.637 704.41 c 0
 477.799 699.997 477.823 694.316 476.048 687.588 c 0
 473.382 677.482 467.767 667.893 466.087 664.283 c 0
 452.053 634.104 431.013 609.045 410.471 586.859 c 2
 257.79 426.231 l 1
 216.111 382.633 l 2
 210.017 375.897 209.015 374.453 205.359 370.707 c 0
 204.826 370.161 202.717 368.079 201.458 366.94 c 0
 200.705 366.258 198.152 364.081 196.521 362.862 c 0
 194.603 361.428 191.197 359.288 189.812 358.548 c 0
 182.461 354.618 175.306 353.61 169.682 353.61 c 0
 168.699 353.61 164.225 353.853 163.56 353.853 c 2
 105.934 353.853 l 1
 120.623 383.646 l 2
 156.165 455.728 198.256 525.733 236.095 594.577 c 2
 270.482 657.419 l 2
EndSplineSet
EndChar

StartChar: numbersign
Encoding: 35 35 5
Width: 577
VWidth: 1
Flags: HW
HStem: 221.451 119.253<67.2396 148.114 328.983 372.4 540.754 622.763> 436.957 119.253<152.118 242.224 626.193 707.644>
LayerCount: 2
Back
Fore
SplineSet
364.452 435.002 m 1
 328.983 342.756 l 1
 422.945 341.155 l 1
 456.401 431.803 l 1
 364.452 435.002 l 1
382.229 780.409 m 1
 503.565 780.409 l 1
 494.564 754.145 l 2
 470.656 684.382 434.761 620.705 409.346 556.21 c 1
 503.264 556.21 l 1
 530.231 626.849 567.896 693.325 590.043 757.967 c 2
 597.732 780.409 l 1
 720.23 780.409 l 1
 663.271 645.055 l 1
 626.193 556.21 l 1
 739.102 556.21 l 1
 707.644 436.957 l 1
 578.979 436.957 l 1
 540.754 340.705 l 1
 654.224 340.705 l 1
 622.764 221.451 l 1
 493.864 221.451 l 1
 468.037 158.203 l 1
 393.79 -22.0781 l 1
 274.415 -22.0781 l 1
 307.665 61.6523 l 1
 358.741 187.321 l 1
 372.4 221.451 l 1
 268.867 221.451 l 1
 252.514 180.589 l 1
 184.929 14.4072 l 1
 177.109 -1.9209 l 1
 168.356 -20.1221 l 1
 129.877 -22.0615 l 1
 52.5059 -22.0791 l 1
 59.1875 2.47656 l 2
 69.1113 38.9502 87.833 74.3496 100.495 104.578 c 0
 116.477 142.727 131.33 181.944 148.113 221.451 c 1
 35.7783 221.451 l 1
 67.2393 340.705 l 1
 205.281 340.705 l 1
 242.224 436.957 l 1
 120.657 436.957 l 1
 152.118 556.21 l 1
 287.759 556.21 l 1
 314.726 626.85 352.385 693.323 374.54 757.974 c 2
 382.229 780.409 l 1
EndSplineSet
EndChar

StartChar: dollar
Encoding: 36 36 6
Width: 611
VWidth: 0
Flags: HW
HStem: 9.5949 3.34346<203.431 237.842> 22.1231 8.953<153.612 177.666>
LayerCount: 2
Back
SplineSet
264 819 m 11x33
 264 738.27 264 692.73 264 612 c 19
 264 608.33 262.392 606.785 259.887 606.785 c 0
 251.04 606.785 231 626.041 231 639 c 11
 231 661.506 204 667.494 204 690 c 27
 204 707.705 210 717.295 210 735 c 27
 210 752.394 225 759.606 225 777 c 27
 225 790.34 252 784.66 252 798 c 19
 252 805.768 260.139 821.381 263.011 821.381 c 0
 263.626 821.381 264 820.664 264 819 c 11x33
321 831 m 25x37
 321 594 l 25
 369 561 l 25x3b
 381 837 l 25
 321 831 l 25x37
321 363 m 25x37
 378 333 l 25
 372 60 l 25
 321 54 l 25
 321 363 l 25x37
435 300 m 25
 435 60 l 25
 459.57 76.3799 482.064 77.1396 498 102 c 16
 508.668 118.642 510.173 133.284 510.173 149.985 c 0
 510.173 156.546 509.941 163.426 509.941 170.869 c 0
 509.941 172.87 509.957 174.912 510 177 c 0
 510.214 187.509 510.808 196.67 510.808 205.325 c 0
 510.808 219.971 509.109 233.169 501 249 c 8
 487.794 274.782 469.921 282.288 447 300 c 24
 443.297 302.861 439.68 300 435 300 c 25
265.277 950 m 1
 265.277 881.944 l 1
 248.482 879.43 230.556 869.879 215.277 862.925 c 0
 127.018 823.136 75.6611 731.662 75.6611 639.605 c 0
 75.6611 590.677 90.1688 541.584 121.354 500 c 0
 145.766 467.45 176.197 438.563 211.111 417.501 c 0
 223.221 410.196 235.625 403.821 248.611 398.221 c 0
 253.667 395.833 262.089 394.275 264.44 388.704 c 0
 265.799 385.456 266.207 381.353 266.207 377.043 c 0
 266.207 370.538 265.277 363.561 265.277 358.333 c 2
 265.277 290.277 l 1
 265.277 51.3887 l 1
 251.227 57.6182 238.233 61.6553 228.889 75 c 0
 194.444 123.997 228.057 198.385 173.611 236.499 c 0
 166.306 241.612 158.333 245.833 150 248.571 c 0
 142.913 250.818 135.43 251.914 127.919 251.914 c 0
 101.572 251.914 74.8811 238.434 63.7559 213.889 c 0
 59.3758 204.225 57.4605 192.508 57.4605 180.683 c 0
 57.4605 167.913 59.6942 155.016 63.4697 144.444 c 0
 92.7793 62.375 173.953 -5.9209 262.5 -9.72266 c 1x73
 262.5 -154.167 l 1
 318.056 -154.167 l 1
 318.056 -23.6113 l 1
 381.944 -23.6113 l 1xb3
 381.944 -154.167 l 1
 433.333 -154.167 l 1
 433.333 -54.167 l 2
 433.333 -48.5549 431.933 -38.8333 431.933 -30.22 c 0
 431.933 -24.3923 432.574 -19.0719 434.723 -15.875 c 0
 439.724 -8.54199 462.451 -4.68164 470.833 -1.85156 c 0
 495.684 6.54492 519.444 17.7871 540.277 33.9238 c 0
 618.943 94.9815 647.252 193.895 647.252 289.977 c 0
 647.252 291.93 647.24 293.882 647.217 295.833 c 0
 646.258 376.389 578.737 447.562 516.667 489.8 c 0
 499.099 501.754 481 512.5 462.5 523.022 c 0
 455.872 526.759 443.056 530.075 438.889 536.652 c 0
 437.3 539.17 436.866 542.835 436.866 546.681 c 0
 436.866 551.329 437.5 556.243 437.5 559.723 c 2
 437.5 616.667 l 1
 437.5 829.167 l 1
 444.444 829.021 451.389 827.777 458.333 825.905 c 0
 483.333 818.056 490.132 799.01 493.855 775 c 0
 500.264 733.674 488.154 663.364 540.277 647.833 c 0
 546.319 646.033 552.741 645.573 559.171 645.573 c 0
 562.612 645.573 566.055 645.704 569.444 645.833 c 0
 610.688 647.692 626.792 685.178 626.792 722.653 c 0
 626.792 741.046 622.913 759.437 616.223 773.611 c 0
 592.333 823.999 537.5 857.194 487.5 877.223 c 0
 471.547 883.604 454.582 890.542 437.5 893.056 c 1
 437.5 950 l 1
 386.111 950 l 1
 386.111 898.611 l 1
 318.056 898.611 l 1
 318.056 950 l 1
 265.277 950 l 1
EndSplineSet
Fore
SplineSet
349.908 571.532 m 2
 311.91 427.501 l 2
 311.407 426.51 310.584 424.396 310.109 423.683 c 0
 305.169 416.238 286.376 402.964 278.036 400.393 c 0
 275.999 399.767 274.296 399.52 272.747 399.52 c 2
 271.396 399.52 l 1
 270.187 399.831 l 2
 267.056 400.636 258.383 401.616 254.279 403.472 c 0
 241.703 409.155 229.801 422.345 230.11 437.966 c 0
 230.133 439.089 230.41 441.781 230.841 444.193 c 1
 230.614 444.576 l 2
 229.532 446.36 227.935 448.412 226.057 451.51 c 0
 220.415 460.812 218.665 469.668 221.858 481.773 c 0
 225.183 494.374 232.507 506.955 234.347 513.273 c 0
 234.361 513.324 234.401 513.479 234.415 513.529 c 0
 234.436 513.609 234.499 513.846 234.519 513.926 c 0
 236.53 521.55 240.347 527.81 244.199 532.99 c 0
 247.665 537.645 250.994 541.034 252.674 543.195 c 1
 252.917 544.114 l 1
 254.211 545.692 l 2
 258.507 550.928 259.838 563.821 283.01 571.199 c 1
 283.097 571.348 l 1
 283.363 571.406 l 1
 284.919 573.61 286.82 575.992 289.15 578.5 c 1
 230.474 554.457 186.295 500.832 172.016 446.709 c 0
 164.292 417.431 165.287 388.62 177.166 364.184 c 0
 187.091 343.771 201.389 325.812 222.517 313.021 c 0
 230.912 308.516 240.014 304.489 249.429 300.986 c 0
 250.034 300.761 250.421 300.72 254.214 299.428 c 0
 259.397 297.664 261.871 296.233 263.436 295.15 c 0
 264.808 294.201 265.795 293.157 266.392 292.154 c 2
 266.916 291.23 l 1
 267.369 292.95 l 1
 388.554 248.608 l 1
 370.699 186.526 l 1
 379.854 193.325 l 1
 387.508 199.009 l 1
 387.149 197.141 l 1
 389.974 200.84 l 1
 393.202 203.238 l 1
 397.093 202.272 l 2
 401.792 200.989 401.29 201.115 402.22 200.668 c 0
 403.399 200.102 405.599 195.396 405.251 194.077 c 0
 404.874 192.65 396.457 186.942 394.729 186.942 c 0
 394.103 186.942 394.752 186.339 391.383 186.14 c 2
 388.595 185.976 l 1
 388.491 186.06 l 1
 388.467 186.06 l 1
 385.511 188.553 l 1
 382.657 190.989 l 1
 382.596 191.042 l 1
 379.854 193.325 l 1
 387.508 199.009 l 1
 389.974 200.84 l 1
 391.964 203.448 l 1
 393.14 203.191 l 1
 425.479 227.21 l 1
 409.859 168.001 l 1
 400.005 176.662 l 2
 397.126 179.192 393.327 182.078 388.595 185.976 c 1
 388.568 185.974 l 1
 388.467 186.06 l 1
 388.256 186.059 l 1
 370.563 186.059 l 1
 323.227 21.4678 l 1
 203.432 12.9385 l 1
 202.549 9.59473 l 1
 324.431 9.59473 l 1
 328.007 12.0674 331.619 13.7734 334.992 15.2656 c 0
 345.493 19.9111 353.137 20.5166 364.053 23.4941 c 0
 382.085 28.4111 398.358 35.3887 412.537 44.5205 c 0
 469.178 81.001 503.187 141.729 519.467 203.437 c 0
 519.666 204.195 520.251 206.467 520.442 207.225 c 0
 530.997 249.157 506.423 292.651 470.625 322.34 c 0
 460.599 330.099 449.507 337.234 437.744 344.404 c 0
 436.5 345.161 429.314 347.831 424.618 351.088 c 0
 421.802 353.04 417.541 359.256 416.271 360.612 c 2
 415.67 361.254 l 1
 415.33 362.063 l 2
 412.542 368.717 413.413 376.023 415.003 382.053 c 0
 415.836 385.21 417.852 391.044 417.874 391.126 c 2
 473.513 602.028 l 1
 473.655 602.572 l 1
 358.986 602.572 l 1
 356.816 594.348 l 1
 339.762 592.035 l 1
 344.824 587.483 349.242 580.661 350.073 575.566 c 0
 350.378 573.7 350.121 572.339 349.908 571.532 c 2
165.329 22.123 m 2
 161.476 23.5879 152.224 26.418 143.826 31.0762 c 1
 154.689 28.2754 166.13 26.5928 177.932 26.1953 c 2
 196.821 25.5381 l 1
 268.751 298.188 l 1
 270.27 295.373 269.395 295.46 272.639 290.886 c 2
 273.442 289.872 l 1
 273.653 288.512 l 2
 274.147 285.304 274.523 279.759 272.205 270.975 c 0
 271.044 266.574 268.53 259.695 268.071 257.958 c 2
 205.267 19.8965 l 1
 203.188 19.7354 l 1
 203.153 19.3438 203.082 18.9404 202.974 18.5283 c 2
 202.967 18.502 l 1
 202.453 16.5537 l 1
 204.386 16.5537 l 1
 201.851 6.94824 l 1
 200.145 7.80566 l 1
 176.652 -81.2451 l 1
 172.952 -76.2197 l 1
 166.602 -81.2451 l 1
 191.27 12.2607 l 1
 165.329 22.123 l 2
73.3809 110.365 m 0
 77.1914 69.5439 103.58 36.2822 141.991 24.1182 c 1
 140.963 24.6885 139.948 25.2852 138.958 25.9092 c 0
 130.856 31.4629 128.453 36.6562 127.031 39.8291 c 0
 109.006 80.0283 142.712 128.995 122.592 146.276 c 0
 119.785 148.687 116.802 150.466 114.009 151.453 c 0
 111.88 152.207 109.347 152.6 106.433 152.6 c 0
 97.4473 152.6 86.0781 147.854 80.7627 140.442 c 0
 79.4062 138.553 76.9678 134.429 75.1104 127.39 c 0
 74.2129 123.985 72.7852 116.756 73.3809 110.365 c 0
304.136 -81.2451 m 1
 298.834 -74.7705 l 1
 290.116 -81.2451 l 1
 303.883 -29.0605 l 2
 304.694 -25.9883 304.979 -21.3877 306.889 -13.707 c 2
 306.896 -13.6797 l 2
 306.959 -13.4248 307.157 -12.6533 307.225 -12.3984 c 0
 307.287 -12.1582 307.482 -11.4424 307.55 -11.1992 c 2
 307.551 -11.1973 l 1
 307.558 -11.1709 l 2
 308.527 -7.71582 309.504 -5.09082 310.663 -2.53516 c 0
 312.108 0.654297 317.203 7.57324 319.211 10.2227 c 0
 320.056 11.3398 321.126 12.3672 321.657 12.8594 c 0
 323.172 14.2656 324.715 15.4814 326.268 16.5537 c 1
 329.938 16.5537 l 1
 322.587 -11.3057 l 2
 322.53 -11.5234 322.348 -12.1787 322.29 -12.3984 c 0
 322.228 -12.6348 322.048 -13.3467 321.986 -13.583 c 2
 304.136 -81.2451 l 1
283.267 571.27 m 1
 283.363 571.406 l 1
 288.252 572.48 l 1
 288.431 572.52 l 1
 312.793 577.703 l 1
 292.207 553.96 l 2
 289.3 550.608 284.499 549.142 280.309 550.327 c 0
 276.118 551.513 274.607 554.764 276.562 558.383 c 0
 277.053 559.289 277.697 562.157 280.846 567.518 c 2
 283.01 571.199 l 1
 283.267 571.27 l 1
252.44 542.309 m 2
 252.674 543.195 l 1
 252.896 543.488 l 1
 252.896 543.488 250.346 534.308 252.388 542.05 c 0
 252.401 542.102 252.427 542.256 252.44 542.309 c 2
231.198 443.541 m 1
 231.124 443.692 231.004 443.915 230.841 444.193 c 1
 230.964 444.879 231.101 445.542 231.246 446.14 c 1
 231.198 443.541 l 1
370.069 186.059 m 1
 370.699 186.526 l 1
 370.563 186.059 l 1
 370.069 186.059 l 1
483.089 638.328 m 1
 488.392 631.854 l 1
 497.109 638.328 l 1
 486.008 596.246 l 1
 498.843 595.995 l 2
 506.772 595.839 514.19 594.606 520.525 592.748 c 0
 527.701 590.643 541.115 585.769 546.974 569.918 c 1
 538.774 575.229 530.135 579.383 522.588 582.477 c 0
 508.74 588.152 501.704 590.837 493.396 592.009 c 2
 471.677 595.071 l 1
 471.821 595.614 l 1
 472.059 596.519 l 1
 483.089 638.328 l 1
586.245 529.533 m 0
 581.828 550.579 565.438 566.104 548.81 576.876 c 1
 550.091 573.408 551.049 569.416 551.55 564.813 c 0
 552.389 557.097 551.808 550.808 551.171 544.682 c 0
 548.527 519.232 537.43 489.711 543.496 479.187 c 0
 543.985 478.336 544.604 477.553 545.849 476.802 c 1
 537.058 464.033 l 1
 538.344 463.828 539.024 463.719 539.024 463.719 c 1
 541.606 464.169 l 1
 547.815 470.676 l 1
 547.815 470.676 545.869 476.777 548.636 475.604 c 0
 549.553 475.215 553.637 475.215 554.231 475.215 c 0
 555.957 475.215 557.638 475.252 560.39 475.373 c 0
 575.79 476.049 582.374 495.856 584.653 504.493 c 0
 585.974 509.501 588.125 520.577 586.245 529.533 c 0
293.391 579.908 m 2
 289.15 578.5 l 1
 290.988 580.479 293.092 582.535 295.501 584.647 c 0
 304.292 592.354 316.293 597.775 327.777 597.542 c 0
 328.932 597.518 332.026 596.877 332.917 596.512 c 0
 334.711 595.778 337.171 594.152 339.762 592.035 c 1
 332.766 591.244 l 2
 324.989 590.364 312.984 586.219 293.391 579.908 c 2
368.418 638.328 m 1
 357.151 595.614 l 1
 345.168 595.614 l 1
 356.436 638.328 l 1
 360.846 632.336 l 1
 368.418 638.328 l 1
EndSplineSet
EndChar

StartChar: percent
Encoding: 37 37 7
Width: 1101
VWidth: 0
Flags: HW
LayerCount: 2
Back
SplineSet
1012.5 305.5 m 1x20
 1010.63 319.819 1009.71 333.649 1009.71 346.781 c 0
 1009.71 415.598 1034.88 465.208 1079.54 465.208 c 0
 1084.91 465.208 1090.57 464.49 1096.5 463 c 1
 1098.19 463.146 1099.91 463.219 1101.66 463.219 c 0
 1154.81 463.219 1232.56 396.222 1232.56 313.204 c 0
 1232.56 309.172 1232.38 305.102 1232 301 c 1x10
 1232.45 292.527 1232.66 284.416 1232.66 276.655 c 0
 1232.66 167.725 1190.03 127.824 1147.78 127.824 c 0
 1129.44 127.824 1111.17 135.344 1096.5 148 c 1
 1050.13 148 1012.5 218.56 1012.5 305.5 c 1x20
200.5 610 m 1x80
 198.628 624.319 197.712 638.15 197.712 651.281 c 0
 197.712 720.098 222.877 769.708 267.539 769.708 c 0
 272.914 769.708 278.571 768.99 284.5 767.5 c 1
 286.19 767.646 287.909 767.719 289.656 767.719 c 0
 342.814 767.719 420.562 700.722 420.562 617.704 c 0
 420.562 613.672 420.379 609.602 420 605.5 c 1x40
 420.448 597.027 420.665 588.916 420.665 581.154 c 0
 420.665 472.225 378.03 432.324 335.782 432.324 c 0
 317.442 432.324 299.174 439.843 284.5 452.5 c 1
 238.132 452.5 200.5 523.06 200.5 610 c 1x80
1083.33 613.154 m 0
 1087.16 613.49 1091.07 613.629 1095.03 613.629 c 0
 1108.21 613.629 1121.91 612.085 1134.72 611.111 c 0
 1181.94 607.971 1234.22 601.389 1272.22 570.188 c 0
 1307.25 541.352 1323.61 498.428 1334.55 455.556 c 0
 1346.05 409.535 1351.08 362.107 1351.08 314.633 c 0x10
 1351.08 274.325 1347.45 233.985 1341.1 194.444 c 0
 1327.39 109.108 1297.91 -22.9453 1191.67 -33.0977 c 0
 1170.36 -35.133 1148.04 -36.6965 1125.58 -36.6965 c 0
 1072.58 -36.6965 1018.89 -27.9816 976.389 3.8125 c 0
 942.562 29.1191 926.23 67.4863 914.688 106.944 c 0
 899.874 157.592 892.745 210.725 892.745 263.737 c 0
 892.745 291.257 894.666 318.743 898.431 345.833 c 0
 905.131 394.053 916.667 440.277 933.595 486.111 c 0
 940.277 504.836 944.444 522.223 956.592 538.889 c 0
 976.389 566.572 1007.47 587.5 1038.89 600.277 c 0
 1052.78 605.857 1068.06 611.833 1083.33 613.154 c 0
401.389 -36.1113 m 1
 563.889 -36.1113 l 1
 571.612 -2.77734 585.389 30.3457 597.148 62.5 c 0
 621.136 128.089 648.261 192.424 678.082 255.556 c 0
 747.547 402.619 821.669 547.22 899.04 690.277 c 0
 938.889 764.207 984.343 838.889 1016.67 916.667 c 1
 904.167 916.667 l 2
 899.286 916.667 889.433 917.999 880.652 917.999 c 0
 873.912 917.999 867.804 917.214 865.06 914.44 c 0
 858.883 908.197 856.537 894.195 853.332 886.111 c 0
 844.444 863.859 835.58 841.661 826.667 819.444 c 0
 798.088 748.218 766.233 678.089 734.293 608.333 c 0
 699.757 532.908 661.489 459.394 625.358 384.723 c 0
 587.9 307.305 551.681 228.402 510.682 152.777 c 0
 476.237 89.2402 431.944 29.167 401.389 -36.1113 c 1
284.723 918.855 m 0
 294.139 920.092 303.96 920.705 314.02 920.705 c 0
 381.612 920.705 460.004 892.999 499.227 840.277 c 0
 507.883 828.624 512.126 812.233 516.667 798.611 c 0
 527.595 765.826 534.723 732.861 539.28 698.611 c 0
 542.461 674.137 544.052 649.241 544.052 624.238 c 0x40
 544.052 547.469 529.052 469.691 499.001 400 c 0
 487.26 372.771 472.223 334.494 449.871 314.346 c 0
 421.779 288.889 375 279.732 338.889 275.396 c 0
 326.085 273.859 312.07 272.982 297.491 272.982 c 0
 242.417 272.982 179.295 285.494 143.056 322.223 c 0
 94.5964 371.312 81.6971 448.722 81.6971 518.379 c 0
 81.6971 533.082 82.2717 547.439 83.208 561.111 c 0
 86.1113 606.529 84.5469 653.608 92.1162 698.611 c 0
 98.0664 733.983 114.559 770.013 128.582 802.777 c 0
 144.036 838.889 163.772 877.214 198.611 897.982 c 0
 226.139 914.393 254.132 914.839 284.723 918.855 c 0
EndSplineSet
Fore
SplineSet
828.303 612.062 m 1
 827.988 611.536 827.869 611.295 827.484 610.588 c 1
 832.566 610.832 l 2
 833.945 611.289 835.317 611.356 836.556 611.024 c 2
 841.75 611.275 l 1
 841.547 611.081 l 1
 841.862 609.246 841.267 607.12 839.776 605.104 c 1
 839.755 605.346 l 1
 835.968 591.832 l 1
 831.334 591.869 l 1
 831.306 591.838 l 1
 831.152 591.845 830.991 591.851 830.844 591.864 c 2
 830.599 591.87 l 1
 830.459 591.873 l 1
 830.368 591.876 l 1
 830.145 591.88 l 1
 830.088 591.885 l 1
 830.025 591.79 l 1
 828.499 591.838 l 1
 825.727 591.644 l 1
 826.154 591.88 l 1
 816.991 591.822 l 1
 818.055 593.562 l 1
 812.112 594.836 l 1
 827.197 608.996 l 1
 828.303 612.062 l 1
981.183 451.361 m 0
 1015.1 449.141 1060.31 445.075 1087.14 417.421 c 0
 1111.12 392.479 1114.59 354.947 1114.24 324.793 c 0
 1113.85 290.571 1108.21 255.518 1099.04 220.778 c 0
 1091.6 192.581 1081.69 164.489 1069.72 137.156 c 0
 1050.91 94.5889 1001.41 -12.9492 899.304 -21.1719 c 0
 882.714 -22.5303 865.109 -23.6768 847.314 -23.6768 c 0
 805.595 -23.6768 761.453 -18.4541 729.351 4.50977 c 0
 702.261 23.6074 695.188 51.5479 692.98 76.2568 c 0
 690.199 111.53 694.711 148.623 704.403 185.365 c 0
 709.758 205.662 716.611 225.914 724.829 245.883 c 0
 739.347 281.142 757.372 314.98 779.282 348.516 c 0
 787.101 360.477 794.948 375.692 810.929 391.188 c 0
 831.614 411.246 861.203 429.921 896.497 442.144 c 0
 904.988 445.087 922.831 451.42 939.52 452.752 c 0
 943.341 453.059 946.953 453.173 950.488 453.173 c 0
 962.185 453.173 972.58 451.925 981.183 451.361 c 0
367.169 25.4355 m 1
 425.101 25.4355 l 1
 434.795 38.877 446.128 50.9561 454.84 62.7686 c 0
 484.97 105.944 516.024 148.444 549.252 190.276 c 0
 627.205 288.983 707.357 386.481 790.587 482.172 c 0
 823.053 519.005 858.207 554.843 888.517 590.967 c 1
 845.467 590.967 l 2
 841.036 590.967 835.667 591.613 831.306 591.838 c 1
 831.236 591.75 l 1
 830.025 591.79 l 1
 801.885 553.541 l 2
 767.991 506.44 731.668 460.577 696.365 414.83 c 0
 655.984 361.814 614.879 310.003 574.261 258.761 c 0
 534.062 208.848 493.269 157.624 448.96 108.146 c 0
 422.438 78.8613 392.918 52.0557 367.169 25.4355 c 1
564.504 586.545 m 0
 571.985 575.887 573.082 562.668 573.812 557.603 c 0
 576.636 534.727 576.07 511.506 573.381 487.945 c 0
 571.431 470.889 568.073 453.555 563.495 436.202 c 0
 548.558 379.583 521.736 322.285 484.252 270.428 c 0
 478.83 262.925 452.268 222.362 423.506 202.408 c 0
 405.936 190.219 377.153 175.714 318.535 169.294 c 0
 307.703 168.107 296.181 167.445 284.369 167.445 c 0
 244.63 167.445 189.5 175.049 164.985 208.952 c 0
 150.14 229.486 131.956 272.193 155.793 362.545 c 0
 158.662 373.423 161.874 383.921 165.165 393.886 c 0
 174.66 422.554 181.85 454.811 196.474 487.952 c 0
 208.469 515.019 227.395 539.815 242.673 560.424 c 0
 259.125 582.27 282.985 610.961 319.591 626.677 c 0
 348.374 638.904 374.751 639.004 396.707 641.195 c 0
 405.057 642.043 413.485 642.483 421.934 642.483 c 0
 473.364 642.483 537.98 626.002 564.504 586.545 c 0
EndSplineSet
EndChar

StartChar: ampersand
Encoding: 38 38 8
Width: 891
VWidth: 1
Flags: HW
HStem: -39.3415 139.947<665.542 760.872>
LayerCount: 2
Back
SplineSet
1238.89 168.056 m 1
 1184.15 69.7479 1072.59 -24.8997 957.115 -24.8997 c 0
 923.151 -24.8997 888.849 -16.7117 855.556 1.97949 c 0
 815.078 24.7041 781.215 56.2334 748.611 88.8887 c 0
 739.822 97.6934 731.705 106.944 723.611 116.667 c 0
 720.833 119.849 717.23 126.29 712.494 126.312 c 0
 708.333 126.333 704.167 121.312 701.389 118.875 c 0
 692.804 111.664 684.001 104.78 675 98.0977 c 0
 645.039 75.8496 611.865 56.665 577.777 41.4736 c 0
 551.389 29.7598 524.807 19.0303 497.223 10.7227 c 0
 447.612 -4.21936 389.076 -14.6409 330.907 -14.6409 c 0
 238.109 -14.6409 146.247 11.8824 93.0557 88.8887 c 0
 81.5791 105.556 72.9111 123.943 66.2432 143.056 c 0
 57.499 168.056 52.6221 195.759 51.335 222.223 c 0
 50.7939 233.985 50.3095 245.638 50.3095 257.251 c 0
 50.3095 274.292 51.3525 291.246 54.79 308.333 c 0
 74.1475 404.54 147.223 479.167 223.611 535.588 c 0
 257.464 560.615 294.783 583.063 330.556 605.289 c 0
 340.277 611.434 350 618.056 359.723 624.537 c 0
 363.263 626.897 369.911 629.785 371.464 634.053 c 0
 372.901 638.003 369.444 643.604 368.056 647.223 c 0
 363.889 658.282 360.205 669.384 356.482 680.556 c 0
 343.033 720.833 331.257 762.175 324.215 804.167 c 0
 319.98 829.424 316.682 856.97 316.682 884.286 c 0
 316.682 908.837 319.346 933.203 326.389 955.556 c 0
 360.646 1063.63 473.611 1133.17 583.333 1137.44 c 0
 586.03 1137.55 588.711 1137.6 591.376 1137.6 c 0
 712.614 1137.6 798.743 1029.86 798.743 916.57 c 0
 798.743 893.395 795.139 869.987 787.494 847.223 c 0
 753.708 747.099 649.91 672.043 555.556 633.333 c 1
 674.2 440.277 l 1
 727.777 352.777 l 1
 761.111 297.223 l 1
 778.569 317.707 792.011 342.867 806.944 365.277 c 0
 817.694 381.41 828.132 397.754 838.889 413.889 c 0
 847.178 426.322 855.138 438.889 863.427 451.389 c 0
 887.468 487.452 920.263 540.704 920.263 589.007 c 0
 920.263 612.71 912.365 635.222 891.661 653.925 c 0
 883.333 661.111 873.977 666.635 863.889 670.816 c 0
 847.697 677.53 829.839 681.131 812.5 683.333 c 1
 812.5 709.723 l 1
 1161.11 709.723 l 1
 1161.11 705.997 1161.92 700.167 1161.92 694.786 c 0
 1161.92 690.593 1161.43 686.673 1159.68 684.234 c 0
 1153.5 675.599 1129.17 671.21 1119.44 667.467 c 0
 1091.31 656.764 1062.83 646.128 1041.67 623.609 c 0
 1015.52 595.499 997.223 557.737 977.496 525 c 0
 941.999 466.526 906.272 408.147 870.244 350 c 0
 855.929 326.896 841.667 303.73 827.516 280.556 c 0
 821.918 271.421 811.5 259.723 811.366 248.611 c 0
 811.361 248.126 l 0
 811.361 235.335 821.247 222.936 829.167 213.889 c 0
 848.001 192.644 870.833 174.521 894.444 158.796 c 0
 939.25 128.871 996.906 106.231 1051.91 106.231 c 0
 1096.77 106.231 1139.87 121.286 1172.81 159.723 c 0
 1181.65 170.043 1191.35 180.556 1197.22 193.056 c 1
 1238.89 168.056 l 1
EndSplineSet
Fore
SplineSet
581.483 -17.5215 m 0
 554.637 0.171875 535.753 23.8672 518.775 46.9795 c 0
 516.08 50.6484 513.61 54.3232 511.28 58.04 c 1
 500.446 51.0811 l 2
 473.691 34.4707 445.305 20.2109 417.008 8.94238 c 0
 395.934 0.552734 374.392 -7.31641 352.156 -13.5205 c 0
 320.403 -22.3799 273.58 -32.2031 224.482 -32.2031 c 0
 155.873 -32.2031 87.5508 -12.5439 60.7207 50.3574 c 0
 54.8457 64.1299 51.8652 78.9541 50.5918 93.8438 c 0
 48.8809 113.849 50.7891 135.238 55.2314 155.806 c 0
 57.0156 164.073 58.915 172.584 61.2227 181.331 c 0
 64.6094 194.17 68.9463 207.662 75.4639 221.678 c 0
 110.938 297.963 183.243 354.579 247.947 394.585 c 0
 277.611 412.927 307.999 428.662 336.735 444.003 c 2
 352.332 452.771 l 1
 351.181 468.161 l 2
 349.17 496.88 348.492 526.835 351.473 557.849 c 0
 353.241 576.236 356.137 596.667 361.665 617.623 c 0
 366.63 636.438 373.71 655.841 384.572 674.555 c 0
 435.345 762.02 539.021 814.849 623.48 818.104 c 0
 624.804 818.153 628.763 818.23 630.075 818.23 c 0
 729.932 818.23 775.6 730.618 751.716 640.086 c 0
 746.795 621.442 738.913 602.494 727.832 584.062 c 0
 684.706 512.297 604.132 461.134 538.519 432.251 c 1
 577.395 321.415 l 1
 598.649 260.423 l 1
 600.807 254.005 l 1
 615.049 269.869 l 1
 646.18 303.674 l 1
 670.177 329.81 l 2
 671.102 330.816 718.746 379.225 727.433 412.168 c 0
 730.275 422.941 728.938 432.014 722.855 439.104 c 0
 720.195 442.195 716.828 444.496 712.32 446.594 c 0
 702.464 451.183 690.462 452.881 684.681 453.642 c 2
 664.108 456.345 l 1
 681.036 520.515 l 1
 972.307 520.515 l 1
 965.881 496.162 l 2
 965.86 496.079 964.648 489.355 963.704 485.769 c 0
 961.989 479.264 958.622 471.09 951.909 464.242 c 0
 938.539 450.602 916.468 447.133 907.473 444.013 c 0
 885.745 436.48 868.273 429.844 856.016 419.613 c 0
 837.277 403.969 818.328 378.931 797.314 354.962 c 2
 690.503 233.123 l 1
 647.918 184.685 l 1
 638.411 174.455 l 1
 638.616 173.887 l 2
 639.565 171.365 641.271 168.538 642.058 167.272 c 0
 649.896 154.672 661.132 143.276 673.711 133.085 c 0
 707.14 106.011 741.986 100.605 761.194 100.605 c 0
 787.444 100.605 812.441 109.725 834.393 129.317 c 0
 845.719 139.424 849.611 143.083 852.502 147.017 c 2
 870.395 171.415 l 1
 931.273 128.023 l 1
 914.368 107.423 l 2
 856.303 36.6729 752.354 -39.3418 658.313 -39.3418 c 0
 630.755 -39.3418 604.29 -32.5498 581.483 -17.5215 c 0
EndSplineSet
EndChar

StartChar: quotesingle
Encoding: 39 39 9
Width: 306
VWidth: 2
Flags: HW
LayerCount: 2
Back
Fore
SplineSet
280.503 667.77 m 2
 286.196 679.014 289.858 688.735 298.691 699.596 c 0
 300.013 701.218 301.317 702.926 303.386 704.809 c 0
 305.859 707.062 314.32 716.604 331.99 722.596 c 0
 342.161 726.04 352.666 727.188 357.777 727.874 c 0
 373.631 730.009 388.978 731.591 404.716 731.591 c 0
 414.152 731.591 423.686 730.996 433.415 729.68 c 0
 436.785 729.232 460.617 727.804 471.347 716.205 c 0
 472.43 715.029 474.804 711.676 475.769 709.436 c 0
 478.668 702.702 477.838 694.878 476.178 688.588 c 0
 473.734 679.325 469.073 670.459 467.57 666.98 c 0
 455.152 638.256 436.836 612.671 416.452 589.589 c 0
 368.767 535.593 317.415 486.455 271.661 435.605 c 2
 226.938 386.515 l 2
 221.421 379.896 217.45 374.467 211.472 368.421 c 0
 211.096 368.041 209.193 366.155 207.598 364.732 c 0
 207.147 364.33 204.85 362.34 202.917 360.896 c 0
 202.061 360.257 199.176 358.232 196.929 356.964 c 0
 189.602 352.836 182.302 351.707 176.592 351.707 c 0
 175.714 351.707 171.63 351.923 171.104 351.923 c 2
 114.879 351.923 l 1
 126.345 379.821 l 2
 137.695 407.441 154.167 432.538 165.739 454.183 c 2
 280.503 667.77 l 2
EndSplineSet
EndChar

StartChar: parenright
Encoding: 41 41 10
Width: 385
VWidth: 0
Flags: HW
LayerCount: 2
Back
SplineSet
59.7227 972.223 m 1
 66.3232 982.775 75.3955 991.975 83.333 1001.39 c 0
 86.417 1004.75 89.8682 1010.32 94.4443 1011.37 c 0
 95.0149 1011.5 95.6188 1011.56 96.2501 1011.56 c 0
 103.303 1011.56 113.778 1003.88 119.444 1001.05 c 0
 143.864 988.828 167.19 973.611 188.889 956.944 c 0
 275.682 890.91 337.975 800 387.8 704.167 c 0
 445.006 594.006 467.839 473.014 470.833 350 c 0
 471.014 342.627 471.105 335.259 471.105 327.898 c 0
 471.105 98.1372 382.595 -124.213 194.444 -265.277 c 0
 161.111 -290.022 125.342 -314.276 87.5 -331.944 c 1
 63.8887 -293.056 l 1
 193.056 -213.655 250.518 -68.7412 272.812 75 c 0
 281.944 134.193 284.723 193.056 288.889 252.777 c 0
 292.02 296.839 297.353 341.489 297.353 385.921 c 0
 297.353 390.154 297.304 394.384 297.201 398.611 c 0
 294.878 493.453 280.928 590.115 256.783 681.944 c 0
 243.056 733.901 228.47 790.1 199.911 836.111 c 0
 178.95 869.881 150.386 895.035 120.833 920.833 c 0
 101.244 938.293 81.499 957.818 59.7227 972.223 c 1
EndSplineSet
Fore
SplineSet
234.429 718.893 m 0
 239.341 722.988 246.049 727.216 253.657 728.861 c 0
 255.077 729.162 257.84 729.659 259.896 729.659 c 0
 260.36 729.659 261.732 729.512 262.153 729.4 c 0
 269.106 727.559 270.539 729.092 279.057 723.723 c 2
 282.038 721.735 l 2
 284.983 719.691 284.44 720.02 284.962 719.719 c 0
 301.182 710.367 315.557 698.89 328.437 686.602 c 0
 379.964 637.437 407.625 571.009 425.123 502.595 c 0
 445.791 421.778 438.927 333.695 417.813 245.531 c 0
 416.539 240.204 415.201 234.882 413.797 229.558 c 0
 368.704 58.6338 258.905 -101.771 97.4824 -202.686 c 0
 69.0664 -220.45 38.1436 -238.219 5.88965 -251.628 c 2
 -16.333 -260.864 l 1
 -39.1406 -194.438 l 1
 -15.1611 -181.755 l 2
 31.8496 -156.891 116.979 -97.873 181.964 57.3154 c 0
 198.5 96.8066 211.02 137.077 225.027 178.998 c 0
 235.531 210.437 247.205 240.975 254.844 269.931 c 0
 255.602 272.8 256.25 275.374 256.918 278.164 c 0
 272.238 342.176 280.096 407.647 280.121 469.697 c 0
 280.136 505.857 279.804 542.74 269.957 570.329 c 0
 262.981 589.873 249.379 605.808 233.641 623.854 c 0
 222.632 636.48 212.844 649.426 202.684 657.568 c 2
 186.338 670.666 l 1
 204.239 690.794 l 2
 213.437 701.134 223.068 708.687 229.088 714.14 c 0
 230.678 715.575 233.331 717.983 234.429 718.893 c 0
EndSplineSet
EndChar

StartChar: parenleft
Encoding: 40 40 11
Width: 385
VWidth: 0
Flags: HW
LayerCount: 2
Back
SplineSet
466.667 -329.167 m 1
 440.018 -324.417 409.654 -300.112 387.5 -285.181 c 0
 310.609 -233.356 248.213 -163.118 199.411 -84.7217 c 0
 138.704 12.7998 104.812 124.385 88.5127 237.5 c 0
 82.0304 282.486 78.6414 327.728 78.6414 372.707 c 0
 78.6414 541.936 126.615 707.451 238.313 841.667 c 0
 282.806 895.125 333.598 940.879 391.667 979.162 c 0
 411.111 992.118 437.5 1012.49 461.111 1016.67 c 1
 486.111 981.944 l 1
 458.046 963.374 431.76 943.886 408.333 919.444 c 0
 297.641 803.627 268.727 649.411 258.208 495.833 c 0
 255.221 452.196 253.706 408.27 253.706 364.369 c 0
 253.706 336.859 254.3 309.358 255.501 281.944 c 0
 259.991 179.4 262.018 77.7773 294.907 -20.833 c 0
 318.744 -92.3447 353.154 -157.152 403.174 -213.889 c 0
 420.049 -233.029 439.619 -250.408 459.723 -266.078 c 0
 466.667 -271.604 483.871 -279.194 487.164 -287.741 c 0
 487.461 -288.516 487.599 -289.381 487.599 -290.32 c 0
 487.599 -300.876 470.238 -320.88 466.667 -329.167 c 1
EndSplineSet
Fore
SplineSet
100.727 -70.377 m 0
 75.0781 1.12793 72.0449 82.0684 81.7607 163.221 c 0
 85.6396 195.617 91.7988 228.251 100.378 260.771 c 0
 132.631 383.025 199.43 504.23 307.306 602.651 c 0
 349.999 641.604 396.001 675.081 445.771 703.052 c 0
 446.277 703.332 485.653 728.511 511.143 732.823 c 2
 526.914 735.49 l 1
 552.977 678.348 l 1
 528.162 664.369 l 2
 506.027 651.898 486.062 639.45 467.645 624.355 c 0
 373.399 547.105 328.227 441.359 296.132 344.778 c 0
 286.227 314.967 277.274 284.956 269.363 254.97 c 0
 264.406 236.179 259.857 217.399 255.739 198.684 c 0
 239.946 126.907 223.646 58.6855 228.104 -5.35156 c 0
 231.849 -59.1436 245.734 -99.4795 265.379 -131.277 c 0
 272.703 -143.131 282.072 -154.556 292.646 -164.468 c 0
 295.528 -167.17 302.85 -171.263 307.582 -177.466 c 0
 310.748 -181.616 312.285 -185.899 312.784 -190.032 c 0
 313.021 -191.997 312.943 -197.411 311.929 -200.564 c 0
 305.943 -219.182 291.634 -229.775 285.641 -237.319 c 2
 273.39 -254.955 l 1
 255.282 -251.568 l 2
 230.772 -246.983 203.33 -219.966 199.933 -217.182 c 0
 153.139 -178.82 121.133 -127.271 100.727 -70.377 c 0
EndSplineSet
EndChar

StartChar: asterisk
Encoding: 42 42 12
Width: 655
VWidth: 1
Flags: HW
LayerCount: 2
Back
Fore
SplineSet
435.638 667.21 m 0
 447.203 711.053 466.614 730.723 478.886 740.278 c 0
 497.561 754.824 518.976 761.474 538.045 761.474 c 0
 577.589 761.474 590.848 735.301 591.904 715.806 c 0
 592.444 705.838 590.671 696.406 588.516 688.235 c 0
 586.57 680.857 584.906 676.292 582.561 668.713 c 0
 582.423 668.268 582.056 666.931 581.938 666.485 c 0
 581.318 664.137 579.978 658.263 579.048 654.738 c 0
 577.158 647.578 575.394 643.229 574.152 640.414 c 0
 564.73 619.024 553.678 600.675 543.37 583.464 c 1
 558.678 597.621 574.526 610.293 589.637 622.249 c 0
 606.381 635.496 628.029 651.716 654.736 658.118 c 0
 662.434 659.963 671.615 661.678 681.194 661.678 c 0
 681.508 661.678 682.441 661.668 682.754 661.662 c 0
 689.689 661.523 693.313 661.336 699.641 659.711 c 0
 700.308 659.54 702.758 658.816 703.92 658.401 c 0
 704.571 658.167 706.895 657.238 708.141 656.632 c 0
 708.988 656.219 711.039 655.091 712.208 654.333 c 0
 731.829 641.563 739.34 613.907 732.229 586.955 c 0
 729.505 576.64 727.202 570.729 720.958 561.168 c 0
 714.497 551.29 706.874 544.03 699.533 538.767 c 0
 686.796 529.628 658.548 510.748 630.417 501.81 c 0
 605.909 494.022 588.132 493.152 567.604 490.827 c 1
 583.058 487.554 599.485 484.783 616.062 481.229 c 0
 633.704 477.445 656.993 473.468 672.868 453.515 c 0
 676.025 449.546 678.062 447.279 679.239 445.626 c 0
 679.567 445.165 680.793 443.331 681.348 442.386 c 0
 681.704 441.777 682.846 439.624 683.383 438.361 c 0
 684.554 435.607 685.06 433.764 685.189 432.519 c 0
 685.502 429.513 686.728 426.469 685.278 416.996 c 0
 685.172 416.295 684.658 413.469 684.408 412.311 c 0
 684.118 410.978 683.571 408.757 683.337 407.869 c 0
 680.687 397.824 676.622 387.78 675.298 382.76 c 0
 675.165 382.254 674.347 378.72 674.08 377.71 c 0
 672.441 371.498 669.341 363.947 663.155 357.098 c 0
 643.517 335.351 615.94 322.933 587.783 322.933 c 0
 577.706 322.933 568.262 324.488 559.723 327.274 c 0
 534.581 335.475 522.837 355.982 512.924 371.111 c 0
 506.491 380.928 501.186 390.138 496.238 398.693 c 1
 498.146 376.614 501.229 345.829 493.731 317.406 c 0
 491.155 307.643 487.337 297.472 481.711 287.236 c 0
 478.119 280.704 470.569 266.886 460.206 255.672 c 0
 459.458 254.863 458.078 253.396 456.299 251.701 c 0
 455.444 250.888 453.863 249.415 451.814 247.749 c 0
 450.811 246.934 448.895 245.409 446.48 243.829 c 0
 430.101 233.107 412.695 227.854 397.251 227.854 c 0
 358.59 227.854 333.127 258.51 338.747 297.696 c 0
 339.295 301.515 340.082 305.27 341.051 308.942 c 0
 346.704 330.368 360.534 353.699 365.987 363.503 c 0
 373.322 376.688 382.082 390.729 390.537 404.915 c 1
 358.561 375.604 l 2
 338.971 358.132 314.517 336.634 284.809 328.813 c 0
 275.038 326.242 262.545 323.909 249.686 323.909 c 0
 249.316 323.909 248.213 323.919 247.846 323.926 c 0
 238.276 324.097 233.12 324.354 224.701 327.114 c 0
 224.009 327.342 221.471 328.275 220.099 328.897 c 0
 219.161 329.325 216.887 330.502 215.606 331.308 c 0
 214.647 331.911 212.345 333.366 211.007 334.825 c 0
 209.635 336.32 203.897 340.552 200.695 352.605 c 0
 195.981 370.349 201.378 393.736 204.091 404.019 c 0
 204.48 405.499 205.074 408.458 205.855 411.418 c 0
 207.507 417.676 209.818 423.164 212.93 428.02 c 0
 215.413 431.897 225.239 446.479 249.866 463.021 c 0
 278.887 482.515 310.173 488.938 339.957 493.029 c 1
 314.193 497.633 287.068 505.702 269.737 523.828 c 0
 264.624 529.177 253.546 541.83 251.155 557.018 c 0
 250.456 561.462 250.691 566.699 252.395 573.154 c 0
 253.736 578.24 255.959 583.324 256.825 585.87 c 0
 261.55 599.77 264.458 609.382 270.67 620.376 c 0
 275.033 628.098 281.811 637.942 292.768 645.416 c 0
 294.339 646.488 299.431 650.316 309.84 653.848 c 0
 310.883 654.202 312.979 654.873 315.075 655.445 c 0
 328.717 659.16 342.699 659.664 349.326 659.664 c 0
 361.861 659.664 369.216 658.261 373.723 657.019 c 0
 401.624 649.326 417.843 619.381 422.11 612.142 c 2
 431.3 595.509 l 1
 429.038 613.981 427.995 633.385 432.976 656.117 c 0
 433.731 659.563 434.61 663.319 435.638 667.21 c 0
EndSplineSet
EndChar

StartChar: plus
Encoding: 43 43 13
Width: 851
VWidth: 1
Flags: HW
HStem: 223.814 131.816<193.922 436.501 603.091 855.337>
LayerCount: 2
Back
SplineSet
573.611 893.056 m 1
 693.056 893.056 l 1
 693.056 473.611 l 1
 1105.56 473.611 l 1
 1105.56 354.167 l 1
 693.056 354.167 l 1
 693.056 -65.2773 l 1
 573.611 -65.2773 l 1
 573.611 354.167 l 1
 175 354.167 l 1
 175 473.611 l 1
 573.611 473.611 l 1
 573.611 893.056 l 1
EndSplineSet
Fore
SplineSet
548.271 647.479 m 1
 680.086 647.479 l 1
 603.092 355.63 l 1
 890.113 355.63 l 1
 855.337 223.814 l 1
 568.316 223.814 l 1
 491.321 -68.0352 l 1
 359.507 -68.0352 l 1
 436.501 223.814 l 1
 159.147 223.814 l 1
 193.923 355.63 l 1
 471.276 355.63 l 1
 548.271 647.479 l 1
EndSplineSet
EndChar

StartChar: comma
Encoding: 44 44 14
Width: 269
VWidth: 0
Flags: HW
LayerCount: 2
Back
Fore
SplineSet
76.8926 59.4316 m 1
 108.099 118.466 l 2
 114.24 129.872 120.276 145.693 134.833 160.841 c 0
 163.897 191.085 198.591 194.229 222.757 194.229 c 0
 234.765 194.229 245.768 193.495 254.819 193.493 c 2
 255.499 193.493 l 2
 255.904 193.493 257.12 193.497 257.524 193.497 c 0
 257.651 193.497 258.067 193.496 258.194 193.495 c 0
 271.622 193.356 288.253 193.283 299.758 183.984 c 0
 303.868 180.661 306.854 176.775 308.191 172.064 c 0
 310.396 164.296 310.516 164.202 310.765 158.59 c 0
 311.044 152.269 310.161 145.926 308.56 139.854 c 0
 300.716 110.123 278.726 86.3105 249.614 53.6016 c 2
 64.168 -149.251 l 2
 56.2695 -158.553 54.7354 -160.59 49.8418 -165.319 c 0
 49.4473 -165.702 47.4473 -167.594 45.7705 -169.015 c 0
 45.3027 -169.411 42.9277 -171.366 40.9375 -172.783 c 0
 40.1406 -173.352 37.2881 -175.269 35.1104 -176.475 c 0
 18.541 -185.655 1.7334 -186.729 -11.207 -186.729 c 0
 -11.543 -186.729 -12.5547 -186.728 -12.8906 -186.727 c 0
 -13.7393 -186.727 -19.6729 -186.683 -21.3711 -186.683 c 2
 -47.9346 -186.683 l 1
 -38.6533 -160.222 l 2
 -28.9971 -132.696 -15.2959 -114.702 -1.63184 -88.5039 c 2
 76.8926 59.4316 l 1
EndSplineSet
EndChar

StartChar: rafe
Encoding: 259 -1 15
Width: 465
VWidth: 0
Flags: HW
HStem: 469.583 158.473<90.4169 375.278>
LayerCount: 2
Back
Fore
SplineSet
44.7217 628.056 m 1
 375.277 628.056 l 1
 423.89 469.583 l 1
 90.417 469.583 l 1
 44.7217 628.056 l 1
EndSplineSet
EndChar

StartChar: period
Encoding: 46 46 16
Width: 269
VWidth: 0
Flags: HW
HStem: -59.6614 236.279<110.661 175.489>
VStem: 24.9306 233.541<23.2992 56.7779 56.7779 65.0572 65.0572 71.3104 71.3104 92.0892>
LayerCount: 2
Back
Fore
SplineSet
261.085 71.3105 m 0
 260.417 67.3213 259.525 63.1719 258.472 59.1797 c 0
 248.06 19.7119 219.163 -17.5625 179.702 -40.3232 c 0
 161.801 -50.6494 145.342 -56.3213 130.812 -58.2686 c 0
 124.149 -59.1611 117.417 -59.6611 110.661 -59.6611 c 0
 94.1602 -59.6611 77.5898 -56.8848 63.5098 -49.4883 c 0
 24.4834 -28.9912 13.7861 14.5342 24.9307 56.7783 c 0
 34.9209 94.6475 62.582 133.554 104.015 157.269 c 0
 125.862 169.773 146.131 173.688 162.837 175.811 c 0
 167.125 176.355 171.398 176.618 175.489 176.618 c 0
 234.501 176.618 269.901 124.09 261.085 71.3105 c 0
EndSplineSet
EndChar

StartChar: slash
Encoding: 47 47 17
Width: 499
VWidth: 1
Flags: HW
LayerCount: 2
Back
Fore
SplineSet
133.908 137.105 m 2
 386.097 471.666 l 1
 484.014 601.139 l 1
 512.26 638.731 l 2
 517.466 646.165 516.927 645.53 519.158 648.48 c 0
 519.643 649.119 521.471 651.434 522.42 652.541 c 0
 523.538 653.844 525.884 656.304 526.775 657.161 c 0
 528.479 658.797 531.573 661.312 532.852 662.226 c 2
 533.916 662.989 l 1
 535.098 663.431 l 2
 537.296 664.255 546.357 668.947 550.717 669.77 c 0
 552.985 670.197 556.478 670.735 561.978 670.735 c 0
 568.244 670.735 575.847 669.86 577.413 669.86 c 2
 683.186 669.86 l 1
 666.068 638.79 l 2
 654.625 618.013 642.411 606.821 630.389 590.489 c 2
 553.656 488.803 l 2
 474.461 384.639 393.622 280.974 317.909 176.305 c 0
 282.844 127.826 246.211 80.5996 210.335 33.6309 c 2
 180.68 -5.82129 l 2
 174.863 -14.1562 175.522 -13.3691 173.049 -16.6621 c 0
 172.561 -17.3135 170.601 -19.8154 169.579 -21.0137 c 0
 168.432 -22.3574 165.947 -24.9902 164.993 -25.9121 c 0
 163.259 -27.5889 159.98 -30.2734 158.61 -31.2539 c 2
 157.543 -32.0166 l 1
 156.36 -32.4609 l 2
 154.163 -33.2832 145.103 -37.9746 140.743 -38.7959 c 0
 138.476 -39.2236 134.982 -39.7637 129.481 -39.7637 c 0
 123.216 -39.7637 115.613 -38.8887 114.047 -38.8887 c 2
 8.24219 -38.8887 l 1
 25.4023 -7.79395 l 2
 34.9102 9.43262 46.5801 20.8525 55.5586 33.2822 c 0
 81.4111 69.0781 108.952 103.157 133.908 137.105 c 2
EndSplineSet
EndChar

StartChar: zero
Encoding: 48 48 18
Width: 597
VWidth: 0
Flags: HW
HStem: 639.07 14G<482.201 542.842>
LayerCount: 2
Back
Fore
SplineSet
470.813 538.631 m 1
 457.537 567.829 l 1
 443.146 574.968 l 1
 433.231 573.581 l 1
 371.868 476.531 l 1
 331.063 321.859 l 1
 325.027 267.882 l 1
 311.02 128.783 l 1
 326.312 69.3564 l 1
 347.062 64.1582 l 1
 355.625 66.9189 l 1
 419.957 176.104 l 1
 436.854 233.643 l 1
 454.554 300.729 l 1
 466.095 351.148 l 1
 472.947 423.479 l 1
 470.813 538.631 l 1
491.237 282.001 m 0
 477.247 282.001 468.775 292.912 472.32 306.354 c 0
 475.868 319.801 490.1 330.707 504.087 330.707 c 0
 518.078 330.707 526.549 319.797 523.002 306.354 c 0
 519.455 292.908 505.225 282.001 491.237 282.001 c 0
461.566 651.913 m 0
 469.965 652.748 478.198 653.07 486.205 653.07 c 0
 599.478 653.07 649.726 562.636 658.732 495.493 c 0
 666.296 439.119 662.503 376.869 646.05 314.502 c 0
 628.963 249.735 598.147 184.693 551.551 126.544 c 0
 530.154 99.8447 505.291 70.6309 472.68 46.8721 c 0
 432.929 18.1621 386.18 2.68555 336.152 -2.41797 c 0
 325.441 -3.53418 303.87 -5.79395 282.932 -5.79395 c 0
 270.429 -5.79395 257.824 -5.00195 245.666 -2.87207 c 0
 135.664 15.9824 115.558 104.279 111.709 169.791 c 0
 108.164 230.125 114.783 287.128 128.11 337.647 c 0
 146.281 406.524 179.896 476.217 235.823 537.222 c 0
 287.25 592.965 367.304 642.417 461.566 651.913 c 0
EndSplineSet
EndChar

StartChar: one
Encoding: 49 49 19
Width: 597
VWidth: 1
Flags: HW
LayerCount: 2
Back
Fore
SplineSet
287.474 598.433 m 2
 319.938 598.433 414.489 606.296 460.701 622.825 c 0
 475.875 628.252 493.016 640.347 517.326 646.145 c 0
 522.599 647.432 530.877 649.056 543.68 649.056 c 0
 558.554 649.056 569.075 647.472 579.117 647.472 c 2
 603.47 647.472 l 1
 482.395 188.536 l 2
 479.632 178.063 476.627 167.875 474.058 158.132 c 0
 468.707 137.852 465.479 119.708 467.941 104.41 c 0
 469.768 93.0723 471.072 89.3047 474.041 87.0049 c 0
 479.062 83.1123 495.128 79.6221 510.485 79.6221 c 2
 534.839 79.6221 l 1
 511.79 -7.74023 l 1
 97.4023 -7.74023 l 1
 119.367 75.5176 l 1
 140.287 79.2197 l 2
 180.82 85.8496 197.328 86.166 213.228 102.802 c 2
 215.283 104.647 l 1
 218.228 105.471 l 2
 274.915 121.477 279.804 141.712 282.194 150.773 c 0
 286.33 166.454 289.304 183.385 293.705 200.066 c 2
 362.496 460.82 l 2
 363.952 466.337 365.501 471.311 366.614 475.531 c 0
 368.201 481.544 366.293 483.586 362.385 485.552 c 0
 350.604 491.48 324.574 503.102 291.57 507.017 c 0
 287.98 507.472 286.284 507.575 285.237 507.575 c 0
 283.155 507.575 283.821 507.474 281.737 507.474 c 0
 281.101 507.474 280.145 507.485 278.591 507.615 c 0
 277.743 507.687 274.332 508.07 272.721 508.357 c 0
 270.76 508.706 267.059 509.738 265.807 510.213 c 0
 263.092 511.246 259.024 513.892 257.69 515.151 c 2
 256.489 516.287 l 1
 256.241 518.009 l 2
 255.513 521.017 252.009 528.667 251.739 532.826 c 0
 251.717 533.165 251.702 533.93 251.769 534.565 c 0
 252.209 538.756 252.541 539.325 252.587 539.847 c 0
 253.393 549.177 253.351 561.404 257.102 575.622 c 2
 263.119 598.433 l 1
 287.474 598.433 l 2
EndSplineSet
EndChar

StartChar: two
Encoding: 50 50 20
Width: 597
VWidth: 1
Flags: HW
HStem: -4.81865 158.86<413.306 473.166> 518.185 135.577<394.564 491.766>
LayerCount: 2
Back
Fore
SplineSet
213.602 77.3994 m 0
 209.612 77.3994 207.196 80.5156 208.209 84.3574 c 0
 209.224 88.1973 213.284 91.3154 217.273 91.3154 c 0
 221.263 91.3154 223.678 88.1973 222.664 84.3574 c 0
 221.65 80.5156 217.591 77.3994 213.602 77.3994 c 0
169.2 457.693 m 2
 189.028 491.343 213.013 518.131 238.788 544.511 c 0
 252.18 558.216 259.743 570.036 277.24 584.169 c 0
 295.792 598.825 331.261 619.962 387.327 636.369 c 0
 425.351 647.495 467.437 653.761 508.019 653.761 c 0
 535.076 653.761 575.697 650.97 611.702 635.997 c 0
 685.359 604.849 704.242 532.044 685.818 462.217 c 0
 684.059 455.544 681.955 448.876 679.511 442.241 c 0
 649.787 361.604 572.847 301.748 491.913 251.912 c 0
 452.384 227.572 412.699 201.293 371.018 176.332 c 2
 341.353 158.969 l 1
 345.408 159.054 349.445 159.093 353.462 159.093 c 0
 367.528 159.093 381.352 158.596 394.901 157.78 c 0
 415.75 156.524 436.15 154.042 454.383 154.042 c 0
 461.107 154.042 467.517 154.362 473.444 155.076 c 0
 479.444 155.802 494.62 160.06 507.92 171.426 c 0
 511.114 174.155 511.572 175.785 516.929 181.257 c 0
 517.515 181.857 519.835 184.135 521.225 185.372 c 0
 522.693 186.681 525.766 189.114 527.04 190.018 c 0
 529.025 191.425 533.039 193.893 534.522 194.677 c 0
 543.544 199.454 551.382 199.821 555.797 199.821 c 0
 560.393 199.821 562.6 199.477 563.365 199.477 c 2
 629.668 199.477 l 1
 516.133 -4.81836 l 1
 36.3242 -4.81836 l 1
 37.8193 0.847656 39.998 15.0107 42.2402 23.5098 c 0
 45.7881 36.958 50.1211 44.2871 52.543 47.4785 c 0
 54.5244 50.0898 56.249 53.2598 63.7207 59.835 c 0
 64.0811 60.1523 65.1572 61.124 67.4053 62.9287 c 0
 76.791 70.459 87.2764 76.5742 92.0654 80.2314 c 0
 119.208 100.951 146.231 120.591 172.966 140.572 c 0
 255.846 202.065 337.472 257.774 402.822 325.951 c 0
 429.445 353.724 455.921 381.829 467.101 407.076 c 0
 469.742 413.041 471.918 419.177 473.536 425.313 c 0
 478.459 443.974 478.063 462.443 471.424 477.024 c 0
 460.369 501.304 430.508 518.185 396.03 518.185 c 0
 386.052 518.185 375.81 516.761 365.452 513.751 c 0
 326.72 502.498 290.948 467.324 251.146 422.034 c 2
 235.244 403.725 l 1
 155.992 435.276 l 1
 169.2 457.693 l 2
EndSplineSet
EndChar

StartChar: three
Encoding: 51 51 21
Width: 597
VWidth: 1
Flags: HW
HStem: -12.1345 106.143<211.051 294.128> 534.249 123.353<389.343 532.365>
LayerCount: 2
Back
Fore
SplineSet
233.196 502.234 m 2
 228.628 513.339 227.952 520.896 224.849 530.92 c 0
 224.144 533.201 222.308 537.695 221.903 542.62 c 0
 221.654 545.656 222.309 551.179 222.874 553.318 c 0
 223.895 557.193 225.089 559.73 226.075 561.113 c 0
 230.854 567.806 233.914 571.981 236.335 574.215 c 0
 247.027 584.077 257.532 588.332 264.571 592.718 c 0
 294.172 611.162 330.502 626.38 370.124 637.466 c 0
 414.588 649.906 464.252 657.603 512.215 657.603 c 0
 552.515 657.603 585.858 651.69 612.633 636.391 c 0
 655.894 611.666 670.225 565.556 657.973 519.116 c 0
 648.588 483.541 623.739 447.521 586.153 420.419 c 0
 569.715 408.564 552.868 399.58 535.814 391.563 c 1
 545.85 387.624 555.643 382.459 564.619 375.405 c 0
 613.456 337.032 625.013 273.074 608.395 210.083 c 0
 596.601 165.38 570.541 120.31 531.841 83.4131 c 0
 477.7 31.7949 402.091 1.60352 329.735 -7.98438 c 0
 307.144 -10.9297 284.795 -12.1348 262.869 -12.1348 c 0
 211.396 -12.1348 162.034 -5.28125 122.57 5.59961 c 0
 109.633 9.31641 97.7344 14.7539 86.3145 20.2725 c 0
 82.4639 22.1328 79.9961 23.0312 78.543 23.8848 c 0
 74.165 26.459 69.4658 30.834 67.7109 37.46 c 0
 67.0713 39.8779 66.8945 47.0557 67.9932 51.1611 c 0
 68.2451 52.1064 68.916 54.75 69.7715 57.1191 c 0
 70.4238 58.9219 71.2793 60.832 72.833 63.0332 c 0
 73.9141 64.5645 75.7432 66.7197 78.2812 70.6699 c 0
 84.9746 81.0898 91.4814 91.3701 97.4355 101.474 c 2
 108.961 121.033 l 1
 128.52 118.028 l 2
 147.779 115.068 159.279 106.442 173.904 102.93 c 0
 198.04 97.3066 224.157 94.0088 249.502 94.0088 c 0
 281.438 94.0088 311.281 98.96 338.256 111.434 c 0
 356.361 119.806 373.606 134.354 387.201 149.985 c 0
 400.318 165.069 409.865 182.406 414.333 199.341 c 0
 424.001 235.981 410.389 270.66 364.511 284.849 c 0
 356.285 287.393 348.873 288.267 341.837 288.267 c 0
 323.371 288.267 315.766 284.522 272.859 276.641 c 2
 247.235 271.934 l 1
 224.512 344.282 l 1
 251.08 354.018 l 2
 272.302 361.574 294.965 372.482 319.043 383.191 c 0
 368.889 405.356 412.897 427.436 437.789 456.667 c 0
 444.404 464.434 447.99 472.048 449.731 478.646 c 0
 456.813 505.491 438.66 530.982 397.236 533.973 c 0
 394.933 534.145 392.574 534.249 390.339 534.249 c 0
 347.779 534.249 308.634 504.354 257.45 492.438 c 2
 239.233 487.56 l 1
 233.196 502.234 l 2
EndSplineSet
EndChar

StartChar: four
Encoding: 52 52 22
Width: 632
VWidth: 1
Flags: HW
HStem: -7.7301 90.2601<201.972 279.618> 142.834 109.588<238.243 321.509>
LayerCount: 2
Back
Fore
SplineSet
68.5859 142.834 m 1
 85.335 206.289 l 1
 93.1816 232.566 l 1
 127.229 268.743 l 1
 491.879 605.203 l 1
 536.185 649.729 l 1
 548.451 650.705 l 1
 569.377 652.274 l 1
 647.654 652.318 l 1
 542.768 254.745 l 2
 542.276 252.882 541.649 251.007 540.929 248.967 c 1
 570.771 253.82 580.611 260.778 583.198 265.764 c 0
 583.378 266.11 583.527 266.455 583.651 266.81 c 2
 591.238 288.333 l 1
 682.762 288.333 l 1
 627.263 142.834 l 1
 512.504 142.834 l 1
 510.255 135.805 508.072 129.057 506.393 122.691 c 0
 504.023 113.709 501.52 104.089 513.997 95.8398 c 0
 530.023 85.2441 544.544 78.4248 549.026 76.7168 c 0
 549.545 76.4971 552.915 76.2305 555.592 76.2305 c 0
 562.943 76.2305 575.86 77.5488 583.458 77.5488 c 2
 607.811 77.5488 l 1
 585.312 -7.73047 l 1
 178.16 -7.73047 l 1
 201.972 82.5303 l 1
 232.129 82.5303 l 2
 277.639 82.5303 295.653 87.1025 301.854 90.3838 c 0
 302.912 90.9453 303.15 91.2139 303.809 91.8926 c 0
 305.701 93.8457 307.926 97.4316 310.582 103.285 c 0
 313.063 108.751 315.113 114.697 316.739 120.856 c 0
 318.559 127.755 319.964 135.128 321.509 142.834 c 1
 68.5859 142.834 l 1
238.243 252.422 m 1
 350.476 252.422 l 1
 381.52 377.72 l 1
 238.243 252.422 l 1
EndSplineSet
EndChar

StartChar: five
Encoding: 53 53 23
Width: 597
VWidth: 1
Flags: HW
HStem: -15.5224 97.7648<181.696 249.128 218.954 279.302> 292.626 175.559<331.388 395.376> 498.777 140.597<371.311 582.462 582.462 616.108>
LayerCount: 2
Back
Fore
SplineSet
156.807 321.907 m 2
 192.104 396.547 232.359 469.799 268.293 542.479 c 2
 299.207 599.921 l 2
 300.852 603.388 304.529 612.688 310.277 620.186 c 0
 313.655 624.593 318.99 630.013 326.871 633.993 c 0
 331.787 636.479 338.735 639.865 354.208 639.865 c 0
 363.859 639.865 363.729 639.374 366.142 639.374 c 2
 563.459 639.374 l 2
 576.912 639.374 589.641 638.649 601.387 638.649 c 0
 606.769 638.649 611.713 638.677 616.324 639.088 c 1
 616.548 639.332 616.829 639.621 617.17 639.963 c 0
 621.147 643.941 625.913 649.856 633.721 655.711 c 1
 634.911 657.161 636.803 659.389 639.396 661.955 c 2
 641.56 664.133 l 1
 644.345 664.669 l 2
 650.51 665.86 657.008 666.099 662.033 666.099 c 0
 663.008 666.099 667.41 665.861 668.053 665.861 c 2
 726.684 665.861 l 1
 646.885 498.776 l 1
 371.311 498.776 l 1
 365.46 487.584 359.048 476.534 352.51 465.724 c 1
 364.957 467.21 379.267 468.186 395.419 468.186 c 0
 400.688 468.186 405.791 468.076 410.742 467.906 c 0
 526.902 463.907 609.995 405.205 615.981 310.866 c 0
 617.409 288.349 614.547 263.907 608.04 239.242 c 0
 597.886 200.752 578.893 161.455 551.167 128.268 c 0
 481.073 44.3672 343.819 -14.4385 225.835 -15.4463 c 0
 221.266 -15.4863 216.684 -15.5225 212.07 -15.5225 c 0
 175.004 -15.5225 136.573 -13.8008 105.387 -1.38867 c 0
 90.3408 4.68164 79.7188 13.0234 69.7598 19.5225 c 2
 54.0938 29.7461 l 1
 107.465 112.931 l 1
 126.997 107.982 l 2
 144.6 103.521 152.259 96.7568 167.168 92.6943 c 0
 191.125 86.2207 218.03 82.2422 244.517 82.2422 c 0
 262.887 82.2422 281.021 84.0781 298.048 88.1016 c 0
 343.085 98.7422 399.327 136.125 426.996 166.702 c 0
 427.847 167.785 428.079 169.394 428.532 171.112 c 0
 429.805 175.935 429.814 178.923 430.957 190.309 c 0
 434.119 221.768 426.811 250.244 403.523 271.362 c 0
 387.221 286.144 359.786 292.626 326.743 292.626 c 0
 309.683 292.626 291.27 290.626 273.657 287.527 c 0
 262.227 285.518 250.644 283.042 239.647 279.813 c 0
 238.43 279.457 232.131 277.218 230.893 276.808 c 0
 230.103 276.547 226.641 275.473 225.202 275.08 c 0
 224.058 274.766 219.886 273.782 217.914 273.444 c 0
 215.281 272.993 210.377 272.594 208.749 272.594 c 2
 208.557 272.594 l 2
 195.67 272.701 193.403 276.748 186.172 281.336 c 2
 148.96 304.948 l 1
 156.807 321.907 l 2
EndSplineSet
EndChar

StartChar: six
Encoding: 54 54 24
Width: 639
VWidth: 1
Flags: HW
LayerCount: 2
Back
Fore
SplineSet
378 329.7 m 1
 354.9 344.4 l 1
 322.918 348.239 l 1
 300.862 332.843 l 1
 252 273 l 1
 235.2 220.5 l 1
 224.7 165.9 l 1
 226.8 119.7 l 1
 261.275 97.2158 l 1
 283.768 81.6455 l 1
 310.525 81.6455 l 1
 320.647 86.3252 l 1
 367.5 138.6 l 1
 394.8 226.8 l 1
 397.82 273.851 l 1
 378 329.7 l 1
346.711 423.439 m 1
 369.065 429.492 391.756 433.505 414.461 433.505 c 0
 414.872 433.505 416.101 433.499 416.509 433.494 c 0
 439.178 433.244 461.611 429.559 481.172 422.521 c 0
 564.09 391.529 582.133 301.729 559.376 216.798 c 0
 553.561 195.094 545.062 173.569 534.07 153.183 c 0
 511.289 110.933 477.936 71.9893 437.874 41.1729 c 0
 402.731 15.1641 361.644 -6.375 317.548 -13.9443 c 0
 303.504 -16.4277 289.861 -17.6162 276.717 -17.6162 c 0
 197.373 -17.6162 134.418 24.4961 109.287 87.0664 c 0
 94.2715 124.933 92.6758 171.208 99.4639 214.955 c 0
 101.845 230.302 105.248 245.904 109.439 261.541 c 0
 127.881 330.367 163.067 400.707 215.269 460.583 c 0
 250.895 501.447 302.949 543.253 364.865 579.797 c 0
 422.732 613.951 506.673 648.181 588.997 648.181 c 0
 603.118 648.181 616.794 646.975 629.969 644.407 c 2
 638.153 642.812 l 1
 635.856 634.327 l 2
 632.883 623.345 629.289 616.498 626.772 612.344 c 0
 605.57 577.346 559.438 582.329 534.335 570.125 c 0
 515.774 561.103 497.843 555.511 482.653 547.389 c 0
 439.906 524.533 401.271 492.498 371.669 456.475 c 0
 361.306 443.864 352.433 433.013 346.711 423.439 c 1
EndSplineSet
EndChar

StartChar: seven
Encoding: 55 55 25
Width: 597
VWidth: 0
Flags: HW
HStem: 483.627 149.89<376.144 450.441 450.441 531.423> 639.416 14G<328.166 331.735>
LayerCount: 2
Back
Fore
SplineSet
180.241 444.639 m 2
 187.323 464.915 196.456 477.724 206.134 496.644 c 2
 252.308 585.857 l 2
 257.791 596.18 263.277 607.078 269.041 618.194 c 0
 269.671 619.412 271.256 623.99 274.391 628.585 c 0
 278.878 635.163 282.412 639.307 289.211 643.286 c 0
 289.403 643.399 289.707 643.577 290.18 643.83 c 0
 290.353 643.922 290.643 644.077 291.047 644.274 c 0
 291.204 644.353 291.46 644.47 291.769 644.608 c 0
 296.443 646.718 298.064 648.245 307.618 650.519 c 0
 309.091 650.876 311.55 651.387 312.529 651.57 c 0
 318.357 652.645 324.814 653.416 331.52 653.416 c 0
 331.951 653.416 333.24 653.403 333.668 653.394 c 0
 340.612 653.234 344.281 653.24 350.716 651.924 c 0
 354.707 650.946 357.05 650.023 358.233 649.095 c 0
 364.009 644.997 369.712 640.978 371.857 638.391 c 0
 372.084 638.121 372.706 637.267 372.998 636.83 c 1
 380.893 633.937 393.228 633.621 398.705 633.516 c 0
 433.002 632.852 467.517 632.633 502.194 632.633 c 0
 571.549 632.633 640.869 633.521 700.238 633.521 c 2
 720.265 633.521 l 1
 719.243 614.983 l 2
 718.718 605.511 717.178 596.236 714.798 587.228 c 0
 699.906 530.777 649.199 480.698 620.264 438.664 c 0
 558.16 349.079 498.785 254.737 451.605 160.66 c 0
 433.114 123.791 417.205 86.3135 402.543 48.6162 c 0
 398.946 39.3662 395.359 30.1504 393.282 22.2793 c 2
 393.247 22.1445 l 2
 392.904 20.8457 392.972 19.5635 391.943 15.665 c 0
 388.73 3.48828 380.256 -3.11914 378.456 -4.56543 c 0
 369.375 -11.8594 359.45 -14.6211 348.503 -14.6211 c 0
 345.211 -14.6211 346.063 -14.5127 344.417 -14.5127 c 2
 161.188 -14.5127 l 1
 172.257 11.5469 l 2
 189.431 51.9736 213.339 91.2432 236.569 128.409 c 0
 291.433 216.186 358.333 302.726 434.644 383.137 c 0
 461.623 411.566 488.872 440.241 517.84 468.546 c 0
 522.322 472.925 527.955 478.104 533.964 483.627 c 1
 355.08 483.627 l 2
 350.386 483.627 344.032 483.998 340.854 483.998 c 0
 338.389 483.998 338.048 483.98 337.749 483.906 c 0
 313.556 477.733 289.355 456.484 278.724 437.352 c 2
 268.961 419.786 l 1
 171.559 419.786 l 1
 180.241 444.639 l 2
EndSplineSet
EndChar

StartChar: eight
Encoding: 56 56 26
Width: 597
VWidth: 0
Flags: HW
HStem: -25.0093 14.7G<281.919 335.919> 544.594 103.657<421.029 468.735>
LayerCount: 2
Back
Fore
SplineSet
211.126 301.77 m 1
 186.869 328.213 177.634 359.562 177.647 394.817 c 0
 177.656 412.121 180.091 431.199 185.185 450.501 c 0
 190.179 469.434 197.675 488.619 208.503 506.471 c 0
 263.749 597.549 382.69 648.251 491.59 648.251 c 0
 533.258 648.251 573.393 640.895 607.69 625.059 c 0
 640.892 609.73 665.445 584.848 675.948 553.938 c 0
 684.064 530.049 684.054 502.016 676.652 473.964 c 0
 668.577 443.357 651.412 411.998 623.786 386.895 c 0
 608.404 372.919 592.164 360.882 575.157 350.14 c 1
 583.611 341.696 589.6 333.223 592.853 328.913 c 0
 622.368 289.812 628.32 236.926 614.443 184.33 c 0
 603.453 142.669 579.855 100.72 544.363 65.5947 c 0
 478.686 0.746094 379.604 -25.0088 292.235 -25.0088 c 0
 271.604 -25.0088 251.434 -23.3916 231.857 -20.5908 c 0
 161.38 -10.7246 106.91 22.8916 91.4463 79.5098 c 0
 85.3955 101.659 86.5225 125.73 92.8027 149.537 c 0
 106.935 203.103 150.053 264.128 211.126 301.77 c 1
453.137 544.594 m 1
 429.639 544.594 l 1
 387.48 532.598 l 1
 361.713 510.646 l 1
 352.507 494.659 l 1
 350.5 465.482 l 1
 360.959 452.339 l 1
 385.146 427.708 l 1
 421.528 411.122 l 1
 463.43 382.361 l 1
 464.194 382.127 l 1
 486.36 404.058 l 1
 506.858 427.321 l 1
 519.169 473.816 l 1
 523.942 505.432 l 1
 519.633 525.193 l 1
 509.477 532.744 l 1
 482.723 539.947 l 1
 453.137 544.594 l 1
398.638 188.883 m 1
 347.021 220.254 l 1
 298.374 241.564 l 1
 294.177 237.957 l 1
 273.803 199.796 l 1
 259.612 160.09 l 1
 251.885 116.459 l 1
 251.01 96.8125 l 1
 270.499 71.9268 l 1
 305.234 53.6104 l 1
 344.328 50.9961 l 1
 383.551 66.0586 l 1
 416.829 86.0078 l 1
 428.958 104.559 l 1
 430.749 142.582 l 1
 426.02 164.278 l 1
 398.638 188.883 l 1
EndSplineSet
EndChar

StartChar: nine
Encoding: 57 57 27
Width: 597
VWidth: 0
Flags: HW
HStem: -13.5755 89.5167<130.307 160.4 160.4 216.216>
LayerCount: 2
Back
Fore
SplineSet
451.289 548.942 m 5
 437.511 558.192 l 5
 413.833 557.239 l 5
 391.776 541.843 l 5
 364.498 473.138 l 5
 342.915 427.399 l 5
 337.012 377.255 l 5
 339.06 336.976 l 5
 352.19 306.215 l 5
 374.682 290.645 l 5
 401.44 290.645 l 5
 411.562 295.325 l 5
 435.309 348.285 l 5
 463.339 454.537 l 5
 461.9 505.215 l 5
 451.289 548.942 l 5
223.432 93.2412 m 0
 276.887 115.601 329.666 152.775 359.687 192.111 c 1
 343.272 189.483 326.69 188.144 310.407 188.144 c 0
 286.072 188.144 262.15 190.904 240.932 197.679 c 0
 144.108 229.103 122.904 320.975 145.682 407.312 c 0
 151.733 430.249 160.919 453.099 173.128 474.854 c 0
 192.594 509.541 220.029 540.901 250.907 567.095 c 0
 296.492 605.252 368.492 642.68 441.371 642.68 c 0
 442.828 642.68 447.181 642.599 448.622 642.543 c 0
 478.8 641.416 509.723 636.979 537.449 627.958 c 0
 662.349 586.804 676.512 468.474 648.006 360.419 c 0
 639.967 329.95 628.492 299.94 614.459 271.891 c 0
 560.39 163.812 450.259 68.7119 311.908 21.4736 c 0
 242.127 -2.35254 169.553 -13.5752 103.723 -13.5752 c 2
 78.8525 -13.5752 l 1
 85.5664 9.89746 l 2
 89.2051 22.6123 94.7119 32.0986 98.4629 41.6016 c 0
 101.373 48.9756 101.948 50.749 103.679 53.6875 c 0
 105.662 57.0537 110.382 62.4346 112.438 64.1934 c 0
 130.142 79.3467 150.721 74.7217 160.4 75.9404 c 0
 181.529 78.6035 202.756 84.5928 223.432 93.2412 c 0
EndSplineSet
EndChar

StartChar: colon
Encoding: 58 58 28
Width: 538
VWidth: 1
Flags: HW
LayerCount: 2
Back
Fore
SplineSet
440.502 490.769 m 1
 456.739 470.052 l 1
 465.385 443.461 l 1
 431.733 416.29 l 1
 383.632 379.553 l 1
 337.646 342.628 l 1
 301.015 315.695 l 1
 281.235 336.073 l 1
 280.987 336.329 l 1
 280.78 336.619 l 1
 267.901 354.693 l 1
 208.976 436.172 l 1
 214.42 456.806 l 1
 367.94 583.976 l 1
 395.882 548.976 l 1
 440.502 490.769 l 1
343.034 128.277 m 2
 347.946 122.533 361.596 112.127 364.831 97.3506 c 0
 365.047 96.3594 365.544 93.2188 365.507 90.6279 c 0
 365.478 88.6406 364.905 85.167 364.545 83.8027 c 2
 364.132 82.2363 l 1
 363.087 80.8223 l 2
 360.803 77.3428 356.734 69.6416 353.745 66.1201 c 0
 353.469 65.7939 352.759 65.0215 352.255 64.5576 c 0
 349.046 61.6055 348.906 61.748 346.635 59.9258 c 0
 340.968 55.377 334.544 49.6689 326.783 43.4492 c 2
 255.019 -14.0762 l 2
 249.625 -19.0312 241.747 -27.3154 232.414 -33.543 c 0
 219.984 -41.8369 210.8 -41.8545 208.688 -41.8545 c 2
 206.985 -41.8545 l 1
 206.484 -41.5518 l 1
 203.456 -41.415 195.256 -41.2812 187.832 -30.2344 c 0
 187.684 -30.0117 187.247 -29.3311 187.09 -29.1152 c 2
 173.537 -10.7051 l 1
 114.537 70.876 l 1
 119.926 91.3027 l 1
 268.785 217.486 l 1
 283.045 205.15 l 2
 295.47 194.401 303.231 181.042 310.16 171.631 c 2
 343.034 128.277 l 2
EndSplineSet
EndChar

StartChar: semicolon
Encoding: 59 59 29
Width: 423
VWidth: 0
Flags: HW
LayerCount: 2
Back
SplineSet
247.223 902.188 m 0x40
 252.196 902.848 257.333 903.169 262.512 903.169 c 0
 272.85 903.169 283.354 901.89 293.056 899.479 c 0
 352.518 884.702 385.076 831.305 385.076 777.836 c 0x80
 385.076 737.271 366.336 696.665 326.389 672.852 c 0
 311.429 663.889 295.083 658.079 277.777 655.953 c 0
 272.728 655.329 267.75 655.027 262.857 655.027 c 0
 192.424 655.027 139.439 717.602 139.439 782.894 c 0
 139.439 806.804 146.544 831.078 162.5 852.777 c 0
 171.605 864.823 183.193 876.068 195.833 884.117 c 0
 211.58 894.145 228.812 899.681 247.223 902.188 c 0x40
31.9443 -237.5 m 1
 63.8887 -137.5 89.3213 -34.7227 117.467 66.667 c 0
 126.093 97.6934 134.565 128.771 143.46 159.723 c 0
 148.039 175.655 150.647 193.056 160.333 206.944 c 0
 177.066 230.781 199.813 233.605 224.797 233.605 c 0
 232.557 233.605 240.533 233.333 248.611 233.333 c 0
 258.084 233.333 267.781 233.768 277.428 233.768 c 0
 285.028 233.768 292.596 233.498 300 232.533 c 0
 310.713 231.126 337.5 232.599 343.842 221.836 c 0
 346.847 216.583 347.357 209.481 347.357 202.77 c 0
 347.357 199.329 347.223 195.99 347.223 193.056 c 0
 347.22 155.556 323.508 122.636 307.287 90.2773 c 0
 291.483 58.751 268.638 29.167 249.073 0 c 0
 216.451 -48.9336 184.474 -98.29 151.852 -147.223 c 0
 137.5 -168.451 123.875 -189.882 109.723 -211.111 c 0
 104.829 -218.451 99.2344 -231.621 91.4111 -236.111 c 0
 88.9631 -237.484 85.8079 -237.824 82.5937 -237.824 c 0
 79.4546 -237.824 76.2593 -237.5 73.6113 -237.5 c 2
 31.9443 -237.5 l 1
EndSplineSet
Fore
SplineSet
382.344 650.889 m 0
 432.304 637.602 448.602 589.294 436.288 542.615 c 0
 426.9 507.036 400.102 469.96 358.804 448.662 c 0
 343.595 440.818 327.557 435.551 311.503 433.639 c 0
 306.864 433.087 302.337 432.812 297.928 432.812 c 0
 233.744 432.812 202.447 488.713 217.597 546.135 c 0
 223.258 567.595 235.682 589.981 255.13 609.305 c 0
 265.789 619.898 278.416 629.643 292.106 637.106 c 0
 308.897 646.261 325.86 651.169 341.959 653.275 c 0
 346.753 653.901 351.487 654.175 356.087 654.175 c 0
 365.274 654.175 374.147 653.067 382.344 650.889 c 0
108.678 119.173 m 2
 114.633 129.977 120.581 144.92 134.498 159.353 c 0
 153.728 179.3 174.927 188.292 206.937 188.292 c 0
 212.891 188.292 218.393 188.104 223.457 188.104 c 0
 229.293 188.104 236.163 188.405 243.587 188.405 c 0
 252.881 188.405 258.622 187.668 261.888 187.372 c 0
 271.905 186.468 284.104 187.079 294.543 181.126 c 0
 303.537 175.997 305.287 169.049 305.615 167.417 c 0
 306.241 164.291 307.843 160.96 306.263 150.756 c 0
 306.007 149.111 305.573 146.619 304.483 142.484 c 0
 303.174 137.522 303.242 138.135 302.605 135.725 c 0
 293.904 102.753 268.735 77.1465 250.49 53.2988 c 0
 231.506 28.4844 209.312 7.24512 191.235 -12.0957 c 2
 55.6914 -158.801 l 2
 49.4834 -166.036 48.377 -167.583 44.5947 -171.466 c 0
 38.8652 -177.346 33.2285 -181.46 27.8887 -184.08 c 0
 20.709 -187.602 14.0264 -188.433 8.60645 -188.433 c 0
 7.64355 -188.433 3.13574 -188.208 2.41406 -188.208 c 2
 -59.9219 -188.208 l 1
 -41.3945 -156.444 l 2
 -1.41797 -87.9023 35.0176 -16.6699 73.4521 54.3174 c 2
 108.678 119.173 l 2
EndSplineSet
EndChar

StartChar: less
Encoding: 60 60 30
Width: 779
VWidth: 0
Flags: HW
LayerCount: 2
Back
Fore
SplineSet
860.321 551.835 m 1
 848.141 515.479 l 1
 817.733 502.444 l 1
 784.917 489.437 l 1
 344.054 315.29 l 1
 398.385 286.526 l 1
 698.329 126.698 l 1
 720.783 114.824 l 2
 722.862 113.687 726.502 112.518 730.268 109.312 c 0
 732.592 107.331 735.546 102.872 736.337 100.957 c 2
 736.652 100.193 l 1
 736.722 99.3223 l 2
 736.862 97.584 738.262 90.7939 737.961 87.4766 c 0
 737.709 84.6543 737.198 81.7412 736.189 77.918 c 0
 734.587 71.8525 731.724 64.2686 731.325 62.752 c 2
 704.865 -37.5488 l 1
 674.853 -23.5127 l 2
 622.185 1.12207 573.839 30.6719 525.061 56.792 c 2
 252.307 202.855 l 1
 177.112 243.352 l 2
 167.429 247.762 154.618 250.688 146.612 261.315 c 0
 145.761 262.447 143.899 265.572 143.164 267.623 c 0
 140.894 273.951 141.723 280.862 143.21 286.502 c 0
 143.471 287.488 144.921 292.07 145.102 292.753 c 2
 153.259 323.677 l 2
 153.87 325.993 155.133 334.822 156.657 340.601 c 0
 159.182 350.171 160.955 353.494 162.596 356.55 c 0
 163.577 358.378 165.565 361.464 166.446 362.662 c 2
 167.383 363.939 l 1
 168.684 364.881 l 2
 172.119 367.603 178.783 373.808 182.619 376.17 c 0
 182.94 376.368 183.659 376.786 184.265 377.076 c 0
 188.737 379.21 193.334 380.573 194.362 380.983 c 2
 226.836 393.949 l 1
 789.32 617.49 l 2
 810.047 625.734 830.249 632.403 846.139 640.432 c 2
 886.256 660.7 l 1
 872.704 598.683 l 1
 860.321 551.835 l 1
EndSplineSet
EndChar

StartChar: equal
Encoding: 61 61 31
Width: 851
VWidth: 1
Flags: HW
HStem: 138.83 123.118<169.245 842.611> 335.973 124.085<221.51 897.519>
LayerCount: 2
Back
SplineSet
175 338.889 m 1
 1119.44 338.889 l 1
 1119.44 231.944 l 1
 175 231.944 l 1
 175 338.889 l 1
175 623.611 m 1
 1123.61 623.611 l 1
 1123.61 515.277 l 1
 175 515.277 l 1
 175 623.611 l 1
EndSplineSet
Fore
SplineSet
169.245 261.948 m 1
 875.091 261.948 l 1
 842.611 138.83 l 1
 136.766 138.83 l 1
 169.245 261.948 l 1
221.51 460.059 m 1
 930.258 460.059 l 1
 897.52 335.974 l 1
 188.774 335.974 l 1
 221.51 460.059 l 1
EndSplineSet
EndChar

StartChar: greater
Encoding: 62 62 32
Width: 779
VWidth: 1
Flags: HW
LayerCount: 2
Back
Fore
SplineSet
764.743 377.275 m 2
 771.596 373.406 779.471 369.554 787.5 365.238 c 0
 790.041 363.869 803.775 358.675 803.971 342.594 c 0
 804.034 337.906 803.558 330.355 800.331 318.143 c 0
 796.488 303.56 792.036 292.851 789.46 283.081 c 0
 789.425 282.948 788.186 276.241 787.248 272.673 c 0
 785.589 266.394 782.564 258.729 776.321 251.873 c 0
 761.817 235.957 734.37 230.276 726.516 227.062 c 2
 155.207 -0.113281 l 2
 136.9 -7.34082 116.204 -17.0645 93.7217 -24.0898 c 2
 58.623 -35.0566 l 1
 84.4619 62.7334 l 1
 93.1494 88.1992 l 1
 97.6758 101.408 l 1
 111 107.714 l 1
 123.032 113.368 l 1
 152.066 124.874 l 1
 603.893 303.338 l 1
 247.636 492.757 l 1
 225.855 504.524 l 1
 216.184 510.728 l 1
 205.908 517.352 l 1
 214.331 555.104 l 1
 240.906 655.886 l 1
 270.912 641.872 l 2
 322.422 617.813 369.371 588.567 417.362 563.494 c 2
 764.743 377.275 l 2
EndSplineSet
EndChar

StartChar: question
Encoding: 63 63 33
Width: 463
VWidth: 2
Flags: HW
VStem: 132.577 217.853<42.3633 109.374>
LayerCount: 2
Back
SplineSet
319.444 189.689 m 0x00
 323.444 190.213 327.435 190.467 331.405 190.467 c 0
 388.725 190.467 441.422 137.581 446.984 81.9443 c 0
 447.405 77.7365 447.612 73.5316 447.612 69.3448 c 0
 447.612 9.26743 405.092 -47.0921 343.056 -55.1543 c 0
 337.64 -55.7795 331.914 -56.1213 326.113 -56.1213 c 0
 315.305 -56.1213 304.239 -54.9347 294.444 -52.1836 c 0
 236.809 -36.003 205.052 15.2175 205.052 67.3094 c 0
 205.052 101.834 219.001 136.74 248.611 162.083 c 0
 269.444 180.025 292.864 186.111 319.444 189.689 c 0x00
130.556 1082.74 m 0
 131.229 1082.83 131.895 1082.87 132.555 1082.87 c 0
 146.856 1082.87 157.931 1063.49 168.056 1054.76 c 0
 189.961 1035.83 210.257 1026.13 238.889 1021.65 c 0
 306.792 1011.04 375 1022.22 438.889 991.309 c 0
 528.435 947.665 548.611 838.759 548.611 748.611 c 0
 548.611 708.285 544.315 668.325 525 631.944 c 0
 489.813 564.845 430.51 520.221 387.207 459.723 c 0
 367.093 431.623 365.17 391.738 365.17 356.203 c 0
 365.17 347.803 365.277 339.645 365.277 331.944 c 0
 365.277 323.916 366.436 313.141 366.436 302.788 c 0
 366.436 293.949 365.591 285.418 362.461 279.167 c 0
 350.682 255.646 309.048 245.805 284.21 245.805 c 0
 283.438 245.805 282.682 245.814 281.944 245.833 c 0
 259.734 246.445 255.525 273.855 255.525 291.778 c 0
 255.525 292.693 255.536 293.583 255.556 294.444 c 0
 256.768 343.056 262.349 395.785 286.7 438.889 c 0
 315.277 489.632 351.983 534.644 385.707 581.944 c 0
 401.698 604.167 422.852 629.167 431.944 655.556 c 0
 433.452 659.831 433.854 664.662 433.854 669.589 c 0x60
 433.854 675.2 433.333 680.934 433.333 686.111 c 0
 433.253 736.514 410.631 769.425 362.5 786.895 c 0
 314.687 804.167 258.333 797.968 208.333 803.951 c 0
 177.461 807.646 151.175 811.691 129.408 836.111 c 0
 97.9704 871.379 85.1642 926.02 85.1642 975.956 c 0x80
 85.1642 990.596 86.2648 1004.83 88.3193 1018.06 c 0
 90.6982 1033.32 92.2568 1064.52 104.553 1075.28 c 0
 111.438 1081.3 121.95 1081.66 130.556 1082.74 c 0
EndSplineSet
Fore
SplineSet
313.792 776.538 m 0
 323.848 771.295 333.064 754.67 333.226 754.488 c 0
 342.457 744.163 350.847 739.515 365.764 737.079 c 0
 415.041 729.05 461.292 738.542 505.666 713.818 c 0
 557.225 685.091 570.714 619.016 545.393 523.04 c 0
 537.569 493.384 525.987 461.174 501.739 430.502 c 0
 460.309 378.098 415.612 352.611 371.771 307.857 c 0
 359.263 295.089 351.591 272.368 347.089 255.302 c 0
 346.466 252.943 346.038 251.193 345.725 250.002 c 0
 344.236 244.363 342.817 238.703 341.346 233.123 c 0
 340.518 229.983 338.975 221.026 337.172 214.192 c 0
 337.092 213.891 336.844 212.987 336.758 212.686 c 0
 335.143 207.037 333.248 199.985 328.429 191.746 c 0
 327.211 189.664 324.92 186.246 323.848 185.012 c 0
 322.24 183.16 317.626 176.334 305.573 168.332 c 0
 301.01 165.303 294.308 161.59 285.94 158.218 c 1
 333.438 151.643 360.174 106.452 352.824 61.5967 c 0
 352.23 57.9727 351.397 54.0732 350.43 50.4072 c 0
 336.471 -2.50488 285.78 -53.0742 227.106 -60.3867 c 0
 222.124 -61.0068 217.031 -61.2461 212.083 -61.2461 c 0
 202.811 -61.2461 193.329 -60.2988 184.427 -57.5996 c 0
 136.877 -43.1816 120.472 3.10449 132.577 48.9902 c 0
 140.93 80.6494 162.22 111.42 193.648 133.411 c 0
 205.098 141.424 216.478 146.836 227.496 150.6 c 1
 220.324 152.236 213.152 155.137 208.43 167.178 c 0
 203.575 179.557 205.919 193.875 208.9 205.175 c 0
 209.029 205.664 209.433 207.132 209.575 207.622 c 0
 217.651 235.587 232.272 281.305 263.895 319.5 c 0
 295.09 357.18 329.686 389.238 361.038 421.251 c 0
 385.614 446.346 394.599 454.314 401.889 466.287 c 0
 401.979 466.436 402.054 466.994 402.333 468.057 c 0
 402.938 470.352 404.095 476.087 404.998 479.529 c 0
 410.691 501.223 408.065 517.241 384.239 526.78 c 0
 360.836 536.149 311.603 534.098 285.161 537.365 c 0
 264.671 539.896 238.061 543.666 222.967 567.718 c 0
 202.481 600.361 207.08 647.592 215.953 681.227 c 0
 218.977 692.688 222.887 703.759 227.116 714.175 c 0
 232.497 727.419 236.927 740.586 245.558 752.92 c 0
 250.208 759.57 255.416 764.812 260.825 768.663 c 2
 261.55 769.181 l 1
 262.335 769.552 l 2
 264.401 770.525 270.665 775.572 282.836 778.036 c 0
 287.95 779.072 291.648 779.289 294.732 779.674 c 0
 296.784 779.933 297.993 780.003 298.792 780.003 c 0
 299.15 780.003 300.214 779.919 300.55 779.855 c 0
 303.245 779.338 310.96 778.015 313.792 776.538 c 0
EndSplineSet
EndChar

StartChar: at
Encoding: 64 64 34
Width: 1052
VWidth: 1
Flags: HW
HStem: -191.603 102.362<438.326 628.79> 32.0468 98.5215<768.173 823.746 802.753 843.745> 698.287 115.517<735.161 815.808 775.481 850.584>
LayerCount: 2
Back
Fore
SplineSet
467.722 -191.604 m 0
 374.282 -191.604 291.226 -160.396 226.46 -112.383 c 0
 179.843 -77.8252 137.426 -23.5195 112.464 49.1426 c 0
 87.376 122.166 87.2998 207.743 109.851 293.224 c 0
 127.086 358.556 157.635 423.897 200.732 483.605 c 0
 242.778 541.859 295.686 589.741 350.035 632.745 c 0
 416.047 684.977 489.069 733.033 566.873 764.925 c 0
 646.968 797.755 725.683 810.509 802.452 813.806 c 0
 811.349 814.184 820.26 814.395 829.171 814.395 c 0
 907.032 814.395 984.41 798.91 1040.73 753.347 c 0
 1083.84 718.466 1108.74 669.604 1124.6 617.936 c 0
 1139.83 568.355 1146.6 514.479 1141.85 457.495 c 0
 1139.15 425.167 1132.41 393.046 1124.05 361.364 c 0
 1122.72 356.335 1121.41 351.032 1119.94 345.484 c 0
 1117.04 334.464 1113.56 322.377 1107.79 309.553 c 0
 1086.58 262.425 1051.69 221.448 1020.65 185.516 c 0
 996.611 157.689 970.536 127.66 938.455 101.787 c 0
 884.674 58.4131 824.188 32.0469 760.27 32.0469 c 0
 749.062 32.0469 737.919 32.873 726.866 34.5156 c 0
 714.644 36.334 687.708 40.0264 669.533 52.9092 c 0
 653.936 63.9668 643.964 78.4297 636.48 93.248 c 1
 616.503 78.1855 595.297 67.5488 584.412 62.1572 c 0
 545.413 42.8418 502.515 31.5059 462.283 31.5059 c 0
 426.062 31.5059 391.723 40.9326 366.23 63.1787 c 0
 351.056 76.4199 334.812 96.9307 332.477 125.334 c 0
 330.032 155.071 338.409 187.135 345.436 213.771 c 0
 345.745 214.941 346.051 216.099 346.358 217.266 c 2
 347.408 221.24 l 2
 359.062 265.389 375.812 310.75 403.873 354.503 c 0
 422.191 383.068 444.365 408.624 465.292 432.224 c 0
 492.801 463.248 524.691 494.856 561.727 519.62 c 0
 602.082 546.606 660.64 572.476 717.283 572.476 c 0
 756.056 572.476 788.956 559.848 810.614 533.729 c 1
 811.671 536.086 l 1
 820.694 555.803 l 1
 968.877 555.803 l 1
 955.612 526.813 l 2
 913.157 434.061 864.612 342.771 819.23 252.381 c 2
 781.229 175.832 l 2
 776.419 166.598 770.287 157.368 767.788 151.579 c 1
 768.677 150.373 769.776 148.7 771.189 146.36 c 0
 777.553 135.816 788.053 130.568 802.074 130.568 c 0
 802.347 130.568 803.159 130.579 803.432 130.585 c 0
 820.75 130.966 851.557 139.785 904.477 192.289 c 0
 960.4 247.774 1003.84 317.35 1021.83 385.52 c 0
 1027.98 408.848 1031.21 432.012 1031.04 454.535 c 0
 1030.81 488.07 1025.44 520.095 1014.64 549.343 c 0
 986.797 624.652 917.062 679.861 833.721 694.486 c 0
 817.915 697.26 801.71 698.287 784.819 698.287 c 0
 766.339 698.287 746.935 696.974 726.656 695.598 c 0
 701.505 693.891 677.128 692.732 655.077 687.828 c 0
 603.579 676.374 548.999 643.289 498.304 607.701 c 0
 466.032 585.047 419.184 549.069 378.307 501.574 c 0
 340.003 457.07 313.798 406.343 289.741 352.206 c 0
 277.337 324.295 264.645 297.49 256.882 272.343 c 0
 255.222 266.961 253.693 261.582 252.269 256.18 c 0
 233.788 186.13 235.366 116.912 262.78 62.0693 c 0
 313.557 -39.5078 426.35 -89.2402 551.189 -89.2402 c 0
 585.071 -89.2402 619.941 -85.5361 654.733 -78.3066 c 0
 692.625 -70.4336 730.387 -57.9902 768.312 -42.0449 c 0
 782.082 -36.2588 795.368 -28.1533 813.729 -20.5195 c 2
 840.707 -9.30371 l 1
 850.458 -103.414 l 1
 826.588 -112.405 l 2
 783.902 -128.48 740.418 -147.215 693.779 -160.558 c 0
 616.043 -182.797 541.771 -191.604 467.722 -191.604 c 0
EndSplineSet
EndChar

StartChar: holam
Encoding: 275 -1 51
Width: 308
VWidth: 0
Flags: HW
VStem: 30.4601 225.643<523.725 761.971 523.725 523.725> 143.806 115.712<722.372 779.583> 187.069 67.6529<154.846 318.83>
LayerCount: 2
Back
Fore
SplineSet
198.333 818.202 m 0x40
 199.904 818.405 201.511 818.496 203.132 818.496 c 0
 208.045 818.496 213.103 817.663 217.777 816.655 c 0
 245.972 810.544 259.518 786.395 259.518 761.971 c 0
 259.518 735.42 243.513 708.547 212.917 704.179 c 0
 209.607 703.71 206.255 703.465 202.905 703.465 c 0
 189.37 703.465 175.862 707.406 165.277 716.009 c 0
 151.428 727.265 143.806 745.27 143.806 763.049 c 0
 143.806 777.406 148.774 791.609 159.444 801.997 c 0
 170.447 812.637 183.699 816.277 198.333 818.202 c 0x40
181.806 -15.5557 m 1
 181.806 45.918 187.069 108.937 187.069 171.421 c 0x20
 187.069 239.273 180.862 306.494 154.969 370.417 c 0
 140 407.182 114.62 438.168 83.6104 462.572 c 0
 66.0732 476.376 35.3564 485.14 31.5371 509.444 c 0
 30.8037 514.108 30.46 518.882 30.46 523.726 c 0x80
 30.46 558.065 47.7227 595.929 65.4736 623.193 c 0
 72.1924 633.488 80.1133 647.5 91.3896 653.333 c 0
 98.9082 657.186 107.317 658.799 115.988 658.799 c 0
 134.979 658.799 155.228 651.064 170.14 642.199 c 0
 219.688 612.737 242.267 552.83 250.271 498.75 c 0
 254.614 469.412 256.103 439.614 256.103 409.839 c 0
 256.103 391.467 255.536 373.103 254.723 354.86 c 0x20
 251.781 286.806 247.758 219.507 241.276 151.667 c 0
 237.63 113.507 234.155 75.1787 231.39 36.9443 c 0
 230.729 26.25 230.277 15.458 228.885 4.86133 c 0
 228.438 1.45312 229.293 -3.28906 226.913 -6.0625 c 0
 217.524 -17.001 194.444 -13.1875 181.806 -15.5557 c 1
EndSplineSet
EndChar

StartChar: enc-89
Encoding: 276 -1 52
Width: 0
VWidth: 0
Flags: HW
HStem: 0.972069 0.972069<0.972069 1.94414 0.972069 0.972069>
LayerCount: 2
Back
Fore
SplineSet
0.97168 1.94434 m 1
 1.94434 0.97168 l 1
 0.97168 1.94434 l 1
EndSplineSet
EndChar

StartChar: enc-90
Encoding: 277 -1 53
Width: 0
VWidth: 0
Flags: HW
HStem: 0.972069 0.972069<0.972069 1.94414 0.972069 0.972069>
LayerCount: 2
Back
Fore
SplineSet
0.97168 1.94434 m 1
 1.94434 0.97168 l 1
 0.97168 1.94434 l 1
EndSplineSet
EndChar

StartChar: bracketright
Encoding: 93 93 54
Width: 385
VWidth: 0
Flags: HW
HStem: -229.74 97.0263<-16.7863 143.634> 608.119 95.0929<203.743 339.077>
LayerCount: 2
Back
Fore
SplineSet
203.743 703.213 m 1
 508.543 703.213 l 1
 262.416 -229.74 l 1
 -42.3838 -229.74 l 1
 -16.7861 -132.714 l 1
 143.634 -132.714 l 1
 339.077 608.119 l 1
 178.657 608.119 l 1
 203.743 703.213 l 1
EndSplineSet
EndChar

StartChar: backslash
Encoding: 92 92 55
Width: 383
VWidth: 1
Flags: HW
VStem: 190.495 206.417<-21.9037 807.765 758.884 824.278>
LayerCount: 2
Back
Fore
SplineSet
318.258 838.537 m 0
 318.508 838.537 319.301 838.53 319.549 838.53 c 0
 322.237 838.495 328.618 837.963 330.551 837.564 c 0
 340.832 835.45 344.363 830.13 345.305 828.855 c 0
 353.323 818.006 350.012 806.932 350.391 801.486 c 2
 396.912 -21.9033 l 1
 242.012 -21.9033 l 1
 244.426 -1.1084 l 2
 246.711 18.5732 241.887 38.9453 239.925 67.2549 c 2
 195.248 733.096 l 2
 193.677 755.671 189.607 780.493 190.495 807.765 c 2
 191.464 837.605 l 1
 302.303 837.605 l 2
 303.871 837.605 311.985 838.544 318.258 838.537 c 0
EndSplineSet
EndChar

StartChar: bracketleft
Encoding: 91 91 56
Width: 385
VWidth: 0
Flags: HW
HStem: -229.732 97.0263<173.286 309.076> 608.128 97.9944<368.728 530.116>
LayerCount: 2
Back
Fore
SplineSet
248.271 706.125 m 1
 555.969 706.125 l 1
 530.116 608.128 l 1
 368.729 608.128 l 1
 173.286 -132.705 l 1
 334.673 -132.705 l 1
 309.076 -229.731 l 1
 1.37695 -229.731 l 1
 248.271 706.125 l 1
EndSplineSet
EndChar

StartChar: circumflex
Encoding: 278 -1 57
Width: 538
VWidth: 0
Flags: HW
LayerCount: 2
Back
Fore
SplineSet
18.4717 297.5 m 1
 21.875 311.827 30.5234 325.938 36.6436 339.306 c 0
 49.3838 367.13 61.8203 395.093 74.5615 422.917 c 0
 111.151 502.828 146.806 583.144 183.449 663.056 c 0
 196.32 691.164 209.398 719.264 221.667 747.642 c 0
 224.354 753.858 230.141 774.452 237.223 775.691 c 0
 243.03 776.685 249.167 777.014 255.412 777.014 c 0
 267.283 777.014 279.547 775.831 290.694 775.831 c 0
 293.02 775.831 296.723 776.321 300.224 776.321 c 0
 303.473 776.321 306.55 775.901 308.194 774.277 c 0
 316.713 765.954 321.042 746.669 325.995 735.973 c 0
 340.277 704.585 354.402 673.052 368.772 641.667 c 0
 403.732 565.315 437.84 488.574 472.801 412.223 c 0
 483.91 387.917 494.745 363.569 505.855 339.306 c 0
 511.962 325.97 520.636 311.781 524.027 297.5 c 1
 504.583 297.9 485.14 298.473 465.694 298.473 c 0
 462.521 298.473 457.241 297.726 452.475 297.726 c 0
 449.042 297.726 445.876 298.112 443.952 299.444 c 0
 437.35 304.084 433.61 320.389 430.397 327.64 c 0
 419.605 351.577 409.105 375.645 398.314 399.583 c 0
 369.306 463.932 340.762 528.499 312.083 593.056 c 0
 303.035 613.828 293.51 634.448 284.448 655.277 c 0
 280.324 664.761 274.617 674.362 272.223 684.443 c 1
 270.277 684.443 l 1
 267.883 674.362 262.176 664.761 258.052 655.277 c 0
 248.89 634.448 239.465 613.828 230.281 593.056 c 0
 201.738 528.499 173.056 463.932 144.186 399.583 c 0
 133.404 375.668 122.682 351.694 112.219 327.64 c 0
 109.078 320.42 105 304.03 98.5479 299.444 c 0
 96.624 298.112 93.457 297.726 90.0254 297.726 c 0
 85.2588 297.726 79.9795 298.473 76.8057 298.473 c 0
 57.3213 298.473 37.8877 297.9 18.4717 297.5 c 1
EndSplineSet
EndChar

StartChar: hyphen
Encoding: 45 45 58
Width: 499
VWidth: 0
Flags: HW
HStem: 206.538 202.351<125.236 489.762>
LayerCount: 2
Back
SplineSet
51.3887 550 m 1
 398.611 550 l 1
 490.277 550 l 1
 524.292 548.572 l 1
 531.014 533.333 l 1
 544.444 490.277 l 1
 595.833 329.167 l 1
 248.611 329.167 l 1
 156.944 329.167 l 1
 122.931 330.556 l 1
 116.632 345.833 l 1
 103.24 387.5 l 1
 51.3887 550 l 1
EndSplineSet
Fore
SplineSet
450.873 408.878 m 1
 489.762 407.239 l 1
 494.324 381.507 l 1
 495.825 350.308 l 1
 503.754 206.528 l 1
 164.553 206.538 l 1
 125.236 208.148 l 1
 123.095 222.571 l 1
 121.424 234.114 l 1
 119.658 264.038 l 1
 111.653 408.889 l 1
 450.873 408.878 l 1
EndSplineSet
EndChar

StartChar: afii57664
Encoding: 224 1488 59
Width: 636
VWidth: 2
Flags: HW
HStem: 441.393 211.205<445.483 532.507>
LayerCount: 2
Back
Fore
SplineSet
375.971 798.833 m 0
 387.201 811.118 408.146 840.469 435.918 857.85 c 0
 472.073 880.026 518.49 885.556 543.376 885.556 c 0
 586.753 885.556 606.407 872.277 611.266 868.868 c 0
 615.966 865.571 626.162 858.963 632.348 849.954 c 0
 635.53 845.712 637.969 840.616 638.99 834.799 c 0
 639.613 831.236 639.609 827.98 639.477 825.741 c 0
 639.191 821.492 638.488 817.215 637.397 813.078 c 0
 624.052 762.489 570.835 731.906 541.638 717.346 c 0
 503.566 699.571 463.992 684.33 432.609 665.597 c 0
 423.548 659.792 415.234 653.402 407.476 646.753 c 1
 417.335 647.131 427.073 647.731 436.562 648.695 c 0
 459.596 650.975 484.416 652.599 509.446 652.599 c 0
 543.784 652.599 599.138 650.252 642.282 628.281 c 0
 696.271 600.205 710.227 535.332 707.945 468.797 c 0
 706.363 432.031 700.322 393.311 689.988 354.151 c 0
 666.967 266.886 616.2 154.256 520.652 67.9229 c 0
 487.258 38.7666 443.926 12.4785 397.198 7.81445 c 0
 393.473 7.45605 389.53 7.28125 385.786 7.28125 c 0
 345.947 7.28125 328.927 21.5547 324.356 26.1172 c 0
 320.092 30.0439 317.985 34.1221 316.573 38.0635 c 0
 312.77 49.9766 315.08 65.0498 316.86 71.7969 c 0
 317.995 76.0967 320.776 85.1963 325.461 93.2988 c 2
 326.117 95.0107 l 1
 326.566 95.5508 l 2
 334.143 105.289 337.914 113.249 358.687 123.655 c 2
 368.731 128.053 l 2
 383.47 134.662 397.909 141.806 412.018 149.48 c 0
 454.644 172.536 493.115 200.69 522.722 233.508 c 0
 549.751 263.243 568.874 296.609 577.625 329.781 c 0
 580.459 340.524 582.316 351.195 583.038 361.754 c 0
 585.702 400.787 568.786 416.469 560.579 422.154 c 0
 537.05 438.455 505.574 441.394 466.901 441.394 c 0
 457.389 441.394 447.534 441.229 437.462 441.125 c 0
 413.95 440.884 391.791 441.083 370.215 439.451 c 0
 369.262 439.38 365.52 439.223 364.007 439.223 c 0
 362.771 439.223 359.576 439.306 357.558 439.339 c 1
 352.34 434.795 345.883 427.476 339.205 421.89 c 0
 304.728 393.054 296.607 379.499 293.282 370.004 c 0
 293.214 369.807 292.791 368.422 292.687 368.026 c 0
 290.691 360.464 291.06 354.625 291.268 335.397 c 0
 291.981 278.708 295.802 220.778 290.362 160.651 c 0
 288.853 144.765 287.885 123.349 282.075 101.331 c 0
 279.504 91.583 275.73 81.4854 269.462 71.4551 c 0
 258.584 53.9248 234.103 35.4336 229.63 31.6709 c 0
 218.01 21.7373 204.647 10.9277 188.242 1.4082 c 0
 178.538 -4.19727 167.457 -10.5703 154.203 -15.6055 c 0
 145.358 -18.9229 125.715 -26.6152 108.719 -26.6152 c 0
 108.412 -26.6152 107.493 -26.6016 107.188 -26.5947 c 0
 98.9824 -26.3643 96.877 -25.918 92.0146 -24.2441 c 0
 88.1221 -23.0244 84.5303 -21.5996 81.8584 -19.1074 c 0
 79.7637 -16.8262 76.4355 -14.6846 73.8818 -5.91895 c 0
 70.584 6.74414 73.5576 22.5254 75.4268 29.6484 c 0
 82.5576 56.8174 88.1289 85.1191 95.8535 114.397 c 0
 107.648 159.108 118.163 204.184 129.61 249.686 c 0
 131.015 255.271 132.447 260.868 133.927 266.479 c 0
 144.698 307.309 158.056 349.02 182.272 391.479 c 0
 193.93 411.92 208.014 431.614 224.146 449.949 c 1
 210.978 453.383 194.607 459.817 185.077 472.312 c 0
 175.728 483.875 175.053 498.944 174.94 511.547 c 0
 175.135 528.051 177.576 544.945 182.019 561.786 c 0
 185.197 573.836 189.61 585.84 195.02 597.668 c 0
 200.596 609.738 203.799 616.812 210.286 625.359 c 0
 214.586 630.646 220.295 636.671 228.753 640.988 c 0
 238.009 645.935 238.903 646.149 244.543 647.888 c 0
 247.653 648.857 258.124 652.186 276.797 652.186 c 0
 278.75 652.186 280.613 652.152 282.398 652.102 c 1
 295.259 687.538 321.865 737.366 375.971 798.833 c 0
EndSplineSet
EndChar

StartChar: afii57665
Encoding: 225 1489 60
Width: 560
VWidth: 0
Flags: HW
HStem: -25.0626 14.7G<85.1669 99.4567>
LayerCount: 2
Back
Fore
SplineSet
444.181 455.398 m 1
 435.666 456.194 426.755 456.575 417.658 456.575 c 0
 405.754 456.575 393.53 455.938 381.477 454.823 c 0
 368.999 453.669 354.658 450.019 336.074 449.341 c 0
 334.782 449.293 330.917 449.235 329.635 449.235 c 0
 308.955 449.235 291.932 452.474 276.691 453.836 c 0
 257.227 455.574 239.919 453.824 224.335 460.139 c 0
 223.115 460.649 222.146 461.057 219.766 462.434 c 0
 218.858 462.957 217.892 463.438 215.431 465.32 c 0
 214.441 466.078 213.707 466.569 211.487 468.798 c 0
 188.826 491.563 191.952 524.93 199.402 553.172 c 0
 206.871 581.481 219.676 609.081 225.149 627.484 c 0
 228.981 640.368 234.17 665.795 247.522 683.654 c 0
 251.271 688.67 256.033 693.777 261.913 698.278 c 2
 262.551 698.766 l 1
 263.248 699.142 l 2
 272.021 703.878 276.51 708.603 294.402 710.367 c 0
 297.485 710.668 300.671 710.85 304.859 710.85 c 0
 315.567 710.85 326.009 709.842 331.363 709.842 c 2
 359.038 709.842 l 1
 353.564 686.81 l 2
 349.376 669.191 364.318 656.171 391.929 653.476 c 0
 406.382 652.064 421.781 651.858 438.055 651.858 c 0
 446.219 651.858 454.585 651.922 463.113 651.922 c 0
 469.364 651.922 475.707 651.889 482.129 651.763 c 0
 540.651 650.623 594.544 649.939 643.352 649.939 c 2
 669.742 649.939 l 1
 660.915 624.504 l 2
 647.696 586.409 625.854 546.919 602.946 512.729 c 0
 595.164 501.112 588.576 488.318 579.192 473.858 c 0
 571.967 462.721 570.686 460.985 569.795 459.569 c 1
 569.803 459.489 569.821 459.324 569.861 459.06 c 0
 570.655 453.713 576.191 441.687 578.021 433.884 c 0
 584.163 407.672 591.599 381.126 596.599 352.694 c 0
 601.361 325.62 599.814 295.462 591.859 265.305 c 0
 587.005 246.904 579.75 228.423 569.791 210.708 c 0
 546.793 169.797 508.728 132.272 490.748 115.377 c 0
 406 35.7441 271.43 -6.53613 153.25 -18.9971 c 0
 134.435 -20.9805 109.992 -25.0625 88.9209 -25.0625 c 0
 81.4131 -25.0625 73.7383 -24.5518 66.2578 -22.8906 c 0
 59.4707 -21.3809 50.1445 -19.626 42.4883 -12.9434 c 0
 37.8516 -8.89551 33.5312 -2.19824 33.3242 7.3125 c 0
 32.96 24.2295 37.0977 42.6191 39.4307 51.4561 c 0
 41.8096 60.4756 44.71 69.2529 47.9424 77.3848 c 0
 60.751 109.602 72.7451 151.879 110.726 174.842 c 2
 111.52 175.321 l 1
 112.363 175.634 l 2
 114.816 176.541 123.771 180.616 127.541 181.364 c 0
 135.127 182.871 140.491 182.356 144.629 182.531 c 0
 154.068 182.928 169.668 182.645 180.039 183.588 c 0
 191.669 184.645 202.831 184.92 213.516 184.92 c 0
 228.494 184.92 242.624 184.393 255.648 184.393 c 0
 302.181 184.393 349.773 185.409 393.657 193.54 c 0
 420.805 198.571 438.043 201.948 447.595 207.343 c 2
 447.595 207.343 448.529 207.88 448.543 207.893 c 0
 450.229 209.492 450.676 210.68 450.866 211.4 c 0
 451.635 214.319 450.795 219.406 447.759 225.998 c 0
 437.985 247.231 415.962 265.339 391.445 284.532 c 0
 382.145 291.813 373.742 295.398 366.554 303.441 c 0
 362.585 307.884 360.202 312.5 359.311 317.326 c 0
 358.919 319.445 359.028 325.412 359.941 328.873 c 0
 361.618 335.228 365.079 340.76 365.793 342.337 c 0
 369.364 350.223 376.704 366.847 388.812 382.601 c 0
 408.132 407.736 428.483 432.009 444.181 455.398 c 1
553.984 452.896 m 1
 555.631 451.553 559.111 450.56 561.947 449.845 c 1
 563.023 450.585 564.311 451.447 565.407 452.107 c 1
 553.984 452.896 l 1
EndSplineSet
EndChar

StartChar: afii57666
Encoding: 226 1490 61
Width: 521
VWidth: 0
Flags: HW
HStem: 106.705 138.505<288.021 359.886>
LayerCount: 2
Back
Fore
SplineSet
269.872 245.21 m 0
 322.099 245.21 370.267 225.204 406.29 206.953 c 1
 408.819 219.814 410.23 236.455 411.979 248.232 c 0
 423.33 324.705 428.407 398.784 387.213 442.887 c 0
 378.572 452.137 359.802 471.537 335.313 481.851 c 0
 314.712 490.527 288.452 495.889 275.263 516.477 c 0
 274.7 517.352 274.487 517.629 274.317 517.931 c 0
 274.188 518.158 273.871 518.75 273.701 519.083 c 0
 273.528 519.422 273.209 520.145 272.858 520.795 c 0
 272.376 521.688 272.23 521.999 272.099 522.313 c 0
 271.995 522.564 271.745 523.217 271.609 523.586 c 0
 271.474 523.968 271.239 524.766 270.948 525.503 c 0
 270.834 525.795 270.743 525.584 270.343 526.952 c 0
 270.248 527.278 269.985 528.181 269.567 530.761 c 0
 269.326 532.244 267.987 536.925 269.734 546.475 c 0
 269.906 547.417 270.544 550.254 270.794 551.199 c 0
 273.438 561.225 278.296 570.876 280.07 574.98 c 0
 295.383 610.397 320.684 644.909 357.103 673.478 c 0
 369.474 683.185 378.611 690.354 390.023 696.731 c 0
 398.904 701.694 409.952 706.594 422.342 707.693 c 0
 427.146 708.12 431.655 708.316 436.218 708.316 c 0
 502.318 708.316 545.967 665.934 570.252 631.952 c 0
 603.915 584.477 587.689 508.104 575.477 457.077 c 0
 551.577 357.214 525.727 257.479 499.447 157.867 c 2
 473.139 58.1582 l 2
 469.959 47.875 465.878 35.207 456.386 21.5674 c 0
 451.455 14.4824 444.267 6.34082 434.382 0.833008 c 0
 425.255 -4.24902 417.043 -4.86133 412.045 -4.86133 c 0
 411.163 -4.86133 406.866 -4.67871 406.12 -4.67871 c 2
 349.604 -4.67871 l 1
 372.184 80.9092 l 2
 373.75 86.8467 377.134 95.4346 378.16 99.665 c 0
 378.495 101.048 378.896 101.862 379.002 102.343 c 1
 378.81 103.056 379.255 103.932 375.988 105.021 c 0
 375.616 105.145 374.61 105.478 372.765 105.864 c 0
 370.316 106.378 367.06 106.705 363.515 106.705 c 0
 352.745 106.705 339.791 103.492 334.976 100.582 c 0
 296.559 77.3516 271.101 26.4785 212.188 1.44824 c 0
 185.586 -9.85352 157.49 -13.1738 131.766 -13.1738 c 0
 99.457 -13.1738 72.1074 -5.5 52.3438 6.62305 c 0
 35.5439 16.9277 14.1768 33.6182 16.9053 66.5547 c 2
 18.6377 87.4717 l 1
 40.5869 94.0498 l 2
 59.7549 99.7939 76.5449 111.082 86.6035 125.767 c 0
 98.6045 143.286 106.259 172.314 134.912 196.992 c 0
 147.713 207.681 162.703 216.231 177.753 223.613 c 0
 209.118 238.998 240.835 245.21 269.872 245.21 c 0
EndSplineSet
EndChar

StartChar: afii57667
Encoding: 227 1491 62
Width: 597
VWidth: 0
Flags: HW
LayerCount: 2
Back
Fore
SplineSet
225.209 677.512 m 2
 231.755 691.999 l 1
 317.522 691.999 l 1
 319.697 682.051 l 2
 319.786 671.541 324.928 656.292 335.266 652.789 c 0
 338.458 651.822 348.903 649.209 370.778 649.209 c 0
 370.971 649.209 371.553 649.21 371.746 649.21 c 0
 386.654 649.21 403.448 650.444 419.667 650.444 c 2
 687.148 650.444 l 2
 690.475 650.444 693.43 650.686 697.602 650.686 c 0
 721.497 650.686 729.414 639.853 731.829 629.46 c 0
 734.314 615.113 733.152 600.074 729.253 585.305 c 0
 720.153 550.805 700.875 520.054 680.01 498.865 c 0
 661.514 480.423 656.021 480.709 650.271 475.848 c 0
 649.523 476.624 649.496 476.963 649.49 477.271 c 0
 648.819 476.016 647.926 474.047 647.075 470.818 c 0
 644.698 461.812 642.919 445.39 639.903 433.961 c 0
 639.77 433.452 639.347 431.921 639.201 431.413 c 0
 631.096 403.38 618.771 375.819 607.649 350.666 c 0
 571.148 268.327 519.809 191.146 481.275 114.194 c 0
 466.849 85.4473 449.489 57.2441 431.582 30.2275 c 0
 426.883 23.333 417.287 3.81738 399.025 -9.98633 c 2
 398.737 -9.68555 l 1
 398.238 -9.99023 l 2
 393.68 -12.624 389.03 -16.9717 374.316 -21.3105 c 0
 362.815 -24.7217 351.4 -26.2178 340.705 -26.2178 c 0
 340.545 -26.2178 340.068 -26.2158 339.909 -26.2158 c 0
 337.942 -26.2021 332.095 -25.9434 330.188 -25.7549 c 0
 329.469 -25.6846 326.547 -25.3271 325.36 -25.1377 c 0
 324.604 -25.0195 321.757 -24.4873 320.533 -24.2012 c 0
 319.711 -24.0137 316.93 -23.2686 315.656 -22.8447 c 0
 300.463 -17.2275 290.228 -6.06445 285.266 -2.17969 c 0
 252.868 22.4932 225.647 50.3799 234.899 85.4482 c 0
 234.992 85.8008 235.284 86.8613 235.386 87.2148 c 0
 249.7 136.474 297.719 184.808 320.591 210.229 c 2
 466.948 370.127 l 2
 487.67 393.435 520.312 421.283 525.695 441.686 c 2
 525.797 442.061 l 1
 511.28 443.599 496.053 444.664 481.331 444.664 c 0
 473.485 444.664 465.862 444.328 458.808 443.584 c 0
 448.61 442.51 440.588 442.447 432.798 442.447 c 0
 431.714 442.447 430.666 442.448 429.589 442.448 c 0
 424.139 442.448 418.632 442.418 412.191 442.06 c 0
 371.982 439.82 331.987 437.988 291.932 436.552 c 0
 284.517 436.287 276.496 436.064 268.159 436.064 c 0
 240.38 436.064 206.972 437.762 184.681 456.336 c 0
 158.728 477.85 170.221 523.018 172.445 533.258 c 0
 173.521 538.184 174.707 543.069 175.987 547.922 c 0
 188.105 593.856 208.814 636.265 225.209 677.512 c 2
EndSplineSet
EndChar

StartChar: afii57668
Encoding: 228 1492 63
Width: 675
VWidth: 0
Flags: HW
HStem: 441.117 211.047<381.186 413.722 413.722 476.436 445.08 565.101>
LayerCount: 2
Back
Fore
SplineSet
263.071 700.826 m 0
 270.555 705.411 278.566 706.776 284.578 706.776 c 0
 285.487 706.776 289.619 706.538 290.105 706.538 c 0
 293.07 706.538 296.121 706.853 300.077 706.853 c 0
 300.497 706.853 301.753 706.839 302.171 706.825 c 0
 314.22 706.517 322.021 705.691 330.979 700.203 c 0
 334.863 697.818 336.404 696.227 336.813 695.672 c 0
 338.438 693.461 342.741 687.558 343.414 684.685 c 0
 345.514 675.725 344.505 676.713 344.529 671.267 c 1
 348.092 665.147 356.957 655.272 380.61 653.472 c 0
 392.864 652.538 405.747 652.164 419.075 652.164 c 0
 455.728 652.164 495.948 655.363 536.134 655.363 c 0
 593.213 655.363 652.964 649.209 696.165 612.25 c 0
 728.224 584.134 734.832 539.931 738.591 505.328 c 0
 744.555 450.489 737.275 391.417 721.889 333.103 c 0
 712.131 296.114 699.064 259.457 684.014 224.246 c 0
 672.065 196.292 658.732 168.545 643.667 141.207 c 0
 636.857 128.852 629.328 114.64 615.137 102.287 c 0
 614.704 101.911 613.426 100.75 610.697 98.6748 c 0
 609.503 97.7666 608.604 97.0576 605.921 95.2881 c 0
 604.727 94.501 603.888 93.9062 600.837 92.1836 c 0
 599.786 91.5898 599.276 91.2109 595.504 89.4092 c 0
 586.317 85.0195 575.371 82.251 563.175 82.251 c 0
 542.981 82.251 515.224 89.7139 503.697 108.48 c 0
 502.497 110.435 497.269 117.068 497.679 132.05 c 0
 497.809 136.827 498.576 141.533 499.774 146.074 c 0
 501.368 152.118 503.739 157.934 506.675 163.426 c 0
 519.55 187.523 543.481 209.027 560.742 227.938 c 0
 577.719 246.537 591.308 266.502 601.344 287.76 c 0
 606.961 299.657 611.632 312.186 614.849 324.382 c 0
 616.928 332.262 618.38 339.958 619.068 347.222 c 0
 620.082 357.954 619.609 367.958 617.018 376.545 c 0
 600.366 431.696 529.289 441.117 442.906 441.117 c 0
 422.994 441.117 403.216 440.665 384.599 440.586 c 0
 364.076 440.498 342.678 439.619 320.588 439.619 c 0
 310.995 439.619 300.547 439.343 289.665 439.343 c 0
 264.8 439.343 238.184 440.447 216.825 452.872 c 0
 185.854 470.887 184.734 499.292 189.832 532.405 c 0
 191.453 542.928 193.71 553.485 196.485 564.007 c 0
 202.886 588.27 212.06 612.304 222.666 635.424 c 0
 228.779 648.747 235.532 661.793 242.375 674.881 c 0
 244.922 679.748 246.231 682.732 247.376 684.633 c 0
 253.843 695.379 261.269 699.727 263.071 700.826 c 0
257.397 381.056 m 2
 250.296 340.678 253.281 289.085 283.927 257.057 c 0
 293.853 246.685 311.679 237.45 329.622 228.119 c 0
 353.202 215.855 406.624 213.063 428.165 181.614 c 0
 433.645 173.614 433.453 172.247 434.638 167.3 c 0
 435.122 165.278 435.398 163.449 435.531 162.43 c 0
 437.195 149.688 433.723 136.174 432.672 130.509 c 0
 429.943 115.85 427.023 100.098 422.727 83.8047 c 0
 418.32 67.1035 412.556 49.8623 403.906 32.7861 c 0
 400.298 25.6631 392.613 8.96289 378.987 -4.87305 c 0
 373.164 -10.7861 367.576 -14.8037 362.139 -17.7822 c 2
 361.36 -18.208 l 1
 360.541 -18.4834 l 2
 356.2 -19.9385 351.546 -23.3281 338.729 -24.9824 c 0
 337.704 -25.1152 334.636 -25.4375 333.616 -25.5273 c 0
 332.35 -25.6387 328.555 -25.9229 327.284 -26.0654 c 0
 320.903 -26.7734 314.633 -27.1055 308.503 -27.1055 c 0
 288.465 -27.1055 269.849 -23.6221 253.375 -17.8027 c 0
 222.147 -6.77148 190.203 10.3281 167.951 33.4316 c 0
 149.308 52.79 104.44 116.459 126.692 249.224 c 0
 129.147 263.878 132.319 278.795 136.275 293.79 c 0
 141.396 313.199 148.131 332.54 155.488 351.526 c 0
 159.729 362.471 161.253 370.699 167.308 380.979 c 0
 170.521 386.437 175.511 392.822 182.661 397.414 c 0
 190.234 402.273 196.474 403.715 204.571 403.715 c 0
 205.485 403.715 209.652 403.478 210.152 403.478 c 2
 261.34 403.478 l 1
 257.397 381.056 l 2
EndSplineSet
EndChar

StartChar: afii57669
Encoding: 229 1493 64
Width: 404
VWidth: 1
Flags: HW
VStem: 162.372 314.478<498.509 535.956 526.081 536.948 526.081 526.081>
LayerCount: 2
Back
Fore
SplineSet
274.278 194.02 m 0
 294.563 255.036 296.608 314.221 277.035 369.37 c 0
 264.926 403.632 235.494 433.635 207.475 457.799 c 0
 191.567 470.75 171.578 476.747 163.113 498.135 c 0
 160.914 506.101 160.406 515.66 162.372 526.081 c 0
 162.998 529.473 163.757 532.788 164.634 536.112 c 0
 170.745 559.277 188.616 597.303 235.544 648.215 c 0
 247.935 661.243 267.731 682.084 300.747 687.363 c 0
 308.602 688.54 316.077 688.668 323.219 688.668 c 0
 337.689 688.668 357.507 689.333 392.73 676.594 c 0
 440.654 659.104 462.98 627.438 472.518 598.178 c 0
 479.148 577.637 477.891 555.214 476.851 536.948 c 0
 474.82 503.697 468.643 470.049 459.864 436.775 c 0
 457.219 426.746 454.336 416.769 451.283 406.838 c 0
 424.089 318.371 401.443 228.339 368.721 137.561 c 0
 358.141 108.202 348.971 77.3721 336.327 45.0801 c 0
 332.326 34.9697 329.747 25.3848 324.246 15.5293 c 0
 323.11 13.5977 321.826 11.7021 321.157 10.7695 c 0
 320.673 10.1113 318.751 7.63379 317.021 5.80469 c 0
 316.441 5.24707 313.501 2.33398 310.546 0.683594 c 0
 305.496 -2.59277 299.372 -8.04395 282.396 -11.6826 c 0
 270.043 -14.4355 257.506 -14.4795 250.889 -14.4795 c 0
 248.112 -14.4795 239.136 -14.4062 236.101 -14.4062 c 2
 202.092 -14.4062 l 1
 206.682 2.98828 l 2
 223.539 66.8857 253.431 131.251 274.278 194.02 c 0
EndSplineSet
EndChar

StartChar: afii57670
Encoding: 230 1494 65
Width: 366
VWidth: 1
Flags: HW
HStem: -24.4296 14.7G<121.827 129.828>
LayerCount: 2
Back
Fore
SplineSet
458.049 698.326 m 2
 463.312 696.627 474.081 696.859 480.846 683.566 c 0
 486.567 672.325 485.414 656.475 485.84 649.487 c 0
 487.389 624.057 494.591 588.611 485.235 553.148 c 0
 483.166 545.305 480.239 537.314 476.27 529.245 c 0
 455.434 486.894 417.453 461.146 384.065 433.102 c 0
 359.14 412.675 351.887 409.904 345.725 400.274 c 0
 344.276 398.015 343.529 396.105 343.058 394.318 c 0
 340.436 384.378 344.275 380.988 350.321 355.199 c 2
 350.391 354.818 l 1
 350.409 354.418 l 2
 351.347 333.909 349.34 313.06 346.498 293.131 c 0
 343.798 274.189 339.756 255.393 334.847 236.781 c 0
 322.413 189.651 304.383 143.789 287.933 99.2227 c 0
 278.966 74.9346 268.742 51.9404 245.982 27.3857 c 0
 226.213 6.05664 208.31 -7.07617 180.565 -16.1816 c 0
 178.929 -16.7188 177.29 -17.2988 172.339 -18.6279 c 0
 152.992 -23.8232 135.403 -24.4297 124.254 -24.4297 c 0
 119.398 -24.4297 115.104 -24.2324 111.685 -24.0381 c 0
 109.734 -23.9277 103.939 -23.334 102.105 -22.9385 c 0
 89.6377 -20.2568 85.8535 -12.2158 85.0654 -10.4639 c 0
 82.248 -4.19434 82.8564 3.16602 84.4062 9.04297 c 0
 85.6885 13.9023 87.3408 17.3906 88.4453 20.1348 c 0
 91.7256 28.3037 93.5049 36.6689 97.6797 47.5957 c 0
 115.194 93.4385 129.523 142.365 142.045 189.714 c 0
 142.653 192.014 143.261 194.312 143.865 196.604 c 0
 163.836 272.302 182.21 345.707 186.847 417.828 c 0
 188.708 446.767 187.14 476.187 187.601 507.546 c 0
 187.815 522.106 187.911 539.232 192.943 558.303 c 0
 194.618 564.654 196.873 571.239 199.927 577.941 c 0
 214.23 609.33 241.08 625.354 257.893 637.194 c 0
 302.925 668.91 380.498 698.653 453.066 698.653 c 0
 453.717 698.653 455.663 698.629 456.309 698.613 c 2
 457.23 698.59 l 1
 458.049 698.326 l 2
EndSplineSet
EndChar

StartChar: afii57671
Encoding: 231 1495 66
Width: 636
VWidth: 1
Flags: HW
LayerCount: 2
Back
Fore
SplineSet
223.172 444.028 m 1
 209.478 451.752 194.527 464.607 190.957 483.243 c 0
 188.371 496.745 193.159 509.14 194.527 517.563 c 0
 196.103 527.262 198.214 536.765 200.673 546.086 c 0
 206.773 569.209 214.967 591.202 222.713 612.848 c 0
 229.048 630.557 236.84 647.531 242.918 663.222 c 0
 246.166 671.629 245.31 669.926 246.388 672.392 c 0
 253.781 689.296 265.496 695.489 274.069 697.771 c 0
 277.985 698.814 284.097 699.955 292.718 699.955 c 0
 299.679 699.955 309.642 698.979 313.177 698.979 c 0
 313.943 698.979 317.632 699.217 318.822 699.217 c 0
 324.552 699.217 331.385 698.785 337.411 695.23 c 0
 350.68 687.398 352.443 674.873 354.285 670.244 c 2
 354.407 669.955 l 1
 354.438 669.889 l 1
 357.45 666.086 361.803 663.911 383.671 661.217 c 0
 405.057 658.582 427.794 657.852 451.617 657.852 c 0
 475.819 657.852 501.277 658.936 527.288 658.936 c 0
 548.074 658.936 569.248 658.241 590.34 655.554 c 0
 617.33 652.114 657.519 646.35 680.365 621.589 c 0
 712.187 586.407 714.966 525.672 715.701 495.575 c 0
 716.842 449.167 710.682 399.311 697.454 349.18 c 0
 676.874 271.17 641.879 202.371 601.699 147.899 c 0
 563.129 95.6113 514.183 41.7734 439.5 18.4648 c 0
 418.532 11.9365 398.621 9.25977 380.188 7.76172 c 0
 377.502 7.54102 372.057 6.86719 366.794 6.86719 c 0
 360.092 6.86719 352.25 7.51855 345.555 11.5205 c 0
 340.139 14.7568 334.777 17.249 328.957 28.9492 c 0
 326.905 33.0752 325.801 36.2881 324.619 38.9043 c 0
 324.298 39.6133 322.522 43.6299 321.937 45.2109 c 0
 319.68 51.3066 318.114 59.417 320.716 69.2754 c 0
 321.168 70.9951 323.113 76.4004 324.321 78.9424 c 0
 346.793 126.236 405.126 139.257 439.061 155.304 c 0
 470.119 169.99 503.04 196.446 526.25 222.253 c 0
 555.684 254.975 575.994 293.321 586.063 331.489 c 0
 588.196 339.578 589.873 347.652 591.084 355.654 c 0
 595.031 381.711 594.432 400.294 581.681 415.568 c 0
 569.021 430.731 542.005 436.303 530.655 438.351 c 0
 509.786 442.152 487.257 443.49 463.706 443.49 c 0
 439.748 443.49 414.841 442.145 389.683 440.724 c 0
 385.178 440.47 380.705 440.349 376.438 440.349 c 0
 363.37 440.349 351.526 441.234 340.993 441.626 c 0
 340.826 441.632 340.656 441.639 340.491 441.646 c 1
 338.839 438.814 337.352 436.261 335.433 433.573 c 0
 322.103 414.939 310.822 397.656 307.084 383.483 c 0
 305.797 378.604 305.263 374.038 305.566 369.411 c 0
 307.562 339.078 301.824 308.703 301.542 283.534 c 0
 301.074 241.797 304.017 197.794 298.571 152.054 c 0
 297.143 140.058 297.214 121.896 292.191 102.859 c 0
 290.117 94.9971 287.092 86.6572 281.941 78.21 c 0
 273.938 65.0762 257.664 50.7227 254.624 47.8457 c 0
 202.262 -1.69043 157.34 -16.2158 142.73 -20.624 c 0
 136.432 -22.5508 123.438 -26.9453 111.809 -26.9453 c 0
 108.361 -26.9453 104.911 -26.5957 103.409 -26.1094 c 0
 98.8604 -24.6406 92.1035 -24.1094 83.3496 -13.9785 c 0
 74.7725 -4.18457 69.5479 11.3125 70.0488 23.5498 c 0
 70.1592 26.2197 70.9951 31.2715 71.4717 33.0762 c 0
 72.792 38.083 75.4932 44.3389 75.8555 45.5947 c 0
 79.0605 56.6494 81.9766 68.835 86.4307 82.0957 c 0
 95.4072 108.819 101.754 137.494 111.887 167.601 c 0
 127.511 214.022 140.861 261.396 157.053 309.496 c 0
 164.873 332.73 171.532 359.848 185.477 387.626 c 0
 196.216 409.02 208.746 425.309 223.172 444.028 c 1
EndSplineSet
EndChar

StartChar: afii57672
Encoding: 232 1496 67
Width: 763
VWidth: 0
Flags: HW
LayerCount: 2
Back
Fore
SplineSet
448.63 519.367 m 0
 449.355 522.116 451.35 526.825 452.501 528.559 c 0
 453.311 529.833 455.457 534.102 462.314 540.74 c 0
 464.229 542.576 465.052 543.272 466.012 544.101 c 0
 479.267 556.351 491.998 563.74 500.112 570.337 c 2
 601.072 653.47 l 1
 644.165 689.021 l 2
 655.569 698.841 657.516 699.893 661.226 702.093 c 0
 667.807 705.593 673.966 707.469 679.441 708.393 c 0
 681.508 708.75 687.916 709.345 690.923 709.345 c 0
 702.079 709.345 712.019 706.601 716.24 705.775 c 0
 738.094 701.533 766.99 692.57 787.36 672.479 c 0
 817.684 641.438 826.973 601.357 836.696 567.722 c 0
 838.957 560.023 845.278 542.206 846.496 525.213 c 0
 848.967 489.683 842.156 451.808 836.829 418.832 c 0
 833.364 397.652 828.779 375.938 822.99 353.992 c 0
 794.822 247.234 736.729 132.045 628.885 53.2266 c 0
 606.997 37.79 581.6 22.6699 552.413 10.4854 c 0
 494.483 -13.7686 432.772 -22.0898 376.098 -22.0898 c 0
 359.994 -22.0898 344.276 -21.3926 329.1 -20.1514 c 0
 308.686 -18.499 288.977 -15.3672 270.448 -10.249 c 0
 270.052 -10.1582 269.57 -10.0361 269.024 -9.89062 c 1
 267 -16.498 l 2
 259.889 -31.4854 253.279 -45.9814 243.854 -62.334 c 0
 241.966 -65.5273 238.335 -72.0674 233.635 -78.082 c 0
 227.775 -85.1328 221.065 -90.2969 214.541 -93.8496 c 0
 212.159 -95.0957 202.07 -100.557 186.019 -100.557 c 0
 177.444 -100.557 178.507 -99.9492 174.263 -99.6475 c 0
 161.992 -98.7559 143.578 -96.1914 131.426 -95.7627 c 2
 95.8633 -94.5088 l 1
 111.689 -70.0088 l 2
 156.829 7.65234 190.198 89.457 252.766 170.799 c 1
 257.086 182.984 260.932 195.195 264.147 207.384 c 0
 279.607 265.99 282.785 324.38 265.977 379.615 c 0
 258.974 402.626 251.285 426.41 235.886 443.192 c 2
 235.473 443.644 l 1
 235.184 444.17 l 2
 227.567 457.447 216.403 470.71 205.769 485.572 c 0
 199.578 495.389 192.56 505.304 184.963 514.855 c 0
 178.777 523.031 180.081 520.728 178.425 523.157 c 0
 175.769 527.854 173.296 533.798 173.175 542.026 c 0
 173.15 544.571 173.983 551.429 175.045 555.451 c 0
 176.369 560.475 178.18 564.188 179.158 566.881 c 0
 191.791 601.767 217.168 629.013 238.8 652.049 c 0
 247.994 661.849 256.75 672.836 270.963 683.785 c 0
 294.362 701.029 331.149 705.544 355.375 705.544 c 0
 377.772 705.544 391.133 702.961 398.307 700.707 c 0
 404.587 698.85 408.644 697.092 413.412 690.362 c 0
 417.225 683.771 419.016 675.872 420.177 672.143 c 0
 425.714 653.133 429.737 633.432 431.339 612.286 c 0
 436.355 543.538 430.315 470.381 416.377 398.745 c 0
 403.432 331.642 385.258 265.326 372.38 200.553 c 1
 389.853 198.073 405.452 194.846 419.959 193.576 c 0
 437.326 192.066 455.104 191.053 472.853 191.053 c 0
 521.61 191.053 569.089 198.494 610.079 220.385 c 0
 666.055 250.139 703.85 298.273 716.163 344.944 c 0
 727.734 388.814 719.124 430.818 685.011 459.438 c 0
 673.734 465.51 660.457 470.548 646.338 473.868 c 0
 626.536 480.517 612.322 481.725 603.662 481.725 c 2
 602.577 481.719 l 2
 566.445 481.414 536.893 469.977 484.396 456.592 c 2
 459.803 448.732 l 1
 452.815 467.252 l 2
 449.369 476.384 443.132 498.521 448.63 519.367 c 0
EndSplineSet
EndChar

StartChar: afii57673
Encoding: 233 1497 68
Width: 367
VWidth: 2
Flags: HW
VStem: 167.114 323.788<506.33 523.633 555.801 562.463 523.633 555.801 555.801 555.801>
LayerCount: 2
Back
Fore
SplineSet
246.339 678.938 m 1
 352.608 690.652 l 1
 338.504 676.09 l 1
 335.921 671.154 335.304 670.585 335.014 670.133 c 1
 333.769 657.16 333.542 647.136 335.519 643.318 c 0
 351.75 614.68 410.403 606.921 446.135 585.539 c 0
 470.519 571.961 491.57 552.121 490.901 523.633 c 0
 490.772 517.45 489.588 511.511 488.153 506.075 c 0
 485.732 496.901 482.875 488.377 480.345 480.731 c 0
 455.043 404.637 406.28 331.83 342.92 272.643 c 2
 342.54 272.312 l 1
 342.129 272.015 l 2
 325.015 261.233 306.571 250.654 286.794 240.782 c 2
 284.121 240.329 l 1
 281.102 240.782 l 2
 274.152 241.854 266.483 243.002 254.683 243.641 c 1
 248.598 243.011 243.427 242.818 238.723 242.818 c 0
 232.166 242.818 225.475 242.941 219.734 243.985 c 0
 204.356 241.723 206.576 242.127 202.217 241.006 c 1
 197.676 240.174 193.401 239.231 191.109 238.852 c 2
 187.74 238.295 l 1
 185.556 240.062 l 2
 178.881 245.469 177.698 246.423 175.786 248.265 c 0
 174.857 249.158 173.031 251.114 172.372 251.974 c 2
 172.164 252.246 l 1
 171.997 252.543 l 2
 171.309 253.769 170.294 256.265 170.003 257.203 c 0
 169.433 259.025 168.871 262.287 168.771 263.615 c 0
 168.572 266.233 169.195 270.986 169.681 272.829 c 2
 170.092 274.388 l 1
 171.128 275.797 l 2
 173.567 279.113 178.016 288.688 182.594 292.826 c 2
 182.997 293.176 l 1
 183.435 293.486 l 2
 189.443 297.725 193.379 299.376 195.935 300.866 c 0
 209.238 308.622 222.896 317.759 236.593 327.194 c 0
 246.521 334.033 303.819 371.755 311.656 401.461 c 0
 312.264 403.763 313.147 407.71 312.015 412.571 c 1
 309.167 414.079 301.625 417.686 282.159 422.7 c 0
 244.034 432.522 202.164 438.84 178.309 455.563 c 2
 177.703 455.988 l 1
 177.258 456.569 l 2
 158.171 481.627 156.856 516.915 167.114 555.801 c 0
 176.479 591.304 200.955 627.707 212.243 644.438 c 0
 219.478 655.482 230.849 671.28 235.626 680.226 c 2
 238.827 683.903 l 1
 246.339 678.938 l 1
EndSplineSet
EndChar

StartChar: afii57674
Encoding: 234 1498 69
Width: 560
VWidth: 0
Flags: HW
HStem: 442.538 212.58<418.301 485.644>
LayerCount: 2
Back
Fore
SplineSet
485.644 442.538 m 1
 302.476 442.538 l 2
 289.418 442.538 274.135 441.748 258.036 441.748 c 0
 233.147 441.748 208.932 443.641 190.486 458.571 c 0
 158.594 484.386 166.46 518.482 175.918 554.336 c 2
 176.305 555.799 l 2
 183.076 581.468 190.6 606.994 200.521 632.956 c 0
 204.455 643.25 209.396 653.141 213.312 662.635 c 0
 217.13 671.889 217.829 673.289 219.477 675.709 c 0
 219.611 675.909 219.843 676.244 220.175 676.7 c 0
 221.48 678.497 225.563 682.839 228.282 684.854 c 2
 229.592 685.823 l 1
 231.069 686.299 l 2
 234.52 687.41 243.171 691.993 248.249 692.771 c 0
 252.392 693.405 256.849 693.525 257.841 693.636 c 0
 270.547 695.044 282.5 696.116 293.741 697.674 c 2
 322.16 702.121 l 1
 321.423 682.083 l 2
 320.636 660.651 356.416 649.731 416.311 649.731 c 2
 416.79 649.732 l 2
 448.88 649.732 490.664 655.118 527.879 655.118 c 0
 566.521 655.118 601.633 647.946 623.598 621.931 c 0
 628.004 616.646 634.142 607.459 639.688 590.528 c 0
 644.514 575.797 644.495 560.422 643.526 546.744 c 0
 642.699 535.017 640.499 523.368 637.521 512.076 c 0
 619.383 443.324 566.542 377.029 550.349 315.644 c 0
 549.604 312.822 549.104 310.703 548.643 308.588 c 0
 537.477 257.311 531.784 205.032 524.413 151.959 c 0
 516.963 98.3174 508.733 44.8408 501.908 -8.09277 c 0
 497.08 -45.1299 491.34 -82.1514 485.173 -119.098 c 0
 482.841 -133.073 481.103 -149.307 476.471 -166.864 c 0
 476.107 -168.24 474.936 -172.369 474.51 -173.744 c 0
 459.438 -222.586 426.339 -266.81 383.785 -300.116 c 0
 340.553 -333.671 308.439 -338.195 283.679 -338.195 c 0
 282.16 -338.195 282.453 -338.237 280.63 -338.237 c 0
 279.797 -338.237 277.303 -338.087 276.548 -337.902 c 0
 267.699 -335.727 258.77 -336.372 250.09 -324.067 c 0
 244.843 -316.635 239.237 -301.856 243.647 -272.665 c 0
 244.831 -264.833 246.593 -257.181 248.544 -249.784 c 0
 252.087 -236.355 256.248 -223.652 259.247 -212.287 c 0
 267.181 -182.215 274.172 -151.542 282.317 -120.503 c 0
 303.527 -39.6631 323.823 41.165 345.229 122.302 c 2
 349.319 137.823 l 1
 349.535 138.333 l 2
 383.4 218.313 405.106 298.905 448.311 381.682 c 0
 459.515 403.145 472.326 423.162 485.644 442.538 c 1
EndSplineSet
EndChar

StartChar: afii57675
Encoding: 235 1499 70
Width: 560
VWidth: 1
Flags: HW
LayerCount: 2
Back
Fore
SplineSet
291.924 706.496 m 0
 303.226 705.432 312.127 700.574 314.327 698.799 c 0
 314.592 698.692 315.059 698.486 315.496 698.244 c 0
 322.832 689.583 318.848 683.391 318.873 679.759 c 0
 318.319 672.232 318.961 667.582 319.848 665.139 c 0
 321.308 661.247 330.099 652.954 351.467 648.179 c 0
 366.599 645.275 383.911 644.412 402.624 644.412 c 0
 416.892 644.412 431.997 644.84 447.52 644.84 c 0
 476.319 644.84 507.166 643.515 535.747 633.654 c 0
 554.17 627.344 584.804 612.59 604.671 579.167 c 0
 636.649 523.594 626.538 453.798 616.459 401.174 c 0
 614.228 389.628 611.605 378.078 608.561 366.536 c 0
 585.739 280.038 538.809 194.346 465.988 121.312 c 0
 465.358 119.874 465.737 120.618 465.304 119.421 c 0
 464.994 118.922 464.992 118.91 464.845 118.669 c 0
 462.847 115.995 461.025 113.291 455.832 109.622 c 0
 369.688 40.0771 260.308 8.78906 186.387 -3.72168 c 0
 155.036 -9.06738 124.936 -11.7324 96.5186 -13.4336 c 0
 88.5371 -13.9326 82.625 -14.8662 73.5781 -14.8662 c 0
 69.9443 -14.8662 65.9951 -14.6709 62.0967 -14.1523 c 2
 61.1689 -14.0186 l 1
 60.2461 -14.1523 l 2
 55.2695 -12.0703 45.0518 -11.1523 39.3027 1.18359 c 0
 34.0469 14.1338 37.3066 28.4619 39.2539 40.1777 c 0
 40.2588 46.0469 39.6328 57.7021 42.7139 69.3857 c 0
 42.7871 69.6582 43.0078 70.4678 43.084 70.7402 c 0
 48.6406 90.2744 56.1562 103.039 62.6133 121.43 c 0
 67.5449 135.708 74.0967 154.723 90.2725 171.388 c 0
 94.627 176.01 99.6309 180.36 105.187 184.124 c 0
 130.048 200.597 150.771 198.176 178.825 199.899 c 0
 218.959 202.135 259.936 205.721 299.569 211.821 c 0
 381.162 223.151 427.867 250.365 449.556 268.564 c 0
 460.108 278.235 469.608 288.977 476.504 299.394 c 0
 481.457 306.877 483.886 313.721 489.796 329.179 c 0
 491.82 334.473 493.614 339.99 495.091 345.591 c 0
 506.033 387.067 498.523 423.907 462.724 436.156 c 0
 441.822 443.309 417.514 445.529 390.438 445.529 c 0
 359.213 445.529 324.645 442.47 289.671 442.47 c 0
 281.364 442.47 273.025 442.651 264.698 443.118 c 0
 249.537 443.969 196.189 445.046 174.245 467.35 c 0
 170.252 471.272 156.488 487.542 157.945 521.16 c 0
 158.681 533.968 161.088 546.616 164.324 558.884 c 0
 171.356 585.54 182.613 610.652 190.739 632.933 c 0
 195.24 645.186 200.421 657.813 209.789 673.405 c 0
 215.023 681.897 215.988 683.747 218.586 686.822 c 0
 220.227 688.584 223.453 691.34 224.824 692.332 c 2
 225.668 691.728 l 1
 227.201 692.332 l 2
 231.35 694.165 240.336 699.215 244.866 700.546 c 0
 245.205 700.595 245.908 700.686 246.584 700.742 c 0
 249.9 701.288 253.327 701.484 254.093 701.582 c 0
 264.188 702.919 274.568 704.459 284.994 705.978 c 0
 286.782 706.216 290.565 706.636 291.924 706.496 c 0
EndSplineSet
EndChar

StartChar: afii57676
Encoding: 236 1500 71
Width: 482
VWidth: 1
Flags: HW
LayerCount: 2
Back
Fore
SplineSet
540.38 491.874 m 0
 547.258 451.16 539.409 410.355 530.998 371.211 c 0
 529.44 364.001 527.652 356.769 525.76 349.596 c 0
 497.968 244.25 433.844 138.188 333.628 56.8691 c 0
 317.107 43.9424 296.243 29.7861 272.265 17.8896 c 0
 249.354 6.40625 212.232 -9.3584 151.737 -24.8398 c 0
 135.666 -28.9287 101.354 -36.6094 71.457 -36.6094 c 0
 66.3623 -36.6094 60.9863 -36.3428 55.998 -35.7275 c 0
 55.5527 -35.6758 46.7383 -35.3193 38.5781 -31.9404 c 2
 38.0225 -31.6768 l 1
 37.3916 -31.9404 l 2
 26.2695 -24.0693 24.0928 -11.8955 25.1172 2.91895 c 0
 25.5576 8.46582 26.75 14.0664 28.1787 19.4814 c 0
 35.1904 46.0605 47.1641 71.585 55.9805 92.793 c 0
 60.8701 104.649 69.1348 130.25 84.8838 151.082 c 0
 86.7793 153.666 94.7441 167.898 111.57 179.651 c 0
 127.849 191.093 146.254 194.169 154.301 195.52 c 0
 181.203 199.635 207.837 203.745 233.609 208.881 c 0
 261.006 214.237 287.151 219.65 308.059 227.702 c 0
 357.395 245.88 391.448 279.479 404.841 309.436 c 0
 405.744 311.518 406.419 313.708 407.067 316.167 c 0
 408.873 323.007 409.501 329.898 409.719 333.264 c 0
 413.114 385.611 363.978 406.742 293.912 435.45 c 0
 276.289 442.67 258.361 450.184 240.758 459.076 c 1
 230.108 455.99 228.506 455.51 225.616 454.436 c 2
 220.755 452.629 l 1
 218.044 455.697 l 2
 212.592 460.68 209.903 466.091 208.293 471.613 c 0
 204.617 492.432 208.043 513.371 212.616 530.706 c 0
 217.739 550.124 225.907 567.776 229.894 580.795 c 0
 244.056 627.072 255.267 675.52 271.515 724.507 c 0
 277.295 741.972 283.99 758.527 287.712 772.632 c 0
 288.904 777.154 289.516 781.256 289.468 784.868 c 0
 289.416 793.849 284.46 804.167 259.172 823.55 c 2
 258.781 823.886 l 1
 258.67 825.055 l 2
 251.694 835.148 238.423 847.924 235.57 866.873 c 2
 235.515 867.195 l 1
 235.67 868.203 l 2
 235.446 875.63 236.256 882.434 237.549 888.72 c 0
 238.345 892.64 239.223 896.56 240.243 900.431 c 0
 246.481 924.07 260.189 947.408 271.11 965.419 c 0
 273.923 969.857 276.976 977.9 286.636 985.648 c 2
 287.266 985.068 l 1
 288.452 985.648 l 2
 289.545 986.181 292.195 987.014 294.073 987.924 c 0
 306.024 993.3 320.853 997.29 336.943 997.29 c 0
 368.006 997.29 404.672 977.704 420.634 971.159 c 0
 431.723 966.602 444.089 961.618 456.447 954.779 c 0
 460.702 952.532 485.85 942.837 493.366 928.354 c 2
 494.013 927.388 l 2
 495.056 926.506 495.955 925.47 496.54 924.035 c 0
 496.889 922.957 497.035 921.795 497.055 921.145 c 0
 497.056 920.318 496.881 918.778 496.789 918.218 c 0
 496.633 917.308 496.272 915.754 496.11 915.145 c 0
 491.701 898.429 483.353 881.629 479.797 873.312 c 0
 474.503 861.07 474.462 857.808 467.914 842.485 c 2
 387.237 646.9 l 1
 403.752 643.184 423.44 637.251 442.284 627.768 c 0
 508.906 594.156 532.745 536.652 540.38 491.874 c 0
EndSplineSet
EndChar

StartChar: afii57677
Encoding: 237 1501 72
Width: 675
VWidth: 1
InSpiro: 1
Flags: HW
LayerCount: 2
Back
Fore
SplineSet
362.877 702.807 m 1
 350.05 687.216 l 1
 349.805 674.542 370.078 669.067 388.339 667.578 c 0
 423.177 664.735 460.959 663.399 497.449 663.399 c 0
 500.968 663.399 504.775 663.418 508.32 663.456 c 0
 526.513 663.649 546.387 664.906 567.021 664.906 c 0
 574.325 664.906 581.743 664.749 589.21 664.299 c 0
 609.365 663.084 655.972 661.854 688.542 644.432 c 0
 717.913 628.723 732.095 603.784 740.705 579.418 c 0
 755.062 538.775 759.724 494.05 756.077 447.851 c 0
 753.592 416.446 747.74 384.326 739.291 352.302 c 0
 729.862 316.554 717.178 280.908 702.205 246.45 c 0
 667.655 166.973 610.995 76.9199 513.219 19.708 c 0
 455.407 -13.8057 388.214 -29.0439 326.091 -29.0439 c 0
 276.944 -29.0439 230.861 -18.5703 193.683 1.95312 c 0
 159.276 20.9453 129.333 52.1904 114.361 96.5752 c 0
 95.8818 151.359 102.566 213.078 115.194 271.198 c 0
 116.015 274.972 116.943 278.787 117.951 282.609 c 0
 126.697 315.762 147.258 368.611 186.154 415.235 c 0
 198.748 430.332 213.067 443.854 226.344 456.465 c 1
 224.03 457.725 l 2
 183.682 480.461 189.711 525.611 195.252 546.617 c 0
 196.926 552.964 199.073 559.275 201.617 565.486 c 0
 216.895 602.77 235.748 638.67 248.783 672.335 c 1
 241.664 679.172 l 1
 255.854 691.978 l 1
 260.192 704.487 l 1
 270.678 705.355 l 1
 282.211 715.764 l 1
 291.037 706.748 l 1
 313.939 708.736 l 2
 320.831 709.653 324.789 709.975 327.469 709.975 c 0
 327.701 709.975 328.213 709.947 328.659 709.919 c 2
 356.218 712.047 l 1
 354.347 704.956 l 1
 362.877 702.807 l 1
437.798 446.333 m 2
 428.87 448.98 418.998 450.321 408.723 450.321 c 0
 391.761 450.321 373.719 446.628 357.266 439.7 c 0
 330.506 428.433 306.24 407.626 292.988 384.988 c 2
 265.799 324.019 l 1
 253.552 269.869 l 1
 269.896 225.526 l 1
 271.771 223.239 273.824 220.968 276.021 218.702 c 0
 282.012 212.523 288.521 205.858 294.514 198.037 c 0
 296.853 194.986 298.476 193.159 299.814 192.37 c 0
 300.696 191.851 301.456 191.507 307.93 189.274 c 0
 317.021 186.139 324.312 182.236 330.596 179.003 c 0
 332.622 177.96 334.625 176.984 336.613 176.086 c 1
 402.815 168.248 l 1
 444.899 166.491 l 1
 498.377 184.473 l 1
 556.835 214.334 l 1
 595.639 249.269 l 1
 624.33 297.217 l 1
 637.196 361.77 l 1
 629.563 400.286 l 1
 608.45 431.016 l 1
 571.408 439.285 l 1
 502.995 445.34 l 1
 441.335 445.283 l 1
 437.798 446.333 l 2
EndSplineSet
EndChar

StartChar: afii57678
Encoding: 238 1502 73
Width: 763
VWidth: 0
Flags: HW
LayerCount: 2
Back
Fore
SplineSet
656.691 673.4 m 0
 762.951 673.4 815.598 604.765 826.448 536.692 c 0
 834.778 482.167 827.722 424.151 812.658 367.049 c 0
 804.006 334.264 792.778 301.725 780.171 270.124 c 0
 758.758 216.806 731.654 163.945 689.493 114.301 c 0
 652.244 70.543 598.491 30.8877 532.907 4.78516 c 0
 486.892 -13.4229 459.462 -16.5469 442.137 -16.5469 c 0
 440.131 -16.5469 434.166 -16.3252 432.2 -16.1924 c 0
 413.564 -14.9297 401.61 -14.1064 388.996 -9.99512 c 0
 387.853 -9.63965 385.8 -8.97852 383.392 -7.99414 c 0
 382.256 -7.53906 380.219 -6.69531 377.841 -5.41797 c 0
 377.373 -5.20215 374.482 -4.20508 371.966 -2.15332 c 0
 364.847 4.84375 364.46 4.84668 361.597 10.5713 c 0
 353.571 27.541 359.519 48.542 360.573 56.46 c 0
 361.058 60.0547 361.15 64.6543 362.785 70.8535 c 0
 364.11 75.875 365.799 81.5762 369.712 87.6738 c 0
 371.874 90.9521 373.907 94.9922 382.553 103.005 c 0
 383.309 103.687 385.625 105.676 386.407 106.321 c 0
 388.846 108.268 391.358 110.118 392.612 111.044 c 0
 424.732 134.593 463.063 142.91 490.759 150.323 c 0
 535.013 161.424 567.341 170.062 596.7 187.148 c 0
 642.488 213.381 671.892 252.562 684.623 300.754 c 2
 685.622 304.532 l 2
 691.354 326.263 691.938 333.972 691.452 340.749 c 0
 690.607 352.531 685.958 371.425 670.365 394.898 c 0
 663.706 404.922 648.282 428.609 624.771 436.521 c 0
 603.981 443.518 581.116 446.821 557.097 446.821 c 0
 530.266 446.821 502.001 442.668 474.061 434.931 c 0
 462.768 431.802 451.753 428.268 440.991 424.327 c 1
 440.465 419.494 440.115 414.578 438.792 409.554 c 0
 437.59 404.993 436.389 400.419 435.178 395.832 c 0
 429.645 374.857 423.846 353.649 417.235 332.264 c 0
 395.248 261.287 364.14 188.612 303.564 116.983 c 0
 275.891 82.4707 248.555 41.5957 205.439 8.39551 c 0
 170.297 -17.8838 142.127 -26.4883 125.648 -29.0791 c 0
 119.326 -30.043 113.458 -30.3555 108.093 -30.3555 c 0
 97.6221 -30.3555 87.334 -29.0283 75.2236 -25.4854 c 0
 62.9121 -22.0254 48.0127 -16.1475 39.04 -3.04102 c 0
 36.6826 0.180664 34.7168 3.99902 33.6045 8.42285 c 0
 31.1396 19.0166 34.3418 30.5029 35.5566 35.1094 c 0
 37.0791 40.8799 37.1797 40.9121 38.1201 44.4736 c 0
 38.3896 45.501 38.6416 46.5283 39.0029 47.8994 c 0
 39.0576 48.1094 39.2285 48.7393 39.2881 48.9492 c 0
 40.377 52.7734 41.5264 57.4141 43.9443 63.3594 c 0
 44.3594 64.3994 45.9521 68.0527 46.792 69.749 c 0
 47.7666 71.7314 49.958 75.6045 50.7471 76.8633 c 0
 52.1367 79.1074 55.0332 83.1094 56.2275 84.5723 c 0
 73.3311 103.877 97.6807 117.508 108.345 125.21 c 0
 131.212 141.304 154.462 159.329 188.949 178.374 c 0
 214.246 191.776 274.534 229.763 294.87 306.844 c 0
 297.91 318.368 299.782 329.645 300.629 340.297 c 0
 304.108 384.082 281.36 417.84 246.898 441.555 c 0
 227.741 452.998 215.595 465.214 203.521 477.736 c 0
 195.078 489.314 184.937 504.365 186.384 525.093 c 0
 186.539 526.959 187.402 532.209 188.145 535.02 c 0
 190.59 544.288 196.695 553.631 199.194 558.188 c 0
 211.561 581.211 228.201 603.381 247.703 622.937 c 0
 253.959 629.129 272.021 649.072 297.581 660.472 c 2
 297.958 660.312 l 1
 298.445 660.473 l 2
 309.147 663.904 331.107 669.94 360.66 669.94 c 0
 395.061 669.94 412.294 661.049 421.592 652.133 c 0
 448.566 624.397 452.816 586.102 455.528 556.522 c 2
 455.787 547.442 l 1
 458.618 550.68 l 2
 484.231 579.235 512.912 608.853 546.936 636.15 c 0
 560.842 647.012 572.945 658.169 590.064 665.637 c 0
 590.317 665.773 591.059 666.252 591.308 666.399 c 0
 591.601 666.499 592.487 666.785 592.787 666.873 c 0
 593.157 666.979 594.287 667.266 594.668 667.35 c 0
 595.106 667.451 596.354 667.698 596.89 667.786 c 0
 613.05 671.528 609.215 670.966 617.133 671.468 c 0
 618.342 671.547 620.928 671.662 622.093 671.698 c 0
 626.6 671.867 628.89 671.854 630.906 672.085 c 0
 639.74 672.969 648.337 673.4 656.691 673.4 c 0
EndSplineSet
EndChar

StartChar: afii57679
Encoding: 239 1503 74
Width: 355
VWidth: 0
Flags: HW
LayerCount: 2
Back
Fore
SplineSet
185.839 493.098 m 2
 185.722 493.417 l 1
 185.819 494.408 l 2
 180.715 519.554 185.998 542.771 190.177 563.232 c 0
 191.731 570.895 193.5 578.582 195.536 586.301 c 0
 202.099 611.175 212.043 636.252 224.889 660.223 c 0
 230.696 671.022 237.398 681.742 244.863 692.164 c 0
 245.528 693.061 247.664 696.312 250.593 699.605 c 2
 251 698.811 l 1
 252.161 699.605 l 2
 256.765 702.107 261.29 703.269 263.664 703.78 c 0
 271.273 705.656 276.932 705.866 281.349 705.866 c 0
 282.461 705.866 283.414 705.852 284.415 705.852 c 0
 285.477 705.852 286.216 705.705 287.307 705.929 c 0
 297.966 707.028 309.793 708.54 322.476 708.54 c 2
 345.886 708.54 l 1
 346.622 708.54 l 2
 339.963 663.932 392.107 642.971 417.128 607.714 c 1
 421.084 604.768 441.929 589.946 442.759 571.28 c 0
 443.13 557.853 440.517 543.949 436.963 530.486 c 0
 428.737 499.304 415.296 468.693 403.324 442.159 c 0
 373.115 375.208 337.203 310.164 317.947 247.487 c 0
 316.509 242.802 315.171 238.098 313.923 233.368 c 0
 309.882 218.053 307.135 202.725 305.796 187.949 c 0
 304.037 169.742 305.451 160.876 302.558 142.577 c 0
 291.171 70.1279 281.69 -2.47949 270.238 -75.7666 c 0
 264.972 -109.364 262.808 -145.436 254.462 -183.258 c 0
 254.159 -184.621 253.142 -188.735 252.781 -190.1 c 0
 241.553 -232.662 203.544 -271.081 167.034 -296.514 c 0
 159.754 -301.592 141.609 -314.91 123.164 -321.828 c 0
 113.92 -325.178 98.0752 -328.399 75.0068 -328.399 c 0
 74.6758 -328.399 72.9746 -328.557 71.6475 -328.557 c 0
 71.2764 -328.557 70.6494 -328.487 70.2852 -328.472 c 0
 63.6895 -328.227 60.6152 -328.239 54.5576 -327.113 c 0
 52.9941 -326.786 49.625 -326.583 48.4795 -326.365 c 2
 46.7266 -326.043 l 1
 45.2119 -326.366 l 2
 44.1094 -325.459 40.0859 -323.276 37.9268 -317.871 c 0
 34.1543 -306.123 38.4111 -290.298 40.2129 -283.47 c 0
 41.4062 -278.945 42.3613 -275.585 43.2158 -272.348 c 0
 54.4355 -229.815 64.75 -187.058 76.1572 -143.817 c 2
 144.229 114.207 l 2
 150.615 138.419 156.201 163.299 162.918 188.764 c 0
 170.422 217.209 179.357 246.46 192.816 276.233 c 0
 218.064 332.085 254.933 373.202 287.872 422.539 c 1
 261.891 437.36 l 2
 237.396 447.894 198.456 461.936 185.839 493.098 c 2
EndSplineSet
EndChar

StartChar: afii57680
Encoding: 240 1504 75
Width: 443
VWidth: 1
Flags: HW
LayerCount: 2
Back
Fore
SplineSet
453.823 627.48 m 0
 508.025 593.876 518.462 539.193 511.163 473.427 c 0
 507.062 437.598 500.061 400.373 490.174 362.901 c 0
 462.752 258.956 409.15 136.709 289.202 49.165 c 0
 202.521 -11.5332 127.796 -26.1777 90.0752 -31.0908 c 0
 84.0156 -31.9336 71.4414 -35.8389 59.8018 -35.8389 c 0
 57.5605 -35.8389 56.793 -37.542 56.9199 -36.1475 c 2
 55.2598 -36.418 l 1
 53.6885 -36.1475 l 2
 42.3262 -34.5186 24.5537 -32.6562 19.2725 -16.2529 c 2
 19.1963 -15.916 l 1
 18.9795 -16.2529 l 2
 17.9287 -8.21191 19.1006 -0.0703125 19.6689 3.77246 c 0
 20.3184 8.08398 21.2461 12.335 22.3389 16.4805 c 0
 30.04 45.6699 43.1592 71.5029 51.1846 94.3105 c 0
 55.8506 107.676 64.9014 140.39 84.209 164.456 c 2
 84.6426 165.412 l 1
 84.9375 165.714 l 2
 91.8281 173.318 99.1523 184.582 118.681 191.769 c 0
 124.002 193.65 128.177 194.225 131.388 195.09 c 0
 151.202 200.184 174.539 206.14 198.823 211.334 c 0
 241.948 219.128 295.004 228.074 326.04 246.828 c 1
 338.673 258.405 348.351 272.809 358.604 289.61 c 0
 366.508 302.559 372.964 316.665 376.558 330.292 c 0
 381.396 348.632 382.839 372.054 369.283 390.613 c 0
 358.07 405.962 338.778 417.886 315.13 426.337 c 0
 285.959 436.762 253.258 445.898 222.841 458.765 c 1
 214.073 458.005 207.319 457.547 200.822 456.719 c 2
 197.244 456.265 l 1
 195.47 458.764 l 2
 191.379 463.152 189.134 467.802 187.445 472.552 c 0
 184.143 488.095 188.103 507.365 189.627 516.261 c 0
 190.44 521.026 191.45 525.67 192.679 530.327 c 0
 197.268 547.724 210.229 573.912 253.766 613.692 c 0
 263.015 622.05 272.042 632.093 288.938 639.526 c 2
 289.382 639.335 l 1
 289.965 639.524 l 2
 291.762 640.113 293.272 640.415 295.667 641.209 c 0
 326.213 650.808 360.199 648.988 378.288 649.847 c 0
 379.192 649.884 381.961 649.906 382.855 649.906 c 0
 411.156 649.906 436.681 637.494 453.823 627.48 c 0
EndSplineSet
EndChar

StartChar: afii57681
Encoding: 241 1505 76
Width: 675
VWidth: 0
Flags: HW
LayerCount: 2
Back
Fore
SplineSet
444.637 440.82 m 1
 361.183 439.028 l 1
 334.144 412.472 l 1
 308.054 383.74 l 1
 280.088 354.031 l 1
 265.944 333.775 l 1
 258.562 298.625 l 1
 262.9 260.132 l 1
 277.313 219.211 l 1
 294.764 199.054 l 1
 314.851 187.923 l 1
 332.226 177.2 l 1
 379.967 167.944 l 1
 423.058 166.105 l 1
 466.308 175.152 l 1
 509.125 191.32 l 1
 560.547 226.79 l 1
 591.856 270.543 l 1
 617.19 341.831 l 1
 623.039 379.252 l 1
 617.939 399.051 l 1
 601.496 420.166 l 1
 574.995 433.45 l 1
 520.238 442.835 l 1
 444.637 440.82 l 1
230.516 451.056 m 2
 234.708 454.788 l 1
 233.035 455.823 l 2
 207.178 472.491 197.061 488.012 198.808 514.296 c 0
 199.511 524.859 201.435 535.239 204.094 545.319 c 0
 213.188 579.79 230.265 611.039 241.11 638.82 c 2
 252.511 668.021 l 2
 253.05 669.879 253.838 672.65 254.318 673.783 c 0
 257.628 681.569 260.575 686.908 267.286 692.412 c 0
 267.481 692.571 267.796 692.829 268.279 693.192 c 0
 268.46 693.33 268.783 693.57 269.199 693.856 c 0
 269.38 693.978 269.799 694.256 270.116 694.445 c 0
 275.141 697.462 281.1 702.807 296.916 705.733 c 0
 311.066 708.302 325.128 706.517 332.279 707.945 c 2
 357.559 712.992 l 1
 360.736 696.306 l 2
 363.645 681.028 361.002 677.677 364.949 674.312 c 0
 369.59 670.355 378.536 668.511 401.301 667.585 c 0
 414.096 667.066 427.401 666.876 440.947 666.876 c 0
 452.746 666.876 464.836 667.023 477.096 667.023 c 0
 483.426 667.023 489.927 667.038 496.559 667.038 c 0
 569.431 667.038 684.343 668.209 727.79 598.019 c 0
 753.641 554.88 747.453 492.044 743.54 449.211 c 0
 740.201 412.699 733.705 374.232 723.45 335.346 c 0
 702.072 254.319 660.252 152.901 575.383 72.6191 c 0
 523.32 24.417 453.329 -18.8096 373.552 -27.7188 c 0
 360.971 -29.124 348.677 -29.8848 336.727 -29.8848 c 0
 267.244 -29.8848 212.892 -4.74121 181.385 42.4414 c 2
 175.928 52.4336 l 1
 175.681 39.2871 176.142 25.8389 176.529 12.4609 c 0
 176.853 1.25 179.538 -24.1133 173.263 -47.9023 c 0
 170.339 -58.9863 165.272 -70.8379 157.22 -82.6074 c 0
 131.698 -119.903 96.2188 -125.802 66.6172 -125.802 c 0
 66.3936 -125.802 65.7197 -125.804 65.4971 -125.804 c 0
 65.3916 -125.804 65.0791 -125.804 64.9736 -125.802 c 0
 60.041 -125.727 54.1328 -125.852 47.0537 -124.552 c 0
 46.1553 -124.387 42.9404 -123.652 41.4189 -123.179 c 0
 39.7207 -122.65 36.5205 -121.298 35.416 -120.714 c 0
 33.292 -119.589 30.0449 -117.21 29.0322 -116.045 c 0
 28.1084 -114.98 24.5518 -112.07 21.3672 -104.108 c 0
 20.6729 -102.374 20.1807 -100.811 19.9229 -99.9541 c 0
 16.6357 -89.0068 16.7109 -76.167 16.9717 -69.998 c 0
 17.3506 -60.9971 18.8936 -52.0654 21.1836 -43.3838 c 0
 32.3965 -0.880859 66.5479 42.4375 78.4443 77.3691 c 0
 101.725 145.729 117.723 216.502 139.825 288.035 c 0
 142.061 295.269 144.083 302.775 146.128 310.525 c 0
 146.803 313.083 147.48 315.668 148.168 318.278 c 0
 151.631 331.399 155.369 345.161 160.558 359.437 c 0
 160.652 359.698 160.88 360.486 160.949 360.749 c 0
 161.462 362.691 161.923 365.132 162.815 368.519 c 0
 164.192 373.736 165.812 377.792 167.818 381.564 c 0
 182.63 409.402 218.872 440.461 230.516 451.056 c 2
EndSplineSet
EndChar

StartChar: afii57682
Encoding: 242 1506 77
Width: 723
VWidth: 0
Flags: HW
HStem: -30.8731 212.991<112.825 136.334 136.334 179.148 142.745 251.677 225.196 253.853 253.853 266.314 266.314 275.866>
LayerCount: 2
Back
Fore
SplineSet
432.177 201.562 m 0
 478.629 207.998 525.459 215.785 561.605 233.137 c 0
 611.444 256.652 658.078 307.512 670.674 355.255 c 0
 676.995 379.214 675.15 400.752 663.83 417.894 c 0
 646.977 443.417 611.952 450.314 571.354 459.221 c 0
 553.922 461.429 534.968 463.979 516.66 468.511 c 0
 509.901 471.624 508.632 472.223 506.602 473.383 c 0
 501.813 476.462 496.21 481.046 493.04 488.83 c 0
 488.879 498.998 489.576 510.294 492.11 519.903 c 0
 496.304 535.799 510.209 552.027 515.757 559.643 c 0
 537.464 590.287 561.591 631.132 599.92 661.355 c 0
 605.174 665.396 616.747 674.933 630.683 681.918 c 0
 641.051 686.874 654.101 691.02 668.567 691.597 c 0
 669.312 691.627 671.538 691.672 672.276 691.672 c 0
 705.383 691.672 719.88 675.513 735.392 665.182 c 0
 790.797 626.754 803.48 559.448 803.173 507.777 c 0
 802.858 471.521 796.523 435.354 786.975 399.169 c 0
 751.128 263.277 653.535 103.348 472.976 32.3984 c 0
 364.447 -10.1113 245.75 -30.873 135.55 -30.873 c 0
 111.563 -30.873 89.7881 -30.4922 69.8213 -29.0283 c 0
 58.75 -28.2764 58.8115 -28.6748 55.0742 -28.0469 c 0
 49.2812 -27.1963 40.0781 -24.8389 34.8564 -17.3574 c 0
 24.3594 1.22949 25.834 23.1025 31.0625 42.9238 c 0
 38.4941 71.0938 52.7441 97.793 62.1357 117.859 c 0
 71.5947 138.57 78.54 159.996 99.6436 174.178 c 0
 101.075 175.207 103.698 177.016 107.18 178.783 c 0
 114.951 182.76 121.757 183.549 127.435 183.549 c 0
 133.55 183.549 142.921 182.118 145.049 182.118 c 0
 162.839 182.118 188.236 182.085 213.595 182.085 c 0
 226.275 182.085 238.995 182.097 251.648 182.118 c 0
 251.695 182.118 251.848 182.12 251.895 182.12 c 0
 253.109 182.12 254.513 182.111 255.814 182.111 c 0
 255.979 182.111 256.438 182.112 256.604 182.113 c 0
 264.838 182.175 271.055 182.305 275.866 182.523 c 1
 275.89 182.931 275.791 183.255 275.911 183.712 c 0
 276.281 185.11 276.814 186.83 276.926 187.179 c 0
 278.376 191.57 279.647 196.009 280.844 200.544 c 0
 289.229 232.326 290.803 266.441 296.134 301.62 c 0
 301.578 337.543 305.581 370.536 303.396 404.439 c 0
 302.114 424.316 302.885 434.81 298.742 443.664 c 0
 298.569 444.031 298.649 443.528 298.347 443.787 c 0
 293.032 448.345 280.251 453.723 271.288 458.758 c 0
 247.923 471.849 210.312 499.308 220.836 543.362 c 0
 220.941 543.799 221.274 545.111 221.39 545.548 c 0
 225.761 562.117 235.546 578.84 239.823 586.973 c 0
 250.26 606.957 261.709 630.103 281.139 652.419 c 2
 281.279 652.088 l 1
 281.645 652.422 l 2
 289.097 658.967 306.372 675.234 330.761 685.11 c 0
 332.188 685.667 334.823 686.678 338.399 687.799 c 0
 350.594 691.563 362.362 692.228 371.621 692.228 c 0
 392.915 692.228 417.572 687.304 421.579 685.862 c 0
 434.609 681.11 444.762 671.467 449.896 667.215 c 0
 468.165 652.111 493.165 631.962 497.317 600.585 c 0
 498.377 593.985 497.651 587.59 496.121 581.793 c 0
 492.137 566.691 484.921 555.428 480.319 544.038 c 0
 468.404 514.926 457.146 486.15 447.424 457.389 c 0
 434.671 419.576 423.459 381.514 413.387 343.335 c 0
 400.324 293.819 389.501 244.155 380.29 194.764 c 1
 396.999 196.513 414.554 199.067 432.177 201.562 c 0
EndSplineSet
EndChar

StartChar: afii57683
Encoding: 243 1507 78
Width: 636
VWidth: 0
Flags: HW
LayerCount: 2
Back
Fore
SplineSet
467.973 671.883 m 0
 487.818 671.883 506.146 668.798 524.976 666.598 c 0
 597.455 657.026 647.9 631.887 685.745 594.607 c 0
 697.883 582.739 708.701 569.841 717.759 553.863 c 0
 723.73 544.014 725.06 542.015 726.222 538.032 c 0
 726.684 536.755 727.279 534.26 727.426 533.222 c 0
 727.72 531.136 727.384 525.357 726.564 522.265 c 0
 724.71 515.216 722.105 510.079 720.797 506.354 c 0
 713.16 484.921 702.814 465.354 693.286 447.177 c 0
 661.755 386.699 627.322 331.512 604.639 274.186 c 0
 596.517 253.662 590.011 233.421 584.666 213.163 c 0
 573.491 170.806 567.38 128.247 561.479 83.3477 c 0
 552.827 18.0117 546.028 -47.7139 535.546 -114.544 c 0
 532.061 -136.687 527.954 -158.85 523.068 -181.19 c 0
 521.43 -188.67 520.944 -194.124 518.53 -203.274 c 0
 517.539 -207.032 516.161 -211.24 514.156 -215.625 c 0
 495.696 -256.836 457.784 -288.326 422.747 -310.657 c 0
 409.191 -319.285 381.643 -338.025 359.779 -341.516 c 0
 358.151 -341.749 357.578 -341.883 354.361 -342.048 c 0
 352.83 -342.131 351.911 -342.156 351.307 -342.156 c 0
 351.066 -342.156 350.344 -342.148 350.107 -342.14 c 0
 339.536 -341.177 317.058 -340.485 309.096 -314.535 c 0
 306.474 -306.5 304.963 -298.26 305.492 -290.034 c 0
 305.755 -286.01 306.483 -282.356 307.42 -278.809 c 0
 310.597 -266.765 314.873 -257.989 316.909 -250.271 c 0
 325.959 -215.964 336.346 -182.18 345.151 -148.801 c 0
 363.438 -79.4854 385.965 -10.8545 403.877 57.04 c 0
 408.088 72.999 412.122 89.3076 416.486 105.849 c 0
 429.873 156.592 445.495 209.562 473.636 261.634 c 0
 490.406 292.666 508.219 323.182 528.345 353.057 c 0
 543.069 374.912 547.814 377.723 550.371 384.017 c 1
 550.559 384.164 l 1
 550.524 384.288 550.532 384.45 550.585 384.654 c 0
 551.562 389.741 549.59 399.795 532.084 417.995 c 0
 500.122 445.332 441.459 467.207 375.697 473.371 c 0
 360.447 474.971 349.512 477.263 339.069 477.263 c 0
 334.417 477.263 331.887 477.005 330.971 476.852 c 0
 324.878 475.565 313.099 470.313 292.224 455.575 c 0
 277.549 442.716 269.106 427.582 265.124 412.482 c 0
 260.323 394.282 261.908 374.44 269.268 358.229 c 0
 276.72 341.814 292.375 325.977 309.195 311.451 c 0
 329.38 294.019 353.048 288.006 369.397 262.881 c 0
 384.856 239.543 380.4 216.173 377 188.581 c 0
 376.13 181.89 376.369 173.64 373.414 162.441 c 0
 372.556 159.182 371.109 155.107 368.274 150.791 c 2
 368.121 151.821 l 1
 366.976 150.79 l 2
 365.012 149.13 357.493 140.928 353.021 138.283 c 0
 347.957 135.312 343.782 133.695 339.742 131.948 c 0
 322.844 124.329 304.77 118.661 286.6 115.608 c 0
 273.448 113.381 260.531 112.279 248.028 112.279 c 0
 194.091 112.279 149.466 132.664 129.854 170.311 c 0
 121.372 187.046 104.193 226.85 123.37 314.021 c 0
 124.953 321.176 126.665 328.296 128.54 335.4 c 0
 147.769 408.288 185.444 487.224 255.938 564.063 c 0
 291.188 602.154 339.477 634.198 393.602 654.602 c 0
 403.197 658.21 428.549 668.531 451.048 671.016 c 0
 456.864 671.645 462.504 671.883 467.973 671.883 c 0
EndSplineSet
EndChar

StartChar: afii57684
Encoding: 244 1508 79
Width: 675
VWidth: 0
Flags: HW
LayerCount: 2
Back
Fore
SplineSet
364.673 685.217 m 2
 370.396 661.778 362.575 657.757 369.658 651.09 c 0
 382.242 639.243 411.452 641.196 445.533 639.221 c 0
 513.7 635.266 585.977 642.652 650.867 623.543 c 0
 744.765 595.46 742.616 487.833 733.642 422.791 c 0
 731.829 409.49 729.89 395.921 726.859 381.947 c 0
 725.207 374.34 723.359 366.666 721.322 358.949 c 0
 698.554 272.633 652.731 178.495 574.579 108.073 c 0
 509.678 51.0684 414.396 10.5967 332.55 -10.6611 c 0
 281.998 -23.9795 225.318 -35.207 171.839 -35.207 c 0
 158.426 -35.207 145.375 -34.3408 133.496 -32.9912 c 0
 121.087 -31.5332 108.862 -31.3984 97.543 -27.6895 c 0
 88.9717 -24.8828 77.9053 -19.21 74.042 -5.6543 c 0
 71.3398 3.55078 72.959 12.8027 74.877 20.0723 c 0
 76.2783 25.3828 76.4531 25.4424 77.2461 28.4473 c 0
 77.3643 28.8984 77.7227 30.4775 77.7588 30.7012 c 0
 78.998 38.3955 80.666 46.1006 82.6982 53.8047 c 0
 88.5107 75.835 97.1904 97.7021 107.256 118.327 c 0
 109.817 123.576 115.114 134.483 122.517 144.017 c 0
 134.324 159.222 146.251 164.235 149.062 165.428 c 0
 161.097 170.53 174.781 170.688 180.863 170.688 c 0
 186.949 170.688 186.967 170.594 190.821 170.594 c 0
 191.065 170.594 192.788 170.609 193.281 170.628 c 0
 214.57 171.441 236.837 172.981 259.679 174.259 c 0
 357.645 179.738 438.934 181.524 510.639 218.177 c 0
 563.507 245.2 598.462 288.898 610.699 335.286 c 0
 612.267 341.225 613.427 347.31 614.267 353.377 c 0
 618.122 381.171 612.668 407.128 591.981 421.445 c 0
 579.143 430.332 553.668 432.767 524.69 436.188 c 0
 501.745 438.896 478.668 440.536 455.423 440.536 c 0
 442.228 440.536 428.943 440.017 415.547 438.925 c 0
 404.338 438.011 386.791 438.613 377.604 435.4 c 0
 365.914 431.316 339.908 411.32 329.454 391.635 c 1
 330.227 389.547 331.312 387.393 333.992 383.542 c 0
 344.314 368.72 364.419 354.763 365.847 330.473 c 0
 366.134 325.607 365.645 320.357 364.205 314.902 c 0
 363.968 314.003 363.137 311.304 362.821 310.406 c 0
 356.717 293.038 343.776 280.231 334.081 270.15 c 0
 315.479 250.808 289.979 222.794 253.252 209.358 c 0
 244.631 206.203 225.685 200.366 208.889 200.366 c 0
 201.577 200.366 195.974 201.518 191.64 203.479 c 0
 173.983 211.474 162.167 229.665 157.353 237.935 c 0
 133.79 278.405 143.483 315.583 145.709 324.021 c 0
 148.229 333.574 152.078 343.332 157.396 353.017 c 0
 168.847 373.873 184.604 390.812 199.052 405.303 c 0
 212.802 419.096 226.757 430.653 239.469 441.235 c 1
 232.874 444.591 218.821 453.238 209.755 481.368 c 0
 202.596 503.586 204.754 527.391 210.693 549.906 c 0
 218.388 579.075 232.299 606.921 243.557 630.886 c 0
 248.281 640.946 253.118 651.161 257.854 661.615 c 0
 260.591 667.653 261.229 669.263 262.159 670.948 c 0
 264.691 675.53 268.77 681.208 275.176 685.939 c 2
 276.269 686.746 l 1
 277.491 687.213 l 2
 280.046 688.19 290.408 693.546 294.955 694.425 c 0
 301.217 695.633 307.017 695.578 309.315 695.686 c 0
 323.494 696.348 328.198 695.978 332.834 697.581 c 2
 359.577 706.097 l 1
 364.673 685.217 l 2
EndSplineSet
EndChar

StartChar: afii57685
Encoding: 245 1509 80
Width: 521
VWidth: 0
Flags: HW
LayerCount: 2
Back
Fore
SplineSet
652.622 623.716 m 0
 638.325 569.522 608 510.062 553.551 471.084 c 2
 552.539 470.359 l 1
 551.421 469.921 l 2
 531.552 462.155 507.909 457.785 482.929 453.284 c 0
 472.154 451.343 466.704 450.228 463.567 449.496 c 1
 461.251 444.116 458.33 434.511 455.708 428.511 c 0
 430.435 370.662 410.43 311.97 394.939 253.254 c 0
 389.532 232.755 384.697 212.248 380.389 191.774 c 0
 375.294 167.565 368.161 144.932 365.165 124.738 c 0
 362.945 109.711 364.872 85.8555 364.046 70.6611 c 0
 360.765 14.2812 357.522 -45.0742 341.546 -105.637 c 0
 338.957 -115.451 335.975 -125.292 332.504 -135.148 c 0
 323.575 -160.422 306.427 -181.855 292.442 -200.87 c 0
 271.973 -229.132 250.709 -257.492 226.156 -284.957 c 0
 214.13 -298.208 200.228 -309.946 186.575 -320.898 c 0
 180.051 -326.142 177.919 -327.958 175.678 -329.624 c 2
 175.367 -329.312 l 1
 174.843 -329.622 l 2
 174.238 -329.934 171.657 -331.224 170.438 -331.752 c 0
 169.719 -332.053 166.709 -333.127 165.211 -333.602 c 2
 164.612 -333.452 l 1
 163.896 -333.602 l 2
 163.31 -333.728 160.54 -334.137 158.529 -334.63 c 0
 154.8 -335.462 148.896 -337.114 146.576 -337.412 c 0
 141.726 -338.008 137.131 -338.166 133.462 -338.11 c 0
 132.499 -338.095 122.764 -338.282 112.201 -335.769 c 2
 111.68 -335.633 l 1
 111.114 -335.77 l 2
 98.7676 -330.597 91.7129 -321.314 89.0986 -317.931 c 0
 67.9902 -288.486 73.3594 -246.244 75.6514 -223.087 c 0
 77.626 -203.752 81.4424 -184.646 86.4111 -165.813 c 0
 102.127 -106.239 128.101 -48.9941 153.471 7.83984 c 0
 176.452 59.1436 197.62 111.452 219.009 163.715 c 0
 245.317 227.923 273.702 291.587 299.682 354.941 c 0
 310.508 381.391 320.115 410.786 333.463 440.411 c 1
 278.351 442.387 212.544 450.387 181.689 480.531 c 2
 181.332 480.938 l 1
 181.31 482.307 l 2
 165.273 514.194 168.177 555.058 178.251 593.241 c 0
 182.767 610.356 189.746 627.302 198.626 642.665 c 0
 205.114 653.666 218.082 671.62 235.98 683.378 c 2
 236.217 683.146 l 1
 236.601 683.366 l 2
 237.389 683.77 237.854 684.072 240.689 685.318 c 0
 241.536 685.679 242.134 685.977 245.176 687.005 c 0
 246.185 687.349 246.969 687.629 249.961 688.409 c 2
 250.687 688.337 l 1
 251.487 688.409 l 2
 253.711 688.6 260.341 688.852 262.524 688.852 c 2
 262.99 688.852 l 1
 263.45 688.852 l 2
 266.162 688.5 274.519 687.922 277.109 687.342 c 2
 278.074 687.108 l 1
 279.047 687.342 l 2
 285.682 683.032 294.28 671.524 294.5 671.32 c 0
 311.831 653.448 334.721 640.793 361.369 634.728 c 0
 382.91 629.917 407.653 627.354 433.009 627.354 c 0
 465.061 627.354 498.218 631.802 527.38 640.862 c 0
 558.288 650.448 593.695 671.312 619.701 691.04 c 2
 645.604 709.289 l 1
 656.105 690.955 l 2
 663.874 675.273 658.328 651.539 656.432 640.854 c 0
 655.411 635.218 654.152 629.517 652.622 623.716 c 0
EndSplineSet
EndChar

StartChar: afii57686
Encoding: 246 1510 81
Width: 483
VWidth: 2
Flags: HW
LayerCount: 2
Back
Fore
SplineSet
541.818 430.986 m 0
 538.507 402.589 532.779 373.611 525.122 344.583 c 0
 500.872 252.666 454.716 157.395 376.624 80.5771 c 0
 334.914 41.5449 257.202 -4.02246 176.57 -22.7627 c 0
 153.652 -28.085 125.571 -29.5371 113.677 -30.624 c 0
 103.591 -31.5713 90.4375 -33.9941 76.4746 -33.9941 c 0
 72.4033 -33.9941 67.667 -33.8721 63.4844 -33.3213 c 0
 61.2734 -33.041 53.8184 -32.8545 45.9609 -29.4131 c 2
 45.2393 -29.0459 l 1
 44.4424 -29.4131 l 2
 32.1113 -18.4922 33.3193 1.11523 33.6973 6.2373 c 0
 34.2686 13.043 35.6797 19.6953 37.3398 25.9893 c 0
 40.8047 39.1211 45.1357 51.3398 48.8291 62.6611 c 0
 58.2998 91.8252 67.3193 128.873 95.2637 160.436 c 0
 98.1309 163.806 110.075 181.402 131.697 190.4 c 0
 138.79 193.315 144.628 194.194 149.997 195.604 c 2
 211.098 207.995 l 2
 290.765 220.532 351.786 234.637 385.544 271.175 c 0
 398.962 286.784 407.134 305.484 411.956 323.761 c 0
 423.707 368.307 409.607 409.477 362.627 424.548 c 0
 334.161 433.68 300.455 438.282 265.69 445.477 c 0
 259.77 446.701 228.04 451.252 215.107 465.091 c 1
 213.357 465.522 210.593 466.313 207.646 467.661 c 2
 205.34 468.716 l 1
 204.873 471.264 l 2
 204.543 471.752 204.021 472.688 203.414 473.673 c 0
 201.873 484.914 202.548 496.927 202.791 502.884 c 0
 203.51 521.514 206.403 541.166 211.631 560.979 c 0
 215.049 573.932 220.087 586.954 226.854 599.614 c 0
 245.738 635.067 274.621 655.82 300.678 676.918 c 0
 325.059 696.878 347.724 718.893 368.763 740.698 c 0
 390.293 762.244 414.788 798.189 466.442 814.87 c 0
 493.798 823.697 524.633 827.631 554.227 827.631 c 0
 575.307 827.631 592.731 824.691 608.278 818.972 c 0
 628.067 812.469 648.722 799.176 643.082 777.791 c 0
 640.688 768.719 637.292 759.325 632.566 750.295 c 0
 614.79 716.597 589.383 699.032 561.531 680.575 c 0
 515.334 651.16 460.466 642.89 415.826 618.928 c 1
 428.209 617.496 440.675 615.498 450.688 611.905 c 0
 539.995 578.57 549.321 498.396 541.818 430.986 c 0
EndSplineSet
EndChar

StartChar: afii57687
Encoding: 247 1511 82
Width: 675
VWidth: 0
Flags: HW
HStem: 429.012 0.579687<275.243 276.009 276.009 347.712>
LayerCount: 2
Back
Fore
SplineSet
329.031 398.358 m 2
 304.733 357.731 289.43 312.973 275.231 267.882 c 0
 270.421 252.606 265.838 237.325 261.846 222.197 c 0
 257.261 204.813 253.459 187.614 250.901 170.853 c 0
 245.326 134.313 246.601 95.8887 243.798 55.6475 c 0
 238.616 -18.7803 230.982 -94.6729 210.58 -172.007 c 0
 208.859 -178.533 207.045 -185.078 205.129 -191.634 c 0
 202.717 -199.887 197.598 -223.386 186.423 -242.229 c 0
 163.213 -281.367 114.794 -309.416 87.002 -324.072 c 0
 70.6416 -332.699 50.5713 -342.309 29.4893 -342.309 c 0
 12.5967 -342.309 3.0293 -335.67 -1.53711 -331.853 c 2
 -2.03027 -331.439 l 1
 -2.39453 -330.912 l 2
 -5.57031 -326.305 -12.6768 -321.274 -12.2109 -303.259 c 0
 -11.874 -290.187 -8.24316 -279.837 -6.82129 -271.543 c 0
 -5.53613 -264.052 -3.88965 -256.771 -2.00488 -249.627 c 0
 2.40625 -232.906 7.89844 -217.229 12.3906 -202.558 c 0
 13.4805 -198.997 14.5107 -195.338 15.498 -191.596 c 0
 19.8623 -175.053 23.2559 -157.021 27.2451 -138.929 c 0
 31.5098 -119.58 36.3047 -100.301 41.3662 -81.1162 c 0
 54.127 -32.7432 68.6338 15.1064 81.3096 62.2881 c 0
 82.3291 66.0869 83.3408 69.8936 84.3477 73.709 c 0
 88.9805 91.2686 93.5039 109.027 98.2285 126.937 c 0
 111.58 177.547 126.489 229.447 150.628 281.486 c 0
 166.966 316.712 187.052 350.671 210.462 383.461 c 0
 217.223 392.931 223.089 402.998 231.617 412.085 c 0
 237.077 417.904 242.392 421.974 247.523 424.777 c 0
 255.545 429.16 262.992 429.935 268.443 429.935 c 0
 273.037 429.935 275.243 429.592 276.01 429.592 c 2
 347.712 429.592 l 1
 329.031 398.358 l 2
326.203 707.147 m 0
 327.31 707.273 329.147 707.35 329.869 707.35 c 2
 331.337 707.35 l 1
 332.523 706.762 l 2
 332.533 706.755 351.692 707.105 354.204 684.53 c 0
 356.352 665.221 353.383 664.649 353.385 664.646 c 0
 355.378 656.954 364.99 652.624 371.943 651.737 c 0
 388.755 649.672 406.483 649.018 424.851 649.018 c 0
 463.013 649.018 503.881 652.211 545.427 652.211 c 0
 563.988 652.211 582.558 651.451 601.166 649.578 c 0
 640.618 645.608 688.827 636.116 710.997 602.157 c 0
 720.79 587.163 731.115 563.336 735.42 509.36 c 0
 737.702 480.745 736.169 451.314 732.179 421.969 c 0
 728.966 398.321 724.192 374.41 717.878 350.456 c 0
 696.326 268.779 656.848 186.47 599.44 112.953 c 0
 560.677 63.3086 479.236 10.0186 398.631 10.0186 c 0
 393.556 10.0186 388.343 10.2568 383.353 10.708 c 2
 382.71 10.7656 l 1
 382.115 10.9375 l 2
 369.899 14.3438 371.033 13.6709 368.555 14.7715 c 0
 368.375 14.8525 368.156 14.9473 367.668 15.1943 c 0
 366.79 15.6406 365.938 16.1367 364.78 16.8174 c 0
 361.874 18.5264 359.191 20.5098 357.743 21.3721 c 0
 354.242 23.4551 346.853 27.4609 341.219 32.9785 c 0
 338.301 35.835 335.04 39.498 333.149 44.6113 c 0
 332.565 46.1982 329.601 51.3535 331.065 62.2432 c 0
 331.276 63.8145 331.938 66.9219 332.2 67.917 c 0
 335.91 81.9795 346.689 99.1465 364.403 112.944 c 0
 402.328 142.483 449.61 146.348 477.845 163.754 c 0
 542.349 203.518 589.115 259.424 604.322 317.066 c 0
 605.934 323.176 607.197 329.31 608.09 335.46 c 0
 612.739 367.42 610.703 379.286 606.918 387.786 c 0
 589.484 426.943 543.221 436.723 483.832 436.723 c 0
 449.35 436.723 411.529 432.993 376.425 430.996 c 0
 358.342 429.967 339.736 429.012 320.75 429.012 c 0
 315.421 429.012 309.955 428.971 304.835 428.971 c 0
 271.156 428.971 234.395 431.003 212.721 456.506 c 0
 195.26 477.051 195.084 501.169 203.854 537.812 c 0
 204.577 540.834 205.359 543.937 206.155 546.953 c 0
 213.367 574.29 223.153 600.572 233.04 626.344 c 0
 237.987 639.247 243.513 651.774 248.499 664.032 c 0
 252.147 673 252.573 674.141 253.121 675.234 c 0
 255.602 680.192 259.541 686.398 266.093 691.805 c 2
 266.711 692.314 l 1
 267.393 692.718 l 2
 272.484 695.727 278.309 701.624 294.144 704.788 c 0
 307.967 707.553 321.314 706.615 326.203 707.147 c 0
EndSplineSet
EndChar

StartChar: afii57688
Encoding: 248 1512 83
Width: 597
VWidth: 0
Flags: HW
LayerCount: 2
Back
Fore
SplineSet
243.133 701.897 m 2
 250.055 701.897 256.923 701.876 263.742 701.876 c 0
 267.1 701.876 270.604 701.855 274 701.897 c 0
 274.341 701.904 274.472 701.904 274.507 701.911 c 0
 276.115 702.282 277.843 702.723 282.525 702.723 c 0
 287.838 702.723 296.777 699.378 299.22 697.337 c 2
 299.616 697.006 l 1
 299.931 696.603 l 2
 301.429 694.686 306.844 690.933 308.327 687.719 c 0
 311.229 681.436 310.75 673.227 310.764 673.165 c 0
 312.437 666.163 313.822 661.677 325.07 659.85 c 0
 344.157 656.75 365.315 655.761 387.946 655.761 c 0
 417.044 655.761 448.806 658.112 480.995 658.112 c 0
 519.523 658.112 559.981 655.221 594.545 637.867 c 0
 644.938 612.257 655.514 551.024 658.883 509.902 c 0
 663.039 459.146 656.595 405.045 642.33 350.978 c 0
 624.727 284.248 595.172 217.507 558.113 156.67 c 0
 534.867 118.512 509.062 79.751 474.748 44.6641 c 0
 456.501 26.4697 433.439 7.18848 401.927 -6.13086 c 0
 380.369 -15.3271 354.239 -23.0381 328.355 -23.0381 c 0
 301.737 -23.0381 279.596 -14.7256 268.703 2.94531 c 0
 261.814 15.6914 260.373 30.375 264.275 45.166 c 0
 268.414 60.8516 278.493 76.7295 293.941 89.8193 c 0
 311.799 104.952 328.977 112.086 343.918 121.977 c 0
 357.364 130.876 370.851 140.749 383.713 150.732 c 0
 457.497 208.012 514.445 267.615 533.007 337.974 c 0
 542.728 374.818 539.957 401.592 519.278 420.443 c 0
 510.65 428.31 492.35 439.354 449.029 443.642 c 0
 431.923 445.353 414.144 446.143 395.877 446.143 c 0
 359.297 446.143 320.418 443.485 280.963 443.485 c 0
 240.706 443.485 173 444.45 162.462 499.873 c 0
 160.285 511.321 163.37 521.561 164.317 528.748 c 0
 166.039 541.802 169.006 554.344 172.173 566.351 c 0
 174.438 574.935 176.826 583.201 178.954 591.231 c 0
 187.558 623.714 202.665 654.171 213.645 681.671 c 2
 221.719 701.897 l 1
 243.133 701.897 l 2
EndSplineSet
EndChar

StartChar: afii57689
Encoding: 249 1513 84
Width: 675
VWidth: 0
Flags: HW
HStem: 442.946 201.608<413.877 457.575 457.575 514.366 463.93 578.679>
LayerCount: 2
Back
Fore
SplineSet
268.891 636.141 m 2
 281.699 655.271 295.47 673.436 303.183 688.497 c 2
 312.428 706.552 l 1
 406.12 706.552 l 1
 399.694 682.199 l 2
 392.1 653.408 407.736 648.502 413.701 646.213 c 0
 417.396 644.794 424.565 645.259 435.679 644.555 c 0
 451.701 643.54 466.993 642.305 481.945 641.743 c 0
 503.736 640.927 525.336 640.167 546.771 640.167 c 0
 578.743 640.167 610.329 641.886 641.634 647.301 c 0
 668.679 651.979 692.397 668.029 700.21 683.418 c 2
 709.856 702.688 l 1
 805.7 702.688 l 1
 799.554 679.466 l 2
 791.784 650.087 776.223 620.509 761.895 595.364 c 0
 748.517 571.888 734.426 547.839 717.136 523.963 c 0
 711.263 515.855 704.984 503.562 691.585 492.479 c 0
 657.68 464.498 600.824 454.441 581.349 450.789 c 0
 548.628 444.654 517.423 442.946 487.507 442.946 c 0
 443.48 442.946 402.052 446.782 361.874 446.782 c 0
 353.593 446.782 345.416 446.686 337.309 446.354 c 1
 320.472 386.093 300.252 326.817 284.799 268.243 c 2
 284.656 267.704 l 2
 283.802 264.464 282.93 261.104 282.021 257.66 c 0
 278.796 245.44 275.183 232.203 269.972 218.989 c 2
 269.653 218.182 l 1
 272.387 217.727 275.287 217.295 276.558 217.066 c 0
 298.349 213.146 323.793 213.15 352.034 211.643 c 0
 368.723 210.752 384.813 209.942 400.415 209.942 c 0
 425.311 209.942 448.713 212.117 472.368 219.154 c 0
 545.016 240.762 593.296 310.896 615.032 380.027 c 2
 622.349 403.298 l 1
 724.766 403.298 l 1
 718.34 378.945 l 2
 697.486 299.899 667.68 219.021 621.775 142.203 c 0
 616.245 132.949 589.008 84.2461 557.814 55.29 c 0
 540.735 39.6465 504.75 16.5674 445.243 3.09766 c 0
 417.168 -3.25781 390.033 -5.25098 364.154 -5.25098 c 0
 336.277 -5.25098 309.733 -2.92969 284.757 -0.767578 c 0
 271.822 0.350586 249.45 4.66504 237.265 4.66504 c 0
 231.914 4.66504 228.823 4.06152 227.271 3.64453 c 0
 206.979 -1.80078 199.526 -41.5986 167.32 -66.5664 c 0
 164.68 -68.6143 155.429 -76.6357 136.865 -82.0498 c 0
 123.098 -86.0654 111.289 -86.5918 102.076 -86.5918 c 0
 93.2852 -86.5918 86.9473 -86.0811 80.9609 -86.0811 c 2
 50.1777 -86.0811 l 1
 65.1641 -56.125 l 2
 66.5713 -53.3125 68.1963 -48.8447 70.125 -41.5371 c 0
 70.8516 -38.7812 71.7432 -35.1924 72.6338 -31.8184 c 0
 73.958 -26.7979 74.9219 -23.5918 75.6562 -21.416 c 0
 84.0371 3.33789 91.5107 28.6846 99.4795 54.3584 c 0
 123.228 130.867 147.853 207.203 171.493 283.368 c 0
 183.435 321.841 194.993 361.025 208.165 400.261 c 0
 212.057 411.856 215.482 424.754 220.217 438.574 c 0
 221.496 442.314 222.828 445.478 224.028 448.417 c 1
 213.64 451.284 192.486 456.854 183.188 470.454 c 0
 180.612 474.224 175.838 483.107 179.314 496.284 c 0
 179.357 496.448 179.494 496.938 179.542 497.103 c 2
 179.728 497.732 l 1
 180.02 498.349 l 2
 181.529 501.515 182.002 505.36 188.229 514.104 c 2
 190.592 517.317 l 2
 191.354 518.335 192.664 520.055 193.126 520.757 c 2
 268.891 636.141 l 2
EndSplineSet
EndChar

StartChar: afii57690
Encoding: 250 1514 85
Width: 674
VWidth: 1
Flags: HW
HStem: -24.9744 14.7G<83.3483 87.1129>
LayerCount: 2
Back
Fore
SplineSet
251.612 450.318 m 1
 246.482 452.935 240.564 456.605 236.338 461.408 c 0
 214.427 486.4 217.182 521.14 225.166 551.404 c 0
 232.048 577.492 243.315 602.532 251.201 621.852 c 0
 257.031 636.134 262.498 650.078 267.021 664.05 c 0
 267.701 666.152 267.239 666.309 268.465 670.948 c 0
 271.132 681.06 276.808 690.083 286.117 696.228 c 0
 294.08 701.484 300.939 703.017 309.779 703.017 c 0
 315.914 703.017 316.675 702.667 317.984 702.667 c 0
 329.218 702.667 342.354 703.633 356.662 703.633 c 2
 378.484 703.633 l 1
 378.512 686.553 l 2
 378.521 681.26 379.721 668.24 387.4 661.719 c 0
 397.842 652.853 420.812 649.709 460.955 649.709 c 0
 471.559 649.709 482.257 649.75 493.019 649.75 c 0
 534.693 649.75 577.446 649.235 619.312 642.943 c 0
 656.422 637.367 694.549 626.037 715.022 595.978 c 0
 725.585 580.04 729.232 558.637 731.227 548.673 c 0
 735.994 524.883 739.396 500.385 739.102 473.718 c 0
 738.646 432.916 732.711 391.152 721.714 349.475 c 0
 702.933 278.285 669.418 207.332 623.221 141.791 c 0
 605.536 116.701 523.239 7.49512 424.398 7.49512 c 0
 409.243 7.49512 394.308 10.1641 380.248 15.6807 c 2
 379.806 15.8535 l 1
 379.414 16.0908 l 2
 373.033 19.9619 359.697 24.7812 356.841 46.5547 c 0
 355.061 60.1221 358.693 75.709 360.262 83.0469 c 0
 360.843 85.7598 361.178 88.4678 362.131 92.0811 c 0
 365.141 103.487 372.327 113.231 383.365 120.596 c 0
 419.623 144.786 449.158 149.124 483.444 166.095 c 0
 518.034 183.216 546.085 212.818 560.676 231.241 c 0
 584.795 261.689 598.514 295.546 608.033 331.633 c 0
 608.354 332.849 609.289 336.5 609.595 337.717 c 0
 616.233 364.269 617.719 384.845 606.938 400.504 c 0
 584.976 432.399 539.517 436.898 482.622 436.898 c 0
 470.405 436.898 457.893 436.718 445.369 436.718 c 0
 427.673 436.718 410.987 439.221 397.966 439.221 c 0
 392.86 439.221 389.156 438.9 386.446 438.493 c 1
 371.105 425.228 l 2
 344.803 403.42 324.203 383.687 314.939 362.383 c 0
 312.877 357.641 311.254 352.903 309.989 348.11 c 0
 304.218 326.231 306.329 302.573 309.561 277.249 c 0
 312.717 252.53 312.019 228.604 314.721 207.755 c 0
 318.778 176.417 327.354 143.08 316.634 102.443 c 0
 315.32 97.4619 313.707 92.3877 311.758 87.2285 c 0
 293.005 37.6152 269.394 17.2637 252.5 5.90332 c 0
 250.863 4.78906 245.755 0.87793 234.885 -3.29688 c 0
 233.826 -3.70215 231.702 -4.48438 229.571 -5.18262 c 0
 217.666 -9.08398 204.04 -11.376 200.679 -12.0986 c 0
 167.272 -19.29 133.813 -24.0566 102.146 -24.0566 c 0
 98.4492 -24.0566 90.8105 -24.9746 83.415 -24.9746 c 0
 83.2822 -24.9746 82.8838 -24.9727 82.7529 -24.9707 c 0
 81.6025 -24.959 76.3896 -24.7656 74.2148 -24.5068 c 0
 73.4424 -24.4141 70.7607 -23.9961 69.5283 -23.7275 c 0
 68.1377 -23.4229 65.4512 -22.625 64.5938 -22.3115 c 0
 61.3779 -21.1406 59.5361 -20.1377 58.6172 -19.2578 c 0
 56.7168 -17.4365 51.5518 -12.4854 50.1025 -9.71289 c 0
 43.501 2.55566 45.9775 22.3408 46.2002 25.3076 c 0
 47.2148 38.8828 50.207 51.9561 53.4375 64.2041 c 0
 55.957 73.7529 58.6455 82.8574 60.8926 91.3721 c 0
 62.374 96.9902 63.3154 103.308 65.5938 111.943 c 0
 67.958 120.909 70.4336 126.403 72.1865 129.885 c 0
 84.7021 154.722 109.653 169.486 136.05 181.119 c 0
 140.78 183.203 144.185 184.601 146.62 185.553 c 1
 148.047 191.645 149.336 202.42 151.12 209.902 c 0
 157.152 235.218 163.742 259.754 167.435 282.921 c 0
 169.612 296.579 167.414 311.991 173.033 333.294 c 0
 184.563 376.997 216.089 417.938 251.612 450.318 c 1
EndSplineSet
EndChar

StartChar: braceright
Encoding: 125 125 86
Width: 669
VWidth: 1
Flags: HW
LayerCount: 2
Back
Fore
SplineSet
608.293 945.469 m 0
 642.495 909.447 642.017 850.808 637.301 803.48 c 0
 634.279 773.192 627.719 742.749 619.81 712.768 c 0
 611.099 679.748 600.679 647.203 591.031 615.836 c 0
 586.696 601.744 582.445 587.463 578.695 573.25 c 0
 567.246 529.849 560.896 487.446 569.078 452.885 c 0
 574.446 430.205 590.546 416.396 607.304 407.153 c 0
 612.311 404.392 624.665 401.646 633.538 394.95 c 2
 680.028 359.873 l 1
 612.333 350.247 l 2
 607.263 349.525 601.63 347.942 586.348 341.196 c 0
 522.663 313.076 496.575 246.577 476.539 170.628 c 0
 470.736 148.634 465.046 127.033 460.375 105.786 c 0
 453.667 75.2695 447.71 43.7803 439.217 11.5908 c 0
 430.086 -23.0195 417.984 -58.5781 398.398 -94.2705 c 0
 376.414 -134.331 343.854 -175.546 296.316 -199.909 c 0
 277.199 -209.704 258.024 -215.79 240.099 -220.044 c 0
 206.171 -228.098 172.782 -230.814 141.404 -230.814 c 2
 117.051 -230.814 l 1
 129.348 -184.202 l 1
 151.201 -181.361 l 2
 155.825 -180.759 160.846 -179.732 174.838 -174.368 c 0
 222.867 -155.954 247.792 -113.376 269.068 -59.332 c 0
 277.484 -37.959 284.224 -16.2432 290.046 5.82227 c 0
 303.987 58.6699 312.482 113.503 327.352 169.864 c 0
 334.879 198.398 344.091 227.363 356.709 256.602 c 0
 374.806 298.532 405.604 345.441 450.169 374.46 c 1
 410.86 411.81 415.353 479.842 423.645 528.608 c 0
 426.64 546.221 430.593 563.701 435.173 581.059 c 0
 450.015 637.318 470.86 692.045 484.682 744.429 c 0
 492.184 772.87 497.663 800.597 499.39 827.638 c 0
 500.837 850.297 500.444 872.641 494.848 889.539 c 0
 486.41 915.02 462.502 934.584 433.92 940.968 c 2
 415.664 945.042 l 1
 427.555 990.122 l 1
 451.908 990.122 l 2
 484.024 990.122 516.452 987.462 546.863 979.083 c 0
 581.302 969.584 599.158 955.087 608.293 945.469 c 0
EndSplineSet
EndChar

StartChar: braceleft
Encoding: 123 123 87
Width: 667
VWidth: 1
Flags: HW
LayerCount: 2
Back
Fore
SplineSet
378.873 535.327 m 0
 384.391 551.984 389.311 568.959 393.848 586.152 c 0
 403.915 624.318 412.266 663.724 422.821 703.738 c 0
 434.065 746.354 447.836 789.782 469.506 833.07 c 0
 481.383 856.793 502.102 895.629 535.131 923.979 c 0
 577.95 960.722 633.389 970.676 680.375 970.676 c 0
 686.415 970.676 701.939 972.271 711.004 972.271 c 0
 724.311 972.271 732.081 969.85 736.379 967.827 c 2
 800.912 937.461 l 1
 719.698 921.515 l 2
 673.086 912.359 644.082 878.388 640.162 873.607 c 0
 626.795 857.297 616.231 836.822 606.188 815.023 c 0
 591.083 782.229 580.162 748.034 570.904 712.943 c 0
 559.301 668.959 550.36 623.644 538.354 578.131 c 0
 535.254 566.385 532.56 553.765 529.026 540.377 c 0
 526.588 531.128 523.726 521.479 519.916 511.498 c 0
 502.301 465.344 476.293 393.079 408.976 359.053 c 1
 437.215 327.556 443.516 280.812 441.025 241.773 c 0
 438.49 202.024 430.073 161.552 419.572 121.747 c 0
 411.439 90.9258 402.044 60.4746 392.999 31.0586 c 0
 387.149 12.0303 381.185 -7.10645 376.271 -25.7275 c 0
 372.225 -41.0674 368.891 -56.0625 366.834 -70.3223 c 0
 358.587 -127.494 358.543 -173.101 397.889 -193.928 c 0
 407.559 -199.047 413.653 -201.199 418.635 -201.644 c 2
 440.361 -203.581 l 1
 427.792 -251.225 l 1
 403.439 -251.225 l 2
 373.104 -251.225 342.239 -249.222 312.951 -240.856 c 0
 288.436 -233.854 263.798 -222.195 247.189 -201.008 c 0
 218.138 -163.943 221.312 -104.285 226.099 -65.9385 c 0
 230.4 -31.4688 238.399 2.99512 247.352 36.9287 c 0
 255.664 68.4395 264.81 99.5166 272.78 129.727 c 0
 285.679 178.624 296.103 227.029 291.347 268.991 c 0
 288.833 291.186 279.55 309.613 263.744 322.9 c 0
 255.012 330.24 242.361 333.9 232.044 344.838 c 2
 205.837 372.623 l 1
 250.767 386.647 l 2
 273.6 393.775 288.546 396.502 300.736 404.184 c 0
 344.295 431.635 364.947 493.294 378.873 535.327 c 0
EndSplineSet
EndChar

StartChar: nullchar
Encoding: 369 -1 178
Width: 541
VWidth: 0
Flags: HW
HStem: 0.972069 0.972069<0.972069 1.94414 0.972069 0.972069>
LayerCount: 2
Back
Fore
SplineSet
0.97168 1.94434 m 1
 1.94434 0.97168 l 1
 0.97168 1.94434 l 1
EndSplineSet
EndChar

StartChar: afii57716
Encoding: 370 1520 180
Width: 712
VWidth: 0
Flags: HW
LayerCount: 2
Fore
SplineSet
581.524 177.248 m 0
 597.861 239.176 606.592 298.703 595.138 354.564 c 0
 588.108 388.846 570.188 420.418 538.192 441.996 c 0
 515.249 457.469 492.558 457.335 479.403 476.27 c 2
 478.954 476.916 l 1
 478.726 477.687 l 2
 475.997 486.902 475.324 497.862 477.506 509.809 c 0
 478.166 513.431 478.967 517.21 479.929 520.854 c 0
 485.863 543.354 505.178 580.321 560.073 628.031 c 0
 573.776 639.942 596.908 657.233 632.145 661.817 c 0
 638.125 662.596 643.801 662.828 649.254 662.828 c 0
 660.386 662.828 675.531 662.797 702.24 651.98 c 0
 741.629 635.044 765.233 606.138 775.278 577.857 c 0
 782.229 558.288 781.403 536.918 780.493 519.583 c 0
 778.771 487.018 772.646 453.978 764.043 421.373 c 0
 761.396 411.343 758.513 401.365 755.461 391.436 c 0
 728.357 303.3 705.789 213.602 673.16 123.155 c 0
 662.607 93.9033 653.547 63.125 640.835 30.9541 c 0
 635.988 18.6885 634.555 12.3281 629.082 2.81543 c 2
 629.062 3.1748 l 1
 628.813 2.82129 l 2
 628.459 2.81934 627.564 2.81543 626.604 2.8125 c 0
 626.063 2.2168 624.01 0.295898 622.189 -1.07715 c 2
 620.55 -2.31543 l 1
 618.684 -2.75781 l 2
 618.452 -2.8125 617.133 -3.13574 615.619 -3.40625 c 1
 610.75 -6.06738 604.676 -9.53613 590.092 -12.1758 c 0
 577.819 -14.3975 565.662 -14.5566 559.688 -14.5566 c 0
 557.535 -14.5566 551.598 -14.4844 549.632 -14.4844 c 2
 523.901 -14.4844 l 1
 525.737 -7.52539 l 2
 542.138 54.6426 565.617 116.951 581.524 177.248 c 0
225.505 177.25 m 0
 241.859 239.239 251.986 298.942 245.644 354.92 c 0
 241.748 389.302 229.12 420.652 204.459 442.27 c 0
 187.158 457.435 168.397 457.807 158.824 476.684 c 2
 158.495 477.329 l 1
 158.356 478.074 l 2
 156.648 487.24 156.68 498.112 159.026 509.919 c 0
 159.755 513.574 160.549 517.113 161.498 520.71 c 0
 167.358 542.925 184.545 579.733 231.322 627.614 c 0
 242.831 639.395 262.63 657.094 291.946 661.795 c 0
 296.934 662.594 301.576 662.828 306.062 662.828 c 0
 315.151 662.828 326.039 662.727 348.687 651.894 c 0
 385.307 634.373 409.105 606.127 419.237 577.864 c 0
 426.247 558.312 425.386 536.898 424.473 519.583 c 0
 422.755 487.035 416.795 453.995 408.189 421.376 c 0
 405.539 411.325 402.529 401.357 399.434 391.408 c 0
 372.264 303.277 349.776 213.603 317.144 123.155 c 0
 306.59 93.9033 297.528 63.127 284.816 30.9541 c 0
 279.969 18.6904 278.537 12.3281 273.062 2.81543 c 2
 273.042 3.16602 l 1
 272.793 2.81055 l 2
 272.438 2.81055 271.546 2.81055 270.584 2.80859 c 0
 270.04 2.20898 267.987 0.291992 266.168 -1.0791 c 2
 264.532 -2.31152 l 1
 262.674 -2.75488 l 2
 262.43 -2.8125 261.11 -3.13477 259.6 -3.40332 c 1
 254.733 -6.06641 248.659 -9.53613 234.076 -12.1758 c 0
 221.801 -14.3975 209.646 -14.5566 203.669 -14.5566 c 0
 201.518 -14.5566 195.578 -14.4844 193.613 -14.4844 c 2
 169.261 -14.4844 l 1
 171.097 -7.52539 l 2
 187.479 54.5762 209.579 116.884 225.505 177.25 c 0
EndSplineSet
EndChar

StartChar: afii57717
Encoding: 371 1521 181
Width: 674
VWidth: 0
Flags: HW
LayerCount: 2
Fore
SplineSet
242.905 696.395 m 1
 250.559 692.104 l 1
 345.001 703.808 l 1
 332.422 685.952 l 1
 330.607 681.568 328.935 679.125 328.771 678.024 c 0
 327.263 667.828 326.604 657.511 328.3 653.354 c 0
 339.422 626.096 384.158 617.811 420.036 598.021 c 0
 441.126 586.39 461.366 571.24 468.888 550.059 c 1
 479.032 570.642 497.944 597.823 534.166 631.863 c 0
 547.403 644.305 569.154 661.636 601.746 666.771 c 0
 607.628 667.696 613.062 667.879 618.248 667.879 c 0
 637.528 667.879 651.73 662.807 662.941 658.508 c 0
 690.087 647.779 725.095 622.473 738.878 583.814 c 0
 746.039 563.733 745.136 541.653 744.142 523.617 c 0
 742.266 489.771 735.448 455.658 726.607 422.149 c 0
 723.226 409.333 719.544 396.575 715.666 383.916 c 0
 704.417 347.198 695.688 309.093 683.603 269.85 c 0
 675.983 245.107 666.6 221.422 659.097 198.923 c 0
 652.011 177.673 646.984 153.062 636.657 126.979 c 0
 625.297 98.2842 616.847 66.8516 603.807 33.9258 c 0
 594.928 11.5107 590.799 4.99902 583.758 -1.41016 c 2
 582.168 -2.85645 l 1
 580.227 -3.49707 l 2
 579.747 -3.6543 577.662 -4.30078 575.638 -4.76367 c 1
 573.489 -5.8457 568.939 -7.96875 560.842 -10.1836 c 0
 545.176 -14.4678 528.64 -14.4219 521.674 -14.4219 c 0
 519.577 -14.4219 513.789 -14.3604 511.854 -14.3604 c 2
 486.716 -14.3604 l 1
 488.552 -7.40234 l 2
 505.384 56.4023 528.493 120.046 544.756 181.688 c 0
 561.383 244.715 570.838 305.325 561.058 362.542 c 0
 555.509 395.009 539.338 425.982 512.16 446.391 c 0
 498.543 456.615 470.396 463.753 459.044 481.251 c 1
 432.2 407.066 380.075 336.364 311.86 278.638 c 0
 296.932 266.004 281.389 253.51 264.78 241.836 c 2
 261.518 239.544 l 1
 258.184 240.187 l 2
 252.832 241.22 247.055 242.305 238.063 242.921 c 1
 233.238 242.295 229.115 242.1 225.402 242.1 c 0
 220.131 242.1 215.147 242.56 210.471 243.392 c 2
 210.093 243.459 l 1
 209.735 243.567 l 1
 209.735 243.567 201.961 245.802 200.234 246.339 c 0
 199.564 246.548 199.078 246.739 198.609 246.947 c 0
 198.434 247.027 198.352 247.062 198.226 247.122 c 1
 194.894 246.337 191.831 245.498 190.134 245.146 c 2
 186.322 244.352 l 1
 184.172 246.707 l 2
 179.243 252.104 178.34 253.09 176.926 254.95 c 0
 176.246 255.848 174.821 257.935 174.41 258.688 c 0
 173.751 259.898 172.725 262.504 172.433 263.442 c 0
 171.864 265.264 171.304 268.522 171.201 269.85 c 0
 171.004 272.468 171.624 277.226 172.109 279.068 c 2
 172.521 280.627 l 1
 173.559 282.037 l 2
 175.996 285.353 180.501 295.115 185.086 299.178 c 0
 190.054 303.508 193.591 305.305 195.538 306.691 c 0
 206.373 314.408 217.604 323.533 228.888 332.963 c 0
 237.134 339.853 284.363 377.806 292.251 407.7 c 0
 293.184 411.236 293.733 415.135 293.188 419.346 c 1
 291.215 420.821 286.085 423.889 270.865 429.029 c 0
 241.872 438.824 204.343 445.254 180.738 461.803 c 2
 180.133 462.228 l 1
 179.688 462.809 l 2
 160.603 487.865 159.286 523.155 169.545 562.04 c 0
 179.185 598.576 203.938 636.039 215.354 653.258 c 0
 222.528 664.077 233.814 679.553 238.545 688.316 c 2
 242.905 696.395 l 1
EndSplineSet
EndChar

StartChar: afii57718
Encoding: 372 1522 182
Width: 638
VWidth: 2
Flags: HW
LayerCount: 2
Fore
SplineSet
247.122 678.966 m 1
 341.052 690.671 l 1
 329.679 677.022 l 1
 328.15 673.699 326.646 671.85 326.551 671.017 c 0
 324.7 659.578 323.686 648.008 325.222 643.332 c 0
 335.769 614.979 381.021 605.511 415.094 585.555 c 0
 432.963 576.146 450.189 564.292 459.644 548.577 c 1
 460.255 550.956 460.882 553.354 461.52 555.774 c 0
 466.202 573.521 477.418 600.945 509.51 644.385 c 0
 517.39 655.429 529.637 671.335 534.688 680.224 c 2
 537.896 683.448 l 1
 545.868 678.934 l 1
 645.383 690.583 l 1
 634.068 677.022 l 1
 632.54 673.699 631.034 671.848 630.94 671.016 c 0
 629.092 659.578 628.074 648.006 629.61 643.332 c 0
 640.076 615.282 686.644 605.028 716.667 585.549 c 0
 740.684 571.677 762.006 552.03 761.341 523.632 c 0
 761.208 517.449 760.025 511.508 758.59 506.07 c 0
 756.168 496.899 753.312 488.375 750.785 480.73 c 0
 725.48 404.637 676.908 331.434 613.258 272.549 c 0
 599.372 261.375 583.97 250.822 567.943 240.782 c 2
 565.116 240.129 l 1
 561.777 240.782 l 2
 556.504 241.854 550.813 242.981 541.943 243.622 c 1
 537.174 243.009 533.095 242.818 529.425 242.818 c 0
 524.284 242.818 519.244 243.246 514.617 244.004 c 2
 514.239 244.072 l 1
 513.842 244.027 l 1
 513.842 244.027 504.741 240.865 502.688 240.104 c 0
 502.023 240.313 501.541 240.506 501.075 240.715 c 2
 500.724 240.876 l 1
 497.441 240.093 494.425 239.26 492.752 238.908 c 2
 488.929 238.104 l 1
 486.786 240.484 l 2
 481.929 245.881 481.037 246.867 479.645 248.73 c 0
 479.249 249.261 477.854 251.276 477.243 252.308 c 0
 476.52 253.528 475.329 256.022 474.965 256.967 c 0
 474.261 258.79 473.507 262.081 473.346 263.427 c 0
 473.03 266.071 473.579 270.949 474.075 272.828 c 2
 474.52 274.517 l 1
 475.715 276.017 l 2
 478.275 279.611 482.981 287.909 486.422 291.587 c 0
 486.711 291.895 487.379 292.565 487.961 293.058 c 0
 492.976 297.296 496.271 299.054 498.192 300.434 c 0
 508.925 308.151 520.057 317.273 531.242 326.703 c 0
 539.419 333.597 586.231 371.558 594.119 401.461 c 0
 595.051 404.99 595.611 408.886 595.087 413.099 c 1
 593.157 414.561 588.206 417.625 573.064 422.795 c 0
 544.484 432.553 504.451 439.036 477.479 455.424 c 2
 476.843 455.812 l 1
 476.359 456.352 l 2
 471.258 461.315 463.374 470.193 458.499 484.477 c 1
 457.988 483.16 457.479 481.881 456.988 480.644 c 0
 430.969 404.424 378.298 331.592 308.854 272.417 c 0
 294.522 261.557 279.578 250.817 263.555 240.782 c 2
 260.727 240.129 l 1
 257.387 240.782 l 2
 252.112 241.854 246.423 242.981 237.554 243.622 c 1
 232.783 243.009 228.707 242.818 225.035 242.818 c 0
 219.815 242.818 214.875 243.243 210.229 244.004 c 2
 209.85 244.072 l 1
 209.45 244.026 l 1
 209.45 244.026 200.352 240.865 198.299 240.104 c 0
 197.634 240.313 197.15 240.506 196.686 240.715 c 2
 196.335 240.876 l 1
 193.05 240.095 190.035 239.26 188.36 238.908 c 2
 184.538 238.104 l 1
 182.396 240.484 l 2
 177.539 245.881 176.647 246.867 175.255 248.73 c 0
 174.587 249.624 173.188 251.707 172.784 252.456 c 0
 172.129 253.669 171.107 256.265 170.816 257.202 c 0
 170.249 259.023 169.686 262.282 169.586 263.609 c 0
 169.386 266.229 170.008 270.984 170.494 272.828 c 2
 170.905 274.387 l 1
 171.941 275.797 l 2
 174.381 279.112 178.881 288.859 183.454 292.93 c 0
 188.386 297.252 191.88 299.052 193.802 300.434 c 0
 204.537 308.15 215.668 317.273 226.852 326.703 c 0
 235.03 333.597 281.843 371.558 289.73 401.461 c 0
 290.664 404.994 291.222 408.886 290.696 413.099 c 1
 288.767 414.561 283.816 417.623 268.674 422.795 c 0
 240.045 432.571 202.72 439.019 179.121 455.562 c 2
 178.516 455.987 l 1
 178.071 456.568 l 2
 158.984 481.625 157.669 516.915 167.927 555.801 c 0
 177.293 591.303 201.769 627.706 213.057 644.437 c 0
 220.291 655.481 231.662 671.279 236.439 680.225 c 2
 239.64 683.903 l 1
 247.122 678.966 l 1
EndSplineSet
EndChar

StartChar: uniFB1D
Encoding: 373 64285 183
Width: 269
VWidth: 1
Flags: HW
LayerCount: 2
Fore
SplineSet
221.108 701.897 m 1
 314.078 714.126 l 1
 301.706 682.601 l 2
 299.919 678.05 298.544 675.508 298.061 674.36 c 1
 297.377 667.079 297.25 659.613 298.428 656.685 c 0
 308.281 632.165 348.557 626.046 378.516 606.481 c 0
 402.483 590.831 421.479 564.295 418.699 527.811 c 0
 418.11 520.081 416.532 512.64 414.716 505.757 c 0
 412.449 497.162 409.714 489.201 407.344 482.069 c 0
 381.86 405.375 332.981 332.004 269.512 272.343 c 0
 256.041 259.68 241.984 247.198 227.038 235.51 c 0
 220.578 230.459 212.025 223.83 200.71 220.301 c 0
 195.383 218.64 191.112 218.15 187.241 218.15 c 0
 182.104 218.15 177.412 219.154 173.231 220.904 c 2
 172.648 221.148 l 1
 172.158 221.516 l 2
 165.688 226.249 164.754 226.71 164.014 227.366 c 0
 163.883 227.482 163.57 227.781 163.39 227.976 c 0
 162.928 228.469 162.901 228.506 161.312 230.652 c 0
 158.958 233.83 155.962 239.469 155.263 240.378 c 0
 151.127 245.77 150.357 246.772 149.177 248.64 c 0
 148.837 249.176 147.662 251.19 147.15 252.227 c 0
 146.545 253.45 145.563 255.949 145.272 256.886 c 0
 144.704 258.708 144.142 261.967 144.04 263.294 c 0
 143.843 265.912 144.464 270.67 144.949 272.514 c 2
 145.362 274.072 l 1
 146.398 275.48 l 2
 148.835 278.797 153.285 288.371 157.748 292.51 c 0
 162.33 296.757 165.363 298.562 167.059 299.905 c 0
 176.781 307.606 186.913 316.729 197.102 326.156 c 0
 204.6 333.094 247.248 371.149 255.161 401.145 c 0
 256.344 405.628 256.639 409.394 256.408 412.688 c 1
 254.271 413.988 248.888 416.981 237.075 422.694 c 0
 211.473 435.074 177.429 446.588 156.347 469.238 c 0
 136.388 490.681 133.283 520.986 142.384 555.485 c 0
 152.672 594.479 177.824 634.564 189.834 652.971 c 0
 196.684 663.467 208.107 678.334 212.695 686.647 c 2
 221.108 701.897 l 1
175.69 171.848 m 0
 171.8 157.099 165.959 146.668 154.06 134.976 c 0
 148.591 129.603 142.298 124.822 135.41 120.813 c 0
 127.454 116.182 118.043 112.462 106.769 110.524 c 0
 104.763 110.18 100.669 109.438 96.7939 109.438 c 0
 96.3506 109.438 95.0312 109.483 94.5986 109.517 c 0
 85.5635 110.191 67.0361 110.189 55.5664 131.153 c 0
 49.0742 143.024 47.6689 157.657 51.6016 172.562 c 0
 54.0811 181.96 55.8115 185.173 57.2891 188.227 c 0
 65.0752 204.307 83.0137 227.887 117.129 233.761 c 0
 121.314 234.482 125.128 234.807 128.967 234.807 c 0
 166.056 234.807 184.209 204.139 175.69 171.848 c 0
EndSplineSet
EndChar
